{"glyphs":{"0":{"ha":612,"x_min":42,"x_max":570,"o":"m 185 0 l 42 143 l 42 829 l 185 972 l 427 972 l 570 829 l 570 143 l 427 0 l 185 0 m 308 197 l 345 197 l 388 239 l 388 517 l 308 197 m 229 99 l 175 150 l 426 828 l 478 779 l 478 199 l 378 99 l 229 99 m 229 99 l 378 99 l 478 199 l 478 779 l 378 874 l 229 874 l 129 779 l 129 199 l 229 99 m 129 199 l 129 779 l 229 874 l 378 874 l 426 828 l 175 150 l 129 199 m 224 470 l 294 776 l 267 776 l 224 733 l 224 470 z "},"1":{"ha":503,"x_min":42,"x_max":461,"o":"m 42 0 l 42 197 l 152 197 l 152 742 l 42 690 l 42 906 l 217 972 l 348 972 l 348 197 l 461 197 l 461 0 l 42 0 m 140 99 l 362 99 l 362 99 l 251 99 l 251 876 l 251 876 l 130 830 l 130 830 l 251 876 l 251 99 l 140 99 l 140 99 z "},"2":{"ha":581,"x_min":42,"x_max":539,"o":"m 42 0 l 42 401 l 185 544 l 301 544 l 343 586 l 343 733 l 301 776 l 280 776 l 238 733 l 238 634 l 42 634 l 42 829 l 185 972 l 396 972 l 539 829 l 539 490 l 396 347 l 280 347 l 238 305 l 238 197 l 539 197 l 539 0 l 42 0 m 143 99 l 440 99 l 440 99 l 143 99 l 143 353 l 243 453 l 351 453 l 442 549 l 442 784 l 344 874 l 242 874 l 143 784 l 143 727 l 143 727 l 143 784 l 242 874 l 344 874 l 442 784 l 442 549 l 351 453 l 243 453 l 143 353 l 143 99 z "},"3":{"ha":594,"x_min":42,"x_max":553,"o":"m 185 0 l 42 143 l 42 331 l 238 331 l 238 239 l 280 197 l 315 197 l 357 239 l 357 345 l 315 388 l 239 388 l 239 583 l 314 583 l 357 630 l 357 733 l 315 776 l 280 776 l 238 733 l 238 641 l 42 641 l 42 829 l 185 972 l 410 972 l 553 829 l 553 530 l 509 486 l 553 441 l 553 143 l 410 0 l 185 0 m 233 99 l 365 99 l 456 192 l 456 386 l 358 486 l 456 586 l 456 786 l 365 874 l 229 874 l 139 786 l 139 717 l 139 717 l 139 786 l 229 874 l 365 874 l 456 786 l 456 586 l 358 486 l 310 486 l 310 486 l 358 486 l 456 386 l 456 192 l 365 99 l 233 99 l 139 192 l 139 257 l 139 257 l 139 192 l 233 99 z "},"4":{"ha":610,"x_min":35,"x_max":575,"o":"m 319 0 l 319 223 l 35 223 l 35 450 l 185 972 l 515 972 l 515 419 l 575 419 l 575 223 l 515 223 l 515 0 l 319 0 m 421 99 l 420 99 l 420 313 l 504 313 l 504 313 l 419 313 l 419 874 l 251 874 l 136 442 l 136 313 l 421 313 l 421 99 m 135 313 l 135 442 l 251 874 l 420 874 l 420 313 l 135 313 m 251 419 l 319 419 l 319 758 l 313 758 l 251 451 l 251 419 z "},"5":{"ha":585,"x_min":42,"x_max":543,"o":"m 185 0 l 42 143 l 42 318 l 238 318 l 238 239 l 280 197 l 305 197 l 347 239 l 347 447 l 305 489 l 287 489 l 227 422 l 42 422 l 42 972 l 540 972 l 540 776 l 238 776 l 238 665 l 258 685 l 400 685 l 543 542 l 543 143 l 400 0 l 185 0 m 237 96 l 354 96 l 443 183 l 443 503 l 354 590 l 269 590 l 197 519 l 141 519 l 141 874 l 451 874 l 451 874 l 141 874 l 141 519 l 197 519 l 269 590 l 354 590 l 443 503 l 443 183 l 354 96 l 237 96 l 141 190 l 141 251 l 141 251 l 141 190 l 237 96 z "},"6":{"ha":592,"x_min":42,"x_max":550,"o":"m 185 0 l 42 143 l 42 829 l 185 972 l 403 972 l 547 829 l 547 681 l 350 681 l 350 733 l 308 776 l 280 776 l 238 733 l 238 638 l 258 658 l 407 658 l 550 515 l 550 143 l 407 0 l 185 0 m 240 99 l 140 198 l 140 429 l 275 561 l 356 561 l 453 466 l 453 194 l 355 99 l 240 99 m 280 197 l 312 197 l 354 239 l 354 419 l 312 462 l 294 462 l 238 406 l 238 239 l 280 197 m 240 99 l 355 99 l 453 194 l 453 466 l 356 561 l 275 561 l 140 429 l 140 781 l 233 874 l 353 874 l 447 781 l 447 751 l 447 751 l 447 781 l 353 874 l 233 874 l 140 781 l 140 198 l 240 99 z "},"7":{"ha":535,"x_min":28,"x_max":493,"o":"m 65 0 l 297 663 l 297 776 l 28 776 l 28 972 l 493 972 l 493 635 l 287 0 l 65 0 m 215 99 l 214 99 l 397 657 l 397 874 l 113 874 l 113 875 l 397 875 l 397 657 l 215 99 z "},"8":{"ha":581,"x_min":42,"x_max":539,"o":"m 185 0 l 42 143 l 42 440 l 104 499 l 42 561 l 42 829 l 185 972 l 396 972 l 539 829 l 539 561 l 476 498 l 539 440 l 539 143 l 396 0 l 185 0 m 232 99 l 142 190 l 142 407 l 235 500 l 348 500 l 441 407 l 441 190 l 351 99 l 232 99 m 232 99 l 351 99 l 441 190 l 441 407 l 348 500 l 441 593 l 441 783 l 351 874 l 232 874 l 142 783 l 142 593 l 235 500 l 142 407 l 142 190 l 232 99 m 235 500 l 142 593 l 142 783 l 232 874 l 351 874 l 441 783 l 441 593 l 348 500 l 235 500 m 280 197 l 301 197 l 343 239 l 343 358 l 301 401 l 280 401 l 238 358 l 238 239 l 280 197 m 281 597 l 300 597 l 343 643 l 343 733 l 301 776 l 280 776 l 238 733 l 238 643 l 281 597 z "},"9":{"ha":592,"x_min":42,"x_max":550,"o":"m 407 972 l 550 829 l 550 143 l 407 0 l 189 0 l 45 143 l 45 291 l 242 291 l 242 239 l 284 197 l 312 197 l 354 239 l 354 335 l 333 314 l 185 314 l 42 457 l 42 829 l 185 972 l 407 972 m 352 874 l 451 774 l 451 543 l 317 411 l 236 411 l 139 506 l 139 778 l 237 874 l 352 874 m 312 776 l 280 776 l 238 733 l 238 553 l 280 510 l 298 510 l 354 566 l 354 733 l 312 776 m 352 874 l 237 874 l 139 778 l 139 506 l 236 411 l 317 411 l 451 543 l 451 191 l 358 98 l 238 98 l 145 191 l 145 221 l 145 221 l 145 191 l 238 98 l 358 98 l 451 191 l 451 774 l 352 874 z "},"A":{"ha":651,"x_min":69,"x_max":582,"o":"m 69 0 l 69 829 l 213 972 l 439 972 l 582 829 l 582 0 l 386 0 l 386 286 l 265 286 l 265 0 l 69 0 m 167 99 l 167 99 l 167 381 l 488 381 l 488 99 l 487 99 l 487 788 l 400 874 l 254 874 l 167 788 l 167 99 m 265 482 l 386 482 l 386 733 l 344 776 l 308 776 l 265 733 l 265 482 m 167 381 l 167 788 l 254 875 l 400 875 l 488 788 l 488 381 l 167 381 z "},"Á":{"ha":678,"x_min":35,"x_max":643,"o":"m 35 0 l 163 972 l 508 972 l 643 0 l 419 0 l 399 206 l 278 206 l 258 0 l 35 0 m 153 84 l 153 84 l 177 286 l 497 286 l 520 84 l 520 84 l 427 874 l 247 874 l 153 84 m 177 286 l 247 874 l 427 874 l 497 286 l 177 286 m 289 383 l 388 383 l 348 775 l 320 775 l 289 383 m 250 994 l 419 1178 l 619 1178 l 422 994 l 250 994 m 382 1042 l 381 1042 l 465 1129 l 465 1129 l 382 1042 z "},"Ă":{"ha":678,"x_min":35,"x_max":643,"o":"m 35 0 l 163 972 l 508 972 l 643 0 l 419 0 l 399 206 l 278 206 l 258 0 l 35 0 m 153 84 l 153 84 l 177 286 l 497 286 l 520 84 l 520 84 l 427 874 l 247 874 l 153 84 m 177 286 l 247 874 l 427 874 l 497 286 l 177 286 m 289 383 l 388 383 l 348 775 l 320 775 l 289 383 m 253 994 l 175 1072 l 175 1181 l 308 1181 l 308 1128 l 363 1128 l 363 1181 l 496 1181 l 496 1072 l 418 994 l 253 994 m 289 1056 l 383 1056 l 429 1106 l 429 1124 l 429 1124 l 429 1106 l 383 1056 l 289 1056 l 243 1106 l 243 1124 l 243 1124 l 243 1106 l 289 1056 z "},"Ắ":{"ha":651,"x_min":69,"x_max":610,"o":"m 69 0 l 69 829 l 213 972 l 439 972 l 582 829 l 582 0 l 386 0 l 386 286 l 265 286 l 265 0 l 69 0 m 167 99 l 167 99 l 167 381 l 488 381 l 488 99 l 487 99 l 487 788 l 400 874 l 254 874 l 167 788 l 167 99 m 265 482 l 386 482 l 386 733 l 344 776 l 308 776 l 265 733 l 265 482 m 167 381 l 167 788 l 254 875 l 400 875 l 488 788 l 488 381 l 167 381 m 244 994 l 166 1072 l 166 1181 l 299 1181 l 299 1128 l 353 1128 l 353 1181 l 487 1181 l 487 1072 l 409 994 l 244 994 m 280 1056 l 374 1056 l 420 1106 l 420 1124 l 420 1124 l 420 1106 l 374 1056 l 280 1056 l 234 1106 l 234 1124 l 234 1124 l 234 1106 l 280 1056 m 241 1203 l 410 1386 l 610 1386 l 413 1203 l 241 1203 m 373 1250 l 372 1250 l 456 1338 l 456 1338 l 373 1250 z "},"Ặ":{"ha":651,"x_min":69,"x_max":582,"o":"m 69 0 l 69 829 l 213 972 l 439 972 l 582 829 l 582 0 l 386 0 l 386 286 l 265 286 l 265 0 l 69 0 m 167 99 l 167 99 l 167 381 l 488 381 l 488 99 l 487 99 l 487 788 l 400 874 l 254 874 l 167 788 l 167 99 m 265 482 l 386 482 l 386 733 l 344 776 l 308 776 l 265 733 l 265 482 m 167 381 l 167 788 l 254 875 l 400 875 l 488 788 l 488 381 l 167 381 m 253 -188 l 253 -42 l 400 -42 l 400 -188 l 253 -188 m 326 -126 l 325 -126 l 325 -106 l 326 -106 l 326 -126 m 244 994 l 166 1072 l 166 1181 l 299 1181 l 299 1128 l 353 1128 l 353 1181 l 487 1181 l 487 1072 l 409 994 l 244 994 m 280 1056 l 374 1056 l 420 1106 l 420 1124 l 420 1124 l 420 1106 l 374 1056 l 280 1056 l 234 1106 l 234 1124 l 234 1124 l 234 1106 l 280 1056 z "},"Ằ":{"ha":651,"x_min":58,"x_max":582,"o":"m 69 0 l 69 829 l 213 972 l 439 972 l 582 829 l 582 0 l 386 0 l 386 286 l 265 286 l 265 0 l 69 0 m 167 99 l 167 99 l 167 381 l 488 381 l 488 99 l 487 99 l 487 788 l 400 874 l 254 874 l 167 788 l 167 99 m 265 482 l 386 482 l 386 733 l 344 776 l 308 776 l 265 733 l 265 482 m 167 381 l 167 788 l 254 875 l 400 875 l 488 788 l 488 381 l 167 381 m 244 994 l 166 1072 l 166 1181 l 299 1181 l 299 1128 l 353 1128 l 353 1181 l 487 1181 l 487 1072 l 409 994 l 244 994 m 280 1056 l 374 1056 l 420 1106 l 420 1124 l 420 1124 l 420 1106 l 374 1056 l 280 1056 l 234 1106 l 234 1124 l 234 1124 l 234 1106 l 280 1056 m 427 1203 l 256 1203 l 58 1386 l 258 1386 l 427 1203 m 295 1250 l 212 1338 l 213 1338 l 296 1250 l 295 1250 z "},"Ẳ":{"ha":651,"x_min":69,"x_max":582,"o":"m 69 0 l 69 829 l 213 972 l 439 972 l 582 829 l 582 0 l 386 0 l 386 286 l 265 286 l 265 0 l 69 0 m 167 99 l 167 99 l 167 381 l 488 381 l 488 99 l 487 99 l 487 788 l 400 874 l 254 874 l 167 788 l 167 99 m 265 482 l 386 482 l 386 733 l 344 776 l 308 776 l 265 733 l 265 482 m 167 381 l 167 788 l 254 875 l 400 875 l 488 788 l 488 381 l 167 381 m 244 994 l 166 1072 l 166 1181 l 299 1181 l 299 1128 l 353 1128 l 353 1181 l 487 1181 l 487 1072 l 409 994 l 244 994 m 280 1056 l 374 1056 l 420 1106 l 420 1124 l 420 1124 l 420 1106 l 374 1056 l 280 1056 l 234 1106 l 234 1124 l 234 1124 l 234 1106 l 280 1056 m 160 1460 l 379 1460 l 492 1328 l 379 1199 l 210 1199 l 210 1308 l 303 1308 l 324 1328 l 303 1351 l 160 1351 l 160 1460 m 234 1406 l 234 1406 l 343 1406 l 411 1328 l 343 1252 l 284 1252 l 284 1252 l 343 1252 l 411 1328 l 343 1406 l 234 1406 z "},"Ẵ":{"ha":651,"x_min":69,"x_max":582,"o":"m 69 0 l 69 829 l 213 972 l 439 972 l 582 829 l 582 0 l 386 0 l 386 286 l 265 286 l 265 0 l 69 0 m 167 99 l 167 99 l 167 381 l 488 381 l 488 99 l 487 99 l 487 788 l 400 874 l 254 874 l 167 788 l 167 99 m 265 482 l 386 482 l 386 733 l 344 776 l 308 776 l 265 733 l 265 482 m 167 381 l 167 788 l 254 875 l 400 875 l 488 788 l 488 381 l 167 381 m 244 994 l 166 1072 l 166 1181 l 299 1181 l 299 1128 l 353 1128 l 353 1181 l 487 1181 l 487 1072 l 409 994 l 244 994 m 280 1056 l 374 1056 l 420 1106 l 420 1124 l 420 1124 l 420 1106 l 374 1056 l 280 1056 l 234 1106 l 234 1124 l 234 1124 l 234 1106 l 280 1056 m 133 1203 l 133 1297 l 210 1375 l 334 1375 l 373 1336 l 385 1336 l 385 1375 l 519 1375 l 519 1281 l 441 1203 l 317 1203 l 278 1242 l 266 1242 l 266 1203 l 133 1203 m 201 1251 l 201 1251 l 201 1265 l 247 1315 l 303 1315 l 348 1264 l 409 1264 l 455 1314 l 455 1328 l 456 1328 l 456 1314 l 409 1264 l 348 1264 l 303 1315 l 247 1315 l 201 1265 l 201 1251 z "},"Ǎ":{"ha":678,"x_min":35,"x_max":643,"o":"m 35 0 l 163 972 l 508 972 l 643 0 l 419 0 l 399 206 l 278 206 l 258 0 l 35 0 m 153 84 l 153 84 l 177 286 l 497 286 l 520 84 l 520 84 l 427 874 l 247 874 l 153 84 m 177 286 l 247 874 l 427 874 l 497 286 l 177 286 m 289 383 l 388 383 l 348 775 l 320 775 l 289 383 m 248 994 l 92 1192 l 285 1192 l 335 1117 l 386 1192 l 578 1192 l 423 994 l 248 994 m 294 1049 l 374 1049 l 433 1129 l 433 1129 l 374 1049 l 294 1049 l 235 1129 l 235 1129 l 294 1049 z "},"Â":{"ha":678,"x_min":35,"x_max":643,"o":"m 35 0 l 163 972 l 508 972 l 643 0 l 419 0 l 399 206 l 278 206 l 258 0 l 35 0 m 153 84 l 153 84 l 177 286 l 497 286 l 520 84 l 520 84 l 427 874 l 247 874 l 153 84 m 177 286 l 247 874 l 427 874 l 497 286 l 177 286 m 289 383 l 388 383 l 348 775 l 320 775 l 289 383 m 248 1192 l 423 1192 l 578 994 l 386 994 l 335 1069 l 285 994 l 92 994 l 248 1192 m 294 1138 l 235 1057 l 235 1057 l 294 1138 l 374 1138 l 433 1057 l 433 1057 l 374 1138 l 294 1138 z "},"Ấ":{"ha":651,"x_min":69,"x_max":831,"o":"m 69 0 l 69 829 l 213 972 l 439 972 l 582 829 l 582 0 l 386 0 l 386 286 l 265 286 l 265 0 l 69 0 m 167 99 l 167 99 l 167 381 l 488 381 l 488 99 l 487 99 l 487 788 l 400 874 l 254 874 l 167 788 l 167 99 m 265 482 l 386 482 l 386 733 l 344 776 l 308 776 l 265 733 l 265 482 m 167 381 l 167 788 l 254 875 l 400 875 l 488 788 l 488 381 l 167 381 m 239 1192 l 414 1192 l 569 994 l 377 994 l 326 1069 l 276 994 l 83 994 l 239 1192 m 285 1138 l 226 1057 l 226 1057 l 285 1138 l 365 1138 l 424 1057 l 424 1057 l 365 1138 l 285 1138 m 463 1153 l 632 1336 l 831 1336 l 634 1153 l 463 1153 m 594 1200 l 594 1200 l 677 1288 l 678 1288 l 594 1200 z "},"Ậ":{"ha":651,"x_min":69,"x_max":582,"o":"m 69 0 l 69 829 l 213 972 l 439 972 l 582 829 l 582 0 l 386 0 l 386 286 l 265 286 l 265 0 l 69 0 m 167 99 l 167 99 l 167 381 l 488 381 l 488 99 l 487 99 l 487 788 l 400 874 l 254 874 l 167 788 l 167 99 m 265 482 l 386 482 l 386 733 l 344 776 l 308 776 l 265 733 l 265 482 m 167 381 l 167 788 l 254 875 l 400 875 l 488 788 l 488 381 l 167 381 m 253 -188 l 253 -42 l 400 -42 l 400 -188 l 253 -188 m 326 -126 l 325 -126 l 325 -106 l 326 -106 l 326 -126 m 239 1192 l 414 1192 l 569 994 l 377 994 l 326 1069 l 276 994 l 83 994 l 239 1192 m 285 1138 l 226 1057 l 226 1057 l 285 1138 l 365 1138 l 424 1057 l 424 1057 l 365 1138 l 285 1138 z "},"Ầ":{"ha":651,"x_min":69,"x_max":665,"o":"m 69 0 l 69 829 l 213 972 l 439 972 l 582 829 l 582 0 l 386 0 l 386 286 l 265 286 l 265 0 l 69 0 m 167 99 l 167 99 l 167 381 l 488 381 l 488 99 l 487 99 l 487 788 l 400 874 l 254 874 l 167 788 l 167 99 m 265 482 l 386 482 l 386 733 l 344 776 l 308 776 l 265 733 l 265 482 m 167 381 l 167 788 l 254 875 l 400 875 l 488 788 l 488 381 l 167 381 m 239 1192 l 414 1192 l 569 994 l 377 994 l 326 1069 l 276 994 l 83 994 l 239 1192 m 285 1138 l 226 1057 l 226 1057 l 285 1138 l 365 1138 l 424 1057 l 424 1057 l 365 1138 l 285 1138 m 665 1153 l 494 1153 l 297 1336 l 496 1336 l 665 1153 m 533 1200 l 450 1288 l 451 1288 l 534 1200 l 533 1200 z "},"Ẩ":{"ha":651,"x_min":69,"x_max":756,"o":"m 69 0 l 69 829 l 213 972 l 439 972 l 582 829 l 582 0 l 386 0 l 386 286 l 265 286 l 265 0 l 69 0 m 167 99 l 167 99 l 167 381 l 488 381 l 488 99 l 487 99 l 487 788 l 400 874 l 254 874 l 167 788 l 167 99 m 265 482 l 386 482 l 386 733 l 344 776 l 308 776 l 265 733 l 265 482 m 167 381 l 167 788 l 254 875 l 400 875 l 488 788 l 488 381 l 167 381 m 239 1192 l 414 1192 l 569 994 l 377 994 l 326 1069 l 276 994 l 83 994 l 239 1192 m 285 1138 l 226 1057 l 226 1057 l 285 1138 l 365 1138 l 424 1057 l 424 1057 l 365 1138 l 285 1138 m 424 1388 l 642 1388 l 756 1257 l 642 1127 l 473 1127 l 473 1236 l 566 1236 l 587 1257 l 566 1279 l 424 1279 l 424 1388 m 497 1335 l 497 1335 l 606 1335 l 674 1257 l 606 1181 l 547 1181 l 547 1181 l 606 1181 l 674 1257 l 606 1335 l 497 1335 z "},"Ẫ":{"ha":651,"x_min":69,"x_max":582,"o":"m 69 0 l 69 829 l 213 972 l 439 972 l 582 829 l 582 0 l 386 0 l 386 286 l 265 286 l 265 0 l 69 0 m 167 99 l 167 99 l 167 381 l 488 381 l 488 99 l 487 99 l 487 788 l 400 874 l 254 874 l 167 788 l 167 99 m 265 482 l 386 482 l 386 733 l 344 776 l 308 776 l 265 733 l 265 482 m 167 381 l 167 788 l 254 875 l 400 875 l 488 788 l 488 381 l 167 381 m 239 1192 l 414 1192 l 569 994 l 377 994 l 326 1069 l 276 994 l 83 994 l 239 1192 m 285 1138 l 226 1057 l 226 1057 l 285 1138 l 365 1138 l 424 1057 l 424 1057 l 365 1138 l 285 1138 m 133 1214 l 133 1308 l 210 1386 l 334 1386 l 373 1347 l 385 1347 l 385 1386 l 519 1386 l 519 1292 l 441 1214 l 317 1214 l 278 1253 l 266 1253 l 266 1214 l 133 1214 m 201 1263 l 201 1263 l 201 1276 l 247 1326 l 303 1326 l 348 1275 l 409 1275 l 455 1325 l 455 1339 l 456 1339 l 456 1325 l 409 1275 l 348 1275 l 303 1326 l 247 1326 l 201 1276 l 201 1263 z "},"Ȁ":{"ha":651,"x_min":-87,"x_max":582,"o":"m 69 0 l 69 829 l 213 972 l 439 972 l 582 829 l 582 0 l 386 0 l 386 286 l 265 286 l 265 0 l 69 0 m 167 99 l 167 99 l 167 381 l 488 381 l 488 99 l 487 99 l 487 788 l 400 874 l 254 874 l 167 788 l 167 99 m 265 482 l 386 482 l 386 733 l 344 776 l 308 776 l 265 733 l 265 482 m 167 381 l 167 788 l 254 875 l 400 875 l 488 788 l 488 381 l 167 381 m 554 994 l 383 994 l 185 1178 l 385 1178 l 554 994 m 422 1042 l 339 1129 l 340 1129 l 423 1042 l 422 1042 m 282 994 l 110 994 l -87 1178 l 113 1178 l 282 994 m 150 1042 l 67 1129 l 67 1129 l 151 1042 l 150 1042 z "},"Ä":{"ha":651,"x_min":69,"x_max":582,"o":"m 69 0 l 69 829 l 213 972 l 439 972 l 582 829 l 582 0 l 386 0 l 386 286 l 265 286 l 265 0 l 69 0 m 167 99 l 167 99 l 167 381 l 488 381 l 488 99 l 487 99 l 487 788 l 400 874 l 254 874 l 167 788 l 167 99 m 265 482 l 386 482 l 386 733 l 344 776 l 308 776 l 265 733 l 265 482 m 167 381 l 167 788 l 254 875 l 400 875 l 488 788 l 488 381 l 167 381 m 398 1008 l 398 1154 l 545 1154 l 545 1008 l 398 1008 m 109 1008 l 109 1154 l 256 1154 l 256 1008 l 109 1008 m 182 1074 l 181 1074 l 181 1088 l 182 1088 l 182 1074 m 472 1074 l 472 1074 l 472 1088 l 472 1088 l 472 1074 z "},"Ạ":{"ha":651,"x_min":69,"x_max":582,"o":"m 69 0 l 69 829 l 213 972 l 439 972 l 582 829 l 582 0 l 386 0 l 386 286 l 265 286 l 265 0 l 69 0 m 167 99 l 167 99 l 167 381 l 488 381 l 488 99 l 487 99 l 487 788 l 400 874 l 254 874 l 167 788 l 167 99 m 265 482 l 386 482 l 386 733 l 344 776 l 308 776 l 265 733 l 265 482 m 167 381 l 167 788 l 254 875 l 400 875 l 488 788 l 488 381 l 167 381 m 253 -188 l 253 -42 l 400 -42 l 400 -188 l 253 -188 m 326 -126 l 325 -126 l 325 -106 l 326 -106 l 326 -126 z "},"À":{"ha":651,"x_min":58,"x_max":582,"o":"m 69 0 l 69 829 l 213 972 l 439 972 l 582 829 l 582 0 l 386 0 l 386 286 l 265 286 l 265 0 l 69 0 m 167 99 l 167 99 l 167 381 l 488 381 l 488 99 l 487 99 l 487 788 l 400 874 l 254 874 l 167 788 l 167 99 m 265 482 l 386 482 l 386 733 l 344 776 l 308 776 l 265 733 l 265 482 m 167 381 l 167 788 l 254 875 l 400 875 l 488 788 l 488 381 l 167 381 m 427 994 l 256 994 l 58 1178 l 258 1178 l 427 994 m 295 1042 l 212 1129 l 213 1129 l 296 1042 l 295 1042 z "},"Ả":{"ha":651,"x_min":69,"x_max":582,"o":"m 69 0 l 69 829 l 213 972 l 439 972 l 582 829 l 582 0 l 386 0 l 386 286 l 265 286 l 265 0 l 69 0 m 167 99 l 167 99 l 167 381 l 488 381 l 488 99 l 487 99 l 487 788 l 400 874 l 254 874 l 167 788 l 167 99 m 265 482 l 386 482 l 386 733 l 344 776 l 308 776 l 265 733 l 265 482 m 167 381 l 167 788 l 254 875 l 400 875 l 488 788 l 488 381 l 167 381 m 160 1251 l 379 1251 l 492 1120 l 379 990 l 210 990 l 210 1099 l 303 1099 l 324 1120 l 303 1142 l 160 1142 l 160 1251 m 234 1198 l 234 1198 l 343 1198 l 411 1120 l 343 1044 l 284 1044 l 284 1044 l 343 1044 l 411 1120 l 343 1198 l 234 1198 z "},"Ȃ":{"ha":651,"x_min":69,"x_max":582,"o":"m 69 0 l 69 829 l 213 972 l 439 972 l 582 829 l 582 0 l 386 0 l 386 286 l 265 286 l 265 0 l 69 0 m 167 99 l 167 99 l 167 381 l 488 381 l 488 99 l 487 99 l 487 788 l 400 874 l 254 874 l 167 788 l 167 99 m 265 482 l 386 482 l 386 733 l 344 776 l 308 776 l 265 733 l 265 482 m 167 381 l 167 788 l 254 875 l 400 875 l 488 788 l 488 381 l 167 381 m 409 1180 l 487 1102 l 487 994 l 353 994 l 353 1047 l 299 1047 l 299 994 l 166 994 l 166 1102 l 244 1180 l 409 1180 m 373 1119 l 278 1119 l 233 1069 l 233 1051 l 233 1051 l 233 1069 l 278 1119 l 373 1119 l 419 1069 l 419 1051 l 419 1051 l 419 1069 l 373 1119 z "},"Ā":{"ha":651,"x_min":69,"x_max":582,"o":"m 69 0 l 69 829 l 213 972 l 439 972 l 582 829 l 582 0 l 386 0 l 386 286 l 265 286 l 265 0 l 69 0 m 167 99 l 167 99 l 167 381 l 488 381 l 488 99 l 487 99 l 487 788 l 400 874 l 254 874 l 167 788 l 167 99 m 265 482 l 386 482 l 386 733 l 344 776 l 308 776 l 265 733 l 265 482 m 167 381 l 167 788 l 254 875 l 400 875 l 488 788 l 488 381 l 167 381 m 107 994 l 107 1172 l 546 1172 l 546 994 l 107 994 m 197 1081 l 464 1081 l 464 1081 l 197 1081 l 197 1081 z "},"Ą":{"ha":788,"x_min":3,"x_max":794,"o":"m 583 -256 l 469 -125 l 582 0 l 564 0 l 522 206 l 252 206 l 211 0 l 3 0 l 215 972 l 560 972 l 772 0 l 735 0 l 610 -125 l 631 -147 l 794 -147 l 794 -256 l 583 -256 m 613 -204 l 739 -204 l 739 -204 l 613 -204 l 540 -125 l 669 10 l 669 10 l 483 884 l 292 884 l 120 84 l 120 84 l 165 296 l 610 296 l 669 10 l 669 10 l 540 -125 l 613 -204 m 165 296 l 292 884 l 483 884 l 610 296 l 165 296 m 288 383 l 486 383 l 407 775 l 365 775 l 288 383 z "},"Å":{"ha":651,"x_min":69,"x_max":582,"o":"m 69 0 l 69 829 l 213 972 l 439 972 l 582 829 l 582 0 l 386 0 l 386 286 l 265 286 l 265 0 l 69 0 m 167 99 l 167 99 l 167 381 l 488 381 l 488 99 l 487 99 l 487 788 l 400 874 l 254 874 l 167 788 l 167 99 m 265 482 l 386 482 l 386 733 l 344 776 l 308 776 l 265 733 l 265 482 m 167 381 l 167 788 l 254 875 l 400 875 l 488 788 l 488 381 l 167 381 m 263 993 l 194 1060 l 194 1181 l 263 1249 l 390 1249 l 458 1181 l 458 1060 l 390 993 l 263 993 m 289 1052 l 364 1052 l 400 1088 l 400 1157 l 364 1193 l 289 1193 l 253 1157 l 253 1088 l 289 1052 m 289 1052 l 253 1088 l 253 1157 l 289 1193 l 364 1193 l 400 1157 l 400 1088 l 364 1052 l 289 1052 m 320 1109 l 332 1109 l 338 1116 l 338 1126 l 332 1133 l 320 1133 l 314 1126 l 314 1116 l 320 1109 z "},"Ǻ":{"ha":651,"x_min":69,"x_max":610,"o":"m 69 0 l 69 829 l 213 972 l 439 972 l 582 829 l 582 0 l 386 0 l 386 286 l 265 286 l 265 0 l 69 0 m 167 99 l 167 99 l 167 381 l 488 381 l 488 99 l 487 99 l 487 788 l 400 874 l 254 874 l 167 788 l 167 99 m 265 482 l 386 482 l 386 733 l 344 776 l 308 776 l 265 733 l 265 482 m 167 381 l 167 788 l 254 875 l 400 875 l 488 788 l 488 381 l 167 381 m 263 993 l 194 1060 l 194 1181 l 263 1249 l 390 1249 l 458 1181 l 458 1060 l 390 993 l 263 993 m 289 1052 l 364 1052 l 400 1088 l 400 1157 l 364 1193 l 289 1193 l 253 1157 l 253 1088 l 289 1052 m 289 1052 l 253 1088 l 253 1157 l 289 1193 l 364 1193 l 400 1157 l 400 1088 l 364 1052 l 289 1052 m 320 1109 l 332 1109 l 338 1116 l 338 1126 l 332 1133 l 320 1133 l 314 1126 l 314 1116 l 320 1109 m 242 1272 l 411 1455 l 610 1455 l 413 1272 l 242 1272 m 374 1319 l 373 1319 l 456 1406 l 457 1406 l 374 1319 z "},"Ã":{"ha":651,"x_min":69,"x_max":582,"o":"m 69 0 l 69 829 l 213 972 l 439 972 l 582 829 l 582 0 l 386 0 l 386 286 l 265 286 l 265 0 l 69 0 m 167 99 l 167 99 l 167 381 l 488 381 l 488 99 l 487 99 l 487 788 l 400 874 l 254 874 l 167 788 l 167 99 m 265 482 l 386 482 l 386 733 l 344 776 l 308 776 l 265 733 l 265 482 m 167 381 l 167 788 l 254 875 l 400 875 l 488 788 l 488 381 l 167 381 m 133 994 l 133 1089 l 210 1167 l 334 1167 l 373 1128 l 385 1128 l 385 1167 l 519 1167 l 519 1072 l 441 994 l 317 994 l 278 1033 l 266 1033 l 266 994 l 133 994 m 201 1043 l 201 1043 l 201 1057 l 247 1107 l 303 1107 l 348 1056 l 409 1056 l 455 1106 l 455 1119 l 456 1119 l 456 1106 l 409 1056 l 348 1056 l 303 1107 l 247 1107 l 201 1057 l 201 1043 z "},"Æ":{"ha":1322,"x_min":10,"x_max":1220,"o":"m 10 0 l 424 972 l 1220 972 l 1220 776 l 838 776 l 838 589 l 1194 589 l 1194 392 l 838 392 l 838 197 l 1220 197 l 1220 0 l 642 0 l 642 286 l 344 286 l 224 0 l 10 0 m 131 78 l 131 78 l 263 380 l 749 380 l 749 88 l 1153 88 l 1153 88 l 748 88 l 748 496 l 1125 496 l 1125 495 l 748 495 l 748 885 l 1153 885 l 1153 885 l 488 885 l 131 78 m 264 379 l 488 885 l 749 885 l 749 379 l 264 379 m 424 482 l 642 482 l 642 776 l 549 776 l 424 482 z "},"Ǽ":{"ha":1322,"x_min":10,"x_max":1220,"o":"m 10 0 l 424 972 l 1220 972 l 1220 776 l 838 776 l 838 589 l 1194 589 l 1194 392 l 838 392 l 838 197 l 1220 197 l 1220 0 l 642 0 l 642 286 l 344 286 l 224 0 l 10 0 m 131 78 l 131 78 l 263 380 l 749 380 l 749 88 l 1153 88 l 1153 88 l 748 88 l 748 496 l 1125 496 l 1125 495 l 748 495 l 748 885 l 1153 885 l 1153 885 l 488 885 l 131 78 m 264 379 l 488 885 l 749 885 l 749 379 l 264 379 m 424 482 l 642 482 l 642 776 l 549 776 l 424 482 m 576 994 l 745 1178 l 944 1178 l 747 994 l 576 994 m 708 1042 l 707 1042 l 790 1129 l 791 1129 l 708 1042 z "},"B":{"ha":678,"x_min":76,"x_max":608,"o":"m 76 0 l 76 972 l 434 972 l 577 829 l 577 581 l 515 519 l 608 426 l 608 143 l 465 0 l 76 0 m 176 96 l 406 96 l 509 199 l 509 386 l 401 494 l 354 494 l 479 635 l 479 777 l 390 877 l 176 877 l 176 96 m 176 96 l 176 494 l 401 494 l 509 386 l 509 199 l 406 96 l 176 96 m 176 494 l 176 877 l 390 877 l 479 777 l 479 635 l 354 494 l 176 494 m 273 197 l 369 197 l 412 239 l 412 337 l 351 398 l 273 398 l 273 197 m 273 594 l 312 594 l 381 663 l 381 733 l 339 776 l 273 776 l 273 594 z "},"C":{"ha":639,"x_min":63,"x_max":576,"o":"m 206 0 l 63 143 l 63 829 l 206 972 l 433 972 l 576 829 l 576 606 l 380 606 l 380 733 l 338 776 l 301 776 l 259 733 l 259 239 l 301 197 l 338 197 l 380 239 l 380 367 l 576 367 l 576 143 l 433 0 l 206 0 m 256 99 l 384 99 l 477 192 l 477 275 l 477 275 l 477 192 l 384 99 l 256 99 l 160 195 l 160 784 l 256 881 l 380 881 l 477 784 l 477 700 l 477 700 l 477 784 l 380 881 l 256 881 l 160 784 l 160 195 l 256 99 z "},"Ć":{"ha":639,"x_min":63,"x_max":597,"o":"m 206 0 l 63 143 l 63 829 l 206 972 l 433 972 l 576 829 l 576 606 l 380 606 l 380 733 l 338 776 l 301 776 l 259 733 l 259 239 l 301 197 l 338 197 l 380 239 l 380 367 l 576 367 l 576 143 l 433 0 l 206 0 m 256 99 l 384 99 l 477 192 l 477 275 l 477 275 l 477 192 l 384 99 l 256 99 l 160 195 l 160 784 l 256 881 l 380 881 l 477 784 l 477 700 l 477 700 l 477 784 l 380 881 l 256 881 l 160 784 l 160 195 l 256 99 m 228 994 l 397 1178 l 597 1178 l 399 994 l 228 994 m 360 1042 l 359 1042 l 442 1129 l 443 1129 l 360 1042 z "},"Č":{"ha":639,"x_min":63,"x_max":576,"o":"m 206 0 l 63 143 l 63 829 l 206 972 l 433 972 l 576 829 l 576 606 l 380 606 l 380 733 l 338 776 l 301 776 l 259 733 l 259 239 l 301 197 l 338 197 l 380 239 l 380 367 l 576 367 l 576 143 l 433 0 l 206 0 m 256 99 l 384 99 l 477 192 l 477 275 l 477 275 l 477 192 l 384 99 l 256 99 l 160 195 l 160 784 l 256 881 l 380 881 l 477 784 l 477 700 l 477 700 l 477 784 l 380 881 l 256 881 l 160 784 l 160 195 l 256 99 m 226 994 l 70 1192 l 263 1192 l 313 1117 l 364 1192 l 556 1192 l 401 994 l 226 994 m 272 1049 l 351 1049 l 410 1129 l 410 1129 l 351 1049 l 272 1049 l 213 1129 l 213 1129 l 272 1049 z "},"Ç":{"ha":820,"x_min":76,"x_max":743,"o":"m 279 -242 l 279 -133 l 422 -133 l 442 -111 l 422 -90 l 328 -90 l 328 0 l 219 0 l 76 143 l 76 829 l 219 972 l 599 972 l 743 829 l 743 606 l 547 606 l 547 733 l 504 776 l 315 776 l 273 733 l 273 239 l 315 197 l 504 197 l 547 239 l 547 367 l 743 367 l 743 143 l 599 0 l 515 0 l 611 -111 l 498 -242 l 279 -242 m 349 -187 l 465 -187 l 532 -111 l 465 -36 l 399 -36 l 399 99 l 555 99 l 645 189 l 645 289 l 645 289 l 645 189 l 555 99 l 264 99 l 174 189 l 174 786 l 264 876 l 555 876 l 645 786 l 645 686 l 645 686 l 645 786 l 555 876 l 264 876 l 174 786 l 174 189 l 264 99 l 399 99 l 399 -36 l 465 -36 l 532 -111 l 465 -187 l 349 -187 l 349 -187 z "},"Ḉ":{"ha":639,"x_min":63,"x_max":597,"o":"m 206 0 l 63 143 l 63 829 l 206 972 l 433 972 l 576 829 l 576 606 l 380 606 l 380 733 l 338 776 l 301 776 l 259 733 l 259 239 l 301 197 l 338 197 l 380 239 l 380 367 l 576 367 l 576 143 l 433 0 l 206 0 m 256 99 l 384 99 l 477 192 l 477 275 l 477 275 l 477 192 l 384 99 l 256 99 l 160 195 l 160 784 l 256 881 l 380 881 l 477 784 l 477 700 l 477 700 l 477 784 l 380 881 l 256 881 l 160 784 l 160 195 l 256 99 m 166 -278 l 166 -169 l 308 -169 l 329 -147 l 308 -126 l 215 -126 l 215 -17 l 385 -17 l 498 -147 l 385 -278 l 166 -278 m 240 -224 l 349 -224 l 417 -147 l 349 -70 l 290 -70 l 290 -70 l 349 -70 l 417 -147 l 349 -224 l 240 -224 l 240 -224 m 228 994 l 397 1178 l 597 1178 l 399 994 l 228 994 m 360 1042 l 359 1042 l 442 1129 l 443 1129 l 360 1042 z "},"Ĉ":{"ha":639,"x_min":63,"x_max":576,"o":"m 206 0 l 63 143 l 63 829 l 206 972 l 433 972 l 576 829 l 576 606 l 380 606 l 380 733 l 338 776 l 301 776 l 259 733 l 259 239 l 301 197 l 338 197 l 380 239 l 380 367 l 576 367 l 576 143 l 433 0 l 206 0 m 256 99 l 384 99 l 477 192 l 477 275 l 477 275 l 477 192 l 384 99 l 256 99 l 160 195 l 160 784 l 256 881 l 380 881 l 477 784 l 477 700 l 477 700 l 477 784 l 380 881 l 256 881 l 160 784 l 160 195 l 256 99 m 226 1192 l 401 1192 l 556 994 l 364 994 l 313 1069 l 263 994 l 70 994 l 226 1192 m 272 1138 l 213 1057 l 213 1057 l 272 1138 l 351 1138 l 410 1057 l 410 1057 l 351 1138 l 272 1138 z "},"Ċ":{"ha":639,"x_min":63,"x_max":576,"o":"m 206 0 l 63 143 l 63 829 l 206 972 l 433 972 l 576 829 l 576 606 l 380 606 l 380 733 l 338 776 l 301 776 l 259 733 l 259 239 l 301 197 l 338 197 l 380 239 l 380 367 l 576 367 l 576 143 l 433 0 l 206 0 m 256 99 l 384 99 l 477 192 l 477 275 l 477 275 l 477 192 l 384 99 l 256 99 l 160 195 l 160 784 l 256 881 l 380 881 l 477 784 l 477 700 l 477 700 l 477 784 l 380 881 l 256 881 l 160 784 l 160 195 l 256 99 m 240 1008 l 240 1154 l 388 1154 l 388 1008 l 240 1008 m 313 1071 l 313 1071 l 313 1090 l 313 1090 l 313 1071 z "},"D":{"ha":670,"x_min":76,"x_max":594,"o":"m 76 0 l 76 972 l 451 972 l 594 829 l 594 143 l 451 0 l 76 0 m 273 197 l 356 197 l 398 239 l 398 733 l 356 776 l 273 776 l 273 197 m 178 99 l 397 99 l 497 199 l 497 774 l 397 874 l 178 874 l 178 99 m 178 99 l 178 874 l 397 874 l 497 774 l 497 199 l 397 99 l 178 99 z "},"Ǆ":{"ha":1244,"x_min":76,"x_max":1200,"o":"m 76 0 l 76 972 l 451 972 l 594 829 l 594 143 l 451 0 l 76 0 m 273 197 l 356 197 l 398 239 l 398 733 l 356 776 l 273 776 l 273 197 m 178 99 l 397 99 l 497 199 l 497 774 l 397 874 l 178 874 l 178 99 m 178 99 l 178 874 l 397 874 l 497 774 l 497 199 l 397 99 l 178 99 m 842 99 l 1089 99 l 1089 99 l 842 99 l 842 282 l 1081 699 l 1081 874 l 842 874 l 842 874 l 1081 874 l 1081 699 l 842 282 l 842 99 m 733 0 l 733 308 l 971 728 l 971 776 l 746 776 l 746 972 l 1181 972 l 1181 667 l 947 253 l 947 197 l 1181 197 l 1181 0 l 733 0 m 869 994 l 714 1192 l 906 1192 l 957 1117 l 1008 1192 l 1200 1192 l 1044 994 l 869 994 m 916 1049 l 995 1049 l 1054 1129 l 1054 1129 l 995 1049 l 916 1049 l 857 1129 l 857 1129 l 916 1049 z "},"Ð":{"ha":828,"x_min":-7,"x_max":783,"o":"m 113 0 l 113 390 l -7 390 l -7 568 l 113 568 l 113 972 l 640 972 l 783 829 l 783 143 l 640 0 l 113 0 m 213 99 l 593 99 l 683 192 l 683 779 l 593 874 l 213 874 l 213 477 l 90 477 l 90 477 l 213 477 l 213 99 m 213 99 l 213 477 l 399 477 l 399 477 l 213 477 l 213 874 l 593 874 l 683 779 l 683 192 l 593 99 l 213 99 m 310 197 l 545 197 l 588 239 l 588 733 l 545 776 l 310 776 l 310 568 l 488 568 l 488 390 l 310 390 l 310 197 z "},"Ď":{"ha":670,"x_min":76,"x_max":594,"o":"m 76 0 l 76 972 l 451 972 l 594 829 l 594 143 l 451 0 l 76 0 m 273 197 l 356 197 l 398 239 l 398 733 l 356 776 l 273 776 l 273 197 m 178 99 l 397 99 l 497 199 l 497 774 l 397 874 l 178 874 l 178 99 m 178 99 l 178 874 l 397 874 l 497 774 l 497 199 l 397 99 l 178 99 m 248 994 l 92 1192 l 285 1192 l 335 1117 l 386 1192 l 578 1192 l 423 994 l 248 994 m 294 1049 l 374 1049 l 433 1129 l 433 1129 l 374 1049 l 294 1049 l 235 1129 l 235 1129 l 294 1049 z "},"Đ":{"ha":828,"x_min":-7,"x_max":783,"o":"m 113 0 l 113 390 l -7 390 l -7 568 l 113 568 l 113 972 l 640 972 l 783 829 l 783 143 l 640 0 l 113 0 m 213 99 l 593 99 l 683 192 l 683 779 l 593 874 l 213 874 l 213 477 l 90 477 l 90 477 l 213 477 l 213 99 m 213 99 l 213 477 l 399 477 l 399 477 l 213 477 l 213 874 l 593 874 l 683 779 l 683 192 l 593 99 l 213 99 m 310 197 l 545 197 l 588 239 l 588 733 l 545 776 l 310 776 l 310 568 l 488 568 l 488 390 l 310 390 l 310 197 z "},"Ḍ":{"ha":670,"x_min":76,"x_max":594,"o":"m 76 0 l 76 972 l 451 972 l 594 829 l 594 143 l 451 0 l 76 0 m 273 197 l 356 197 l 398 239 l 398 733 l 356 776 l 273 776 l 273 197 m 178 99 l 397 99 l 497 199 l 497 774 l 397 874 l 178 874 l 178 99 m 178 99 l 178 874 l 397 874 l 497 774 l 497 199 l 397 99 l 178 99 m 262 -188 l 262 -42 l 409 -42 l 409 -188 l 262 -188 m 335 -126 l 334 -126 l 334 -106 l 335 -106 l 335 -126 z "},"Ḏ":{"ha":670,"x_min":76,"x_max":594,"o":"m 76 0 l 76 972 l 451 972 l 594 829 l 594 143 l 451 0 l 76 0 m 273 197 l 356 197 l 398 239 l 398 733 l 356 776 l 273 776 l 273 197 m 178 99 l 397 99 l 497 199 l 497 774 l 397 874 l 178 874 l 178 99 m 178 99 l 178 874 l 397 874 l 497 774 l 497 199 l 397 99 l 178 99 m 116 -226 l 116 -49 l 555 -49 l 555 -226 l 116 -226 m 206 -139 l 473 -139 l 473 -139 l 206 -139 l 206 -139 z "},"ǅ":{"ha":1240,"x_min":76,"x_max":1198,"o":"m 76 0 l 76 972 l 451 972 l 594 829 l 594 143 l 451 0 l 76 0 m 273 197 l 356 197 l 398 239 l 398 733 l 356 776 l 273 776 l 273 197 m 178 99 l 397 99 l 497 199 l 497 774 l 397 874 l 178 874 l 178 99 m 178 99 l 178 874 l 397 874 l 497 774 l 497 199 l 397 99 l 178 99 m 855 99 l 1087 99 l 1087 99 l 855 99 l 855 247 l 1057 496 l 1057 653 l 840 653 l 840 653 l 1057 653 l 1057 496 l 855 247 l 855 99 m 736 0 l 736 267 l 941 526 l 941 553 l 749 553 l 749 750 l 1174 750 l 1174 478 l 974 226 l 974 197 l 1174 197 l 1174 0 l 736 0 m 867 772 l 712 969 l 904 969 l 955 894 l 1006 969 l 1198 969 l 1042 772 l 867 772 m 914 826 l 993 826 l 1052 907 l 1052 907 l 993 826 l 914 826 l 855 907 l 855 907 l 914 826 z "},"E":{"ha":558,"x_min":69,"x_max":488,"o":"m 69 0 l 69 972 l 488 972 l 488 776 l 266 776 l 266 589 l 440 589 l 440 392 l 266 392 l 266 197 l 488 197 l 488 0 l 69 0 m 170 99 l 398 99 l 398 99 l 170 99 l 170 491 l 349 491 l 349 491 l 170 491 l 170 874 l 398 874 l 398 874 l 170 874 l 170 99 z "},"É":{"ha":558,"x_min":69,"x_max":580,"o":"m 69 0 l 69 972 l 488 972 l 488 776 l 266 776 l 266 589 l 440 589 l 440 392 l 266 392 l 266 197 l 488 197 l 488 0 l 69 0 m 170 99 l 398 99 l 398 99 l 170 99 l 170 491 l 349 491 l 349 491 l 170 491 l 170 874 l 398 874 l 398 874 l 170 874 l 170 99 m 211 994 l 381 1178 l 580 1178 l 383 994 l 211 994 m 343 1042 l 342 1042 l 426 1129 l 426 1129 l 343 1042 z "},"Ĕ":{"ha":558,"x_min":69,"x_max":488,"o":"m 69 0 l 69 972 l 488 972 l 488 776 l 266 776 l 266 589 l 440 589 l 440 392 l 266 392 l 266 197 l 488 197 l 488 0 l 69 0 m 170 99 l 398 99 l 398 99 l 170 99 l 170 491 l 349 491 l 349 491 l 170 491 l 170 874 l 398 874 l 398 874 l 170 874 l 170 99 m 214 994 l 136 1072 l 136 1181 l 269 1181 l 269 1128 l 324 1128 l 324 1181 l 457 1181 l 457 1072 l 379 994 l 214 994 m 250 1056 l 344 1056 l 390 1106 l 390 1124 l 390 1124 l 390 1106 l 344 1056 l 250 1056 l 204 1106 l 204 1124 l 204 1124 l 204 1106 l 250 1056 z "},"Ě":{"ha":558,"x_min":53,"x_max":540,"o":"m 69 0 l 69 972 l 488 972 l 488 776 l 266 776 l 266 589 l 440 589 l 440 392 l 266 392 l 266 197 l 488 197 l 488 0 l 69 0 m 170 99 l 398 99 l 398 99 l 170 99 l 170 491 l 349 491 l 349 491 l 170 491 l 170 874 l 398 874 l 398 874 l 170 874 l 170 99 m 209 994 l 53 1192 l 246 1192 l 297 1117 l 347 1192 l 540 1192 l 384 994 l 209 994 m 256 1049 l 335 1049 l 394 1129 l 394 1129 l 335 1049 l 256 1049 l 197 1129 l 197 1129 l 256 1049 z "},"Ḝ":{"ha":558,"x_min":69,"x_max":488,"o":"m 69 0 l 69 972 l 488 972 l 488 776 l 266 776 l 266 589 l 440 589 l 440 392 l 266 392 l 266 197 l 488 197 l 488 0 l 69 0 m 170 99 l 398 99 l 398 99 l 170 99 l 170 491 l 349 491 l 349 491 l 170 491 l 170 874 l 398 874 l 398 874 l 170 874 l 170 99 m 149 -278 l 149 -169 l 292 -169 l 313 -147 l 292 -126 l 199 -126 l 199 -17 l 368 -17 l 481 -147 l 368 -278 l 149 -278 m 223 -224 l 332 -224 l 400 -147 l 332 -70 l 273 -70 l 273 -70 l 332 -70 l 400 -147 l 332 -224 l 223 -224 l 223 -224 m 214 994 l 136 1072 l 136 1181 l 269 1181 l 269 1128 l 324 1128 l 324 1181 l 457 1181 l 457 1072 l 379 994 l 214 994 m 250 1056 l 344 1056 l 390 1106 l 390 1124 l 390 1124 l 390 1106 l 344 1056 l 250 1056 l 204 1106 l 204 1124 l 204 1124 l 204 1106 l 250 1056 z "},"Ê":{"ha":558,"x_min":53,"x_max":540,"o":"m 69 0 l 69 972 l 488 972 l 488 776 l 266 776 l 266 589 l 440 589 l 440 392 l 266 392 l 266 197 l 488 197 l 488 0 l 69 0 m 170 99 l 398 99 l 398 99 l 170 99 l 170 491 l 349 491 l 349 491 l 170 491 l 170 874 l 398 874 l 398 874 l 170 874 l 170 99 m 209 1192 l 384 1192 l 540 994 l 347 994 l 297 1069 l 246 994 l 53 994 l 209 1192 m 256 1138 l 197 1057 l 197 1057 l 256 1138 l 335 1138 l 394 1057 l 394 1057 l 335 1138 l 256 1138 z "},"Ế":{"ha":558,"x_min":53,"x_max":801,"o":"m 69 0 l 69 972 l 488 972 l 488 776 l 266 776 l 266 589 l 440 589 l 440 392 l 266 392 l 266 197 l 488 197 l 488 0 l 69 0 m 170 99 l 398 99 l 398 99 l 170 99 l 170 491 l 349 491 l 349 491 l 170 491 l 170 874 l 398 874 l 398 874 l 170 874 l 170 99 m 209 1192 l 384 1192 l 540 994 l 347 994 l 297 1069 l 246 994 l 53 994 l 209 1192 m 256 1138 l 197 1057 l 197 1057 l 256 1138 l 335 1138 l 394 1057 l 394 1057 l 335 1138 l 256 1138 m 433 1153 l 602 1336 l 801 1336 l 604 1153 l 433 1153 m 565 1200 l 564 1200 l 647 1288 l 648 1288 l 565 1200 z "},"Ệ":{"ha":558,"x_min":53,"x_max":540,"o":"m 69 0 l 69 972 l 488 972 l 488 776 l 266 776 l 266 589 l 440 589 l 440 392 l 266 392 l 266 197 l 488 197 l 488 0 l 69 0 m 170 99 l 398 99 l 398 99 l 170 99 l 170 491 l 349 491 l 349 491 l 170 491 l 170 874 l 398 874 l 398 874 l 170 874 l 170 99 m 223 -188 l 223 -42 l 370 -42 l 370 -188 l 223 -188 m 296 -126 l 295 -126 l 295 -106 l 296 -106 l 296 -126 m 209 1192 l 384 1192 l 540 994 l 347 994 l 297 1069 l 246 994 l 53 994 l 209 1192 m 256 1138 l 197 1057 l 197 1057 l 256 1138 l 335 1138 l 394 1057 l 394 1057 l 335 1138 l 256 1138 z "},"Ề":{"ha":558,"x_min":53,"x_max":635,"o":"m 69 0 l 69 972 l 488 972 l 488 776 l 266 776 l 266 589 l 440 589 l 440 392 l 266 392 l 266 197 l 488 197 l 488 0 l 69 0 m 170 99 l 398 99 l 398 99 l 170 99 l 170 491 l 349 491 l 349 491 l 170 491 l 170 874 l 398 874 l 398 874 l 170 874 l 170 99 m 209 1192 l 384 1192 l 540 994 l 347 994 l 297 1069 l 246 994 l 53 994 l 209 1192 m 256 1138 l 197 1057 l 197 1057 l 256 1138 l 335 1138 l 394 1057 l 394 1057 l 335 1138 l 256 1138 m 635 1153 l 464 1153 l 267 1336 l 466 1336 l 635 1153 m 503 1200 l 420 1288 l 421 1288 l 504 1200 l 503 1200 z "},"Ể":{"ha":558,"x_min":53,"x_max":726,"o":"m 69 0 l 69 972 l 488 972 l 488 776 l 266 776 l 266 589 l 440 589 l 440 392 l 266 392 l 266 197 l 488 197 l 488 0 l 69 0 m 170 99 l 398 99 l 398 99 l 170 99 l 170 491 l 349 491 l 349 491 l 170 491 l 170 874 l 398 874 l 398 874 l 170 874 l 170 99 m 209 1192 l 384 1192 l 540 994 l 347 994 l 297 1069 l 246 994 l 53 994 l 209 1192 m 256 1138 l 197 1057 l 197 1057 l 256 1138 l 335 1138 l 394 1057 l 394 1057 l 335 1138 l 256 1138 m 394 1388 l 613 1388 l 726 1257 l 613 1127 l 443 1127 l 443 1236 l 536 1236 l 557 1257 l 536 1279 l 394 1279 l 394 1388 m 467 1335 l 467 1335 l 576 1335 l 644 1257 l 576 1181 l 517 1181 l 517 1181 l 576 1181 l 644 1257 l 576 1335 l 467 1335 z "},"Ễ":{"ha":558,"x_min":53,"x_max":540,"o":"m 69 0 l 69 972 l 488 972 l 488 776 l 266 776 l 266 589 l 440 589 l 440 392 l 266 392 l 266 197 l 488 197 l 488 0 l 69 0 m 170 99 l 398 99 l 398 99 l 170 99 l 170 491 l 349 491 l 349 491 l 170 491 l 170 874 l 398 874 l 398 874 l 170 874 l 170 99 m 209 1192 l 384 1192 l 540 994 l 347 994 l 297 1069 l 246 994 l 53 994 l 209 1192 m 256 1138 l 197 1057 l 197 1057 l 256 1138 l 335 1138 l 394 1057 l 394 1057 l 335 1138 l 256 1138 m 103 1214 l 103 1308 l 181 1386 l 304 1386 l 343 1347 l 356 1347 l 356 1386 l 489 1386 l 489 1292 l 411 1214 l 288 1214 l 249 1253 l 236 1253 l 236 1214 l 103 1214 m 172 1263 l 171 1263 l 171 1276 l 217 1326 l 274 1326 l 318 1275 l 379 1275 l 425 1325 l 425 1339 l 426 1339 l 426 1325 l 379 1275 l 318 1275 l 274 1326 l 217 1326 l 172 1276 l 172 1263 z "},"Ȅ":{"ha":558,"x_min":-117,"x_max":524,"o":"m 69 0 l 69 972 l 488 972 l 488 776 l 266 776 l 266 589 l 440 589 l 440 392 l 266 392 l 266 197 l 488 197 l 488 0 l 69 0 m 170 99 l 398 99 l 398 99 l 170 99 l 170 491 l 349 491 l 349 491 l 170 491 l 170 874 l 398 874 l 398 874 l 170 874 l 170 99 m 524 994 l 353 994 l 156 1178 l 355 1178 l 524 994 m 392 1042 l 309 1129 l 310 1129 l 393 1042 l 392 1042 m 252 994 l 81 994 l -117 1178 l 83 1178 l 252 994 m 120 1042 l 37 1129 l 38 1129 l 121 1042 l 120 1042 z "},"Ë":{"ha":558,"x_min":69,"x_max":515,"o":"m 69 0 l 69 972 l 488 972 l 488 776 l 266 776 l 266 589 l 440 589 l 440 392 l 266 392 l 266 197 l 488 197 l 488 0 l 69 0 m 170 99 l 398 99 l 398 99 l 170 99 l 170 491 l 349 491 l 349 491 l 170 491 l 170 874 l 398 874 l 398 874 l 170 874 l 170 99 m 368 1008 l 368 1154 l 515 1154 l 515 1008 l 368 1008 m 79 1008 l 79 1154 l 226 1154 l 226 1008 l 79 1008 m 152 1074 l 151 1074 l 151 1088 l 152 1088 l 152 1074 m 442 1074 l 442 1074 l 442 1088 l 442 1088 l 442 1074 z "},"Ė":{"ha":558,"x_min":69,"x_max":488,"o":"m 69 0 l 69 972 l 488 972 l 488 776 l 266 776 l 266 589 l 440 589 l 440 392 l 266 392 l 266 197 l 488 197 l 488 0 l 69 0 m 170 99 l 398 99 l 398 99 l 170 99 l 170 491 l 349 491 l 349 491 l 170 491 l 170 874 l 398 874 l 398 874 l 170 874 l 170 99 m 224 1008 l 224 1154 l 371 1154 l 371 1008 l 224 1008 m 297 1071 l 296 1071 l 296 1090 l 297 1090 l 297 1071 z "},"Ẹ":{"ha":558,"x_min":69,"x_max":488,"o":"m 69 0 l 69 972 l 488 972 l 488 776 l 266 776 l 266 589 l 440 589 l 440 392 l 266 392 l 266 197 l 488 197 l 488 0 l 69 0 m 170 99 l 398 99 l 398 99 l 170 99 l 170 491 l 349 491 l 349 491 l 170 491 l 170 874 l 398 874 l 398 874 l 170 874 l 170 99 m 223 -188 l 223 -42 l 370 -42 l 370 -188 l 223 -188 m 296 -126 l 295 -126 l 295 -106 l 296 -106 l 296 -126 z "},"È":{"ha":558,"x_min":28,"x_max":488,"o":"m 69 0 l 69 972 l 488 972 l 488 776 l 266 776 l 266 589 l 440 589 l 440 392 l 266 392 l 266 197 l 488 197 l 488 0 l 69 0 m 170 99 l 398 99 l 398 99 l 170 99 l 170 491 l 349 491 l 349 491 l 170 491 l 170 874 l 398 874 l 398 874 l 170 874 l 170 99 m 397 994 l 226 994 l 28 1178 l 228 1178 l 397 994 m 265 1042 l 182 1129 l 183 1129 l 266 1042 l 265 1042 z "},"Ẻ":{"ha":558,"x_min":69,"x_max":488,"o":"m 69 0 l 69 972 l 488 972 l 488 776 l 266 776 l 266 589 l 440 589 l 440 392 l 266 392 l 266 197 l 488 197 l 488 0 l 69 0 m 170 99 l 398 99 l 398 99 l 170 99 l 170 491 l 349 491 l 349 491 l 170 491 l 170 874 l 398 874 l 398 874 l 170 874 l 170 99 m 131 1251 l 349 1251 l 463 1120 l 349 990 l 180 990 l 180 1099 l 273 1099 l 294 1120 l 273 1142 l 131 1142 l 131 1251 m 204 1198 l 204 1198 l 313 1198 l 381 1120 l 313 1044 l 254 1044 l 254 1044 l 313 1044 l 381 1120 l 313 1198 l 204 1198 z "},"Ȇ":{"ha":558,"x_min":69,"x_max":488,"o":"m 69 0 l 69 972 l 488 972 l 488 776 l 266 776 l 266 589 l 440 589 l 440 392 l 266 392 l 266 197 l 488 197 l 488 0 l 69 0 m 170 99 l 398 99 l 398 99 l 170 99 l 170 491 l 349 491 l 349 491 l 170 491 l 170 874 l 398 874 l 398 874 l 170 874 l 170 99 m 379 1180 l 457 1102 l 457 994 l 324 994 l 324 1047 l 269 1047 l 269 994 l 136 994 l 136 1102 l 214 1180 l 379 1180 m 343 1119 l 249 1119 l 203 1069 l 203 1051 l 203 1051 l 203 1069 l 249 1119 l 343 1119 l 389 1069 l 389 1051 l 389 1051 l 389 1069 l 343 1119 z "},"Ē":{"ha":558,"x_min":69,"x_max":516,"o":"m 69 0 l 69 972 l 488 972 l 488 776 l 266 776 l 266 589 l 440 589 l 440 392 l 266 392 l 266 197 l 488 197 l 488 0 l 69 0 m 170 99 l 398 99 l 398 99 l 170 99 l 170 491 l 349 491 l 349 491 l 170 491 l 170 874 l 398 874 l 398 874 l 170 874 l 170 99 m 77 994 l 77 1172 l 516 1172 l 516 994 l 77 994 m 167 1081 l 434 1081 l 434 1081 l 167 1081 l 167 1081 z "},"Ḗ":{"ha":558,"x_min":69,"x_max":580,"o":"m 69 0 l 69 972 l 488 972 l 488 776 l 266 776 l 266 589 l 440 589 l 440 392 l 266 392 l 266 197 l 488 197 l 488 0 l 69 0 m 170 99 l 398 99 l 398 99 l 170 99 l 170 491 l 349 491 l 349 491 l 170 491 l 170 874 l 398 874 l 398 874 l 170 874 l 170 99 m 77 994 l 77 1172 l 516 1172 l 516 994 l 77 994 m 167 1081 l 434 1081 l 434 1081 l 167 1081 l 167 1081 m 211 1194 l 381 1377 l 580 1377 l 383 1194 l 211 1194 m 343 1241 l 342 1241 l 426 1328 l 426 1328 l 343 1241 z "},"Ḕ":{"ha":558,"x_min":28,"x_max":516,"o":"m 69 0 l 69 972 l 488 972 l 488 776 l 266 776 l 266 589 l 440 589 l 440 392 l 266 392 l 266 197 l 488 197 l 488 0 l 69 0 m 170 99 l 398 99 l 398 99 l 170 99 l 170 491 l 349 491 l 349 491 l 170 491 l 170 874 l 398 874 l 398 874 l 170 874 l 170 99 m 77 994 l 77 1172 l 516 1172 l 516 994 l 77 994 m 167 1081 l 434 1081 l 434 1081 l 167 1081 l 167 1081 m 397 1194 l 226 1194 l 28 1377 l 228 1377 l 397 1194 m 265 1241 l 182 1328 l 183 1328 l 266 1241 l 265 1241 z "},"Ę":{"ha":717,"x_min":69,"x_max":648,"o":"m 403 -256 l 290 -125 l 402 0 l 69 0 l 69 972 l 648 972 l 648 776 l 266 776 l 266 589 l 600 589 l 600 392 l 266 392 l 266 197 l 648 197 l 648 0 l 556 0 l 431 -125 l 451 -147 l 615 -147 l 615 -256 l 403 -256 m 424 -201 l 554 -201 l 554 -201 l 424 -201 l 357 -125 l 565 99 l 565 99 l 565 99 l 170 99 l 170 491 l 509 491 l 509 491 l 170 491 l 170 874 l 562 874 l 562 874 l 170 874 l 170 99 l 565 99 l 565 99 l 357 -125 l 424 -201 z "},"Ẽ":{"ha":558,"x_min":69,"x_max":489,"o":"m 69 0 l 69 972 l 488 972 l 488 776 l 266 776 l 266 589 l 440 589 l 440 392 l 266 392 l 266 197 l 488 197 l 488 0 l 69 0 m 170 99 l 398 99 l 398 99 l 170 99 l 170 491 l 349 491 l 349 491 l 170 491 l 170 874 l 398 874 l 398 874 l 170 874 l 170 99 m 103 994 l 103 1089 l 181 1167 l 304 1167 l 343 1128 l 356 1128 l 356 1167 l 489 1167 l 489 1072 l 411 994 l 288 994 l 249 1033 l 236 1033 l 236 994 l 103 994 m 172 1043 l 171 1043 l 171 1057 l 217 1107 l 274 1107 l 318 1056 l 379 1056 l 425 1106 l 425 1119 l 426 1119 l 426 1106 l 379 1056 l 318 1056 l 274 1107 l 217 1107 l 172 1057 l 172 1043 z "},"F":{"ha":516,"x_min":69,"x_max":474,"o":"m 69 0 l 69 972 l 474 972 l 474 776 l 266 776 l 266 589 l 448 589 l 448 392 l 266 392 l 266 0 l 69 0 m 167 99 l 167 99 l 167 494 l 346 494 l 346 493 l 167 493 l 167 874 l 374 874 l 374 874 l 167 874 l 167 99 z "},"G":{"ha":672,"x_min":69,"x_max":603,"o":"m 213 0 l 69 143 l 69 829 l 213 972 l 460 972 l 603 829 l 603 654 l 407 654 l 407 733 l 365 776 l 307 776 l 265 732 l 265 238 l 307 197 l 365 197 l 407 239 l 407 335 l 316 335 l 316 531 l 603 531 l 603 143 l 460 0 l 213 0 m 265 99 l 408 99 l 505 196 l 505 431 l 419 431 l 419 431 l 505 431 l 505 196 l 408 99 l 265 99 l 168 196 l 168 781 l 261 874 l 415 874 l 505 781 l 505 744 l 505 744 l 505 781 l 415 874 l 261 874 l 168 781 l 168 196 l 265 99 z "},"Ğ":{"ha":672,"x_min":69,"x_max":603,"o":"m 213 0 l 69 143 l 69 829 l 213 972 l 460 972 l 603 829 l 603 654 l 407 654 l 407 733 l 365 776 l 307 776 l 265 732 l 265 238 l 307 197 l 365 197 l 407 239 l 407 335 l 316 335 l 316 531 l 603 531 l 603 143 l 460 0 l 213 0 m 265 99 l 408 99 l 505 196 l 505 431 l 419 431 l 419 431 l 505 431 l 505 196 l 408 99 l 265 99 l 168 196 l 168 781 l 261 874 l 415 874 l 505 781 l 505 744 l 505 744 l 505 781 l 415 874 l 261 874 l 168 781 l 168 196 l 265 99 m 258 994 l 180 1072 l 180 1181 l 313 1181 l 313 1128 l 367 1128 l 367 1181 l 501 1181 l 501 1072 l 423 994 l 258 994 m 294 1056 l 388 1056 l 434 1106 l 434 1124 l 434 1124 l 434 1106 l 388 1056 l 294 1056 l 248 1106 l 248 1124 l 248 1124 l 248 1106 l 294 1056 z "},"Ǧ":{"ha":672,"x_min":69,"x_max":603,"o":"m 213 0 l 69 143 l 69 829 l 213 972 l 460 972 l 603 829 l 603 654 l 407 654 l 407 733 l 365 776 l 307 776 l 265 732 l 265 238 l 307 197 l 365 197 l 407 239 l 407 335 l 316 335 l 316 531 l 603 531 l 603 143 l 460 0 l 213 0 m 265 99 l 408 99 l 505 196 l 505 431 l 419 431 l 419 431 l 505 431 l 505 196 l 408 99 l 265 99 l 168 196 l 168 781 l 261 874 l 415 874 l 505 781 l 505 744 l 505 744 l 505 781 l 415 874 l 261 874 l 168 781 l 168 196 l 265 99 m 253 994 l 97 1192 l 290 1192 l 340 1117 l 391 1192 l 583 1192 l 428 994 l 253 994 m 299 1049 l 378 1049 l 438 1129 l 438 1129 l 378 1049 l 299 1049 l 240 1129 l 240 1129 l 299 1049 z "},"Ĝ":{"ha":672,"x_min":69,"x_max":603,"o":"m 213 0 l 69 143 l 69 829 l 213 972 l 460 972 l 603 829 l 603 654 l 407 654 l 407 733 l 365 776 l 307 776 l 265 732 l 265 238 l 307 197 l 365 197 l 407 239 l 407 335 l 316 335 l 316 531 l 603 531 l 603 143 l 460 0 l 213 0 m 265 99 l 408 99 l 505 196 l 505 431 l 419 431 l 419 431 l 505 431 l 505 196 l 408 99 l 265 99 l 168 196 l 168 781 l 261 874 l 415 874 l 505 781 l 505 744 l 505 744 l 505 781 l 415 874 l 261 874 l 168 781 l 168 196 l 265 99 m 253 1192 l 428 1192 l 583 994 l 391 994 l 340 1069 l 290 994 l 97 994 l 253 1192 m 299 1138 l 240 1057 l 240 1057 l 299 1138 l 378 1138 l 438 1057 l 438 1057 l 378 1138 l 299 1138 z "},"Ģ":{"ha":672,"x_min":69,"x_max":603,"o":"m 213 0 l 69 143 l 69 829 l 213 972 l 460 972 l 603 829 l 603 654 l 407 654 l 407 733 l 365 776 l 307 776 l 265 732 l 265 238 l 307 197 l 365 197 l 407 239 l 407 335 l 316 335 l 316 531 l 603 531 l 603 143 l 460 0 l 213 0 m 265 99 l 408 99 l 505 196 l 505 431 l 419 431 l 419 431 l 505 431 l 505 196 l 408 99 l 265 99 l 168 196 l 168 781 l 261 874 l 415 874 l 505 781 l 505 744 l 505 744 l 505 781 l 415 874 l 261 874 l 168 781 l 168 196 l 265 99 m 168 -368 l 247 -50 l 435 -50 l 325 -368 l 168 -368 m 267 -294 l 267 -294 l 314 -142 l 315 -142 l 267 -294 z "},"Ġ":{"ha":672,"x_min":69,"x_max":603,"o":"m 213 0 l 69 143 l 69 829 l 213 972 l 460 972 l 603 829 l 603 654 l 407 654 l 407 733 l 365 776 l 307 776 l 265 732 l 265 238 l 307 197 l 365 197 l 407 239 l 407 335 l 316 335 l 316 531 l 603 531 l 603 143 l 460 0 l 213 0 m 265 99 l 408 99 l 505 196 l 505 431 l 419 431 l 419 431 l 505 431 l 505 196 l 408 99 l 265 99 l 168 196 l 168 781 l 261 874 l 415 874 l 505 781 l 505 744 l 505 744 l 505 781 l 415 874 l 261 874 l 168 781 l 168 196 l 265 99 m 267 1008 l 267 1154 l 415 1154 l 415 1008 l 267 1008 m 340 1071 l 340 1071 l 340 1090 l 340 1090 l 340 1071 z "},"Ḡ":{"ha":672,"x_min":69,"x_max":603,"o":"m 213 0 l 69 143 l 69 829 l 213 972 l 460 972 l 603 829 l 603 654 l 407 654 l 407 733 l 365 776 l 307 776 l 265 732 l 265 238 l 307 197 l 365 197 l 407 239 l 407 335 l 316 335 l 316 531 l 603 531 l 603 143 l 460 0 l 213 0 m 265 99 l 408 99 l 505 196 l 505 431 l 419 431 l 419 431 l 505 431 l 505 196 l 408 99 l 265 99 l 168 196 l 168 781 l 261 874 l 415 874 l 505 781 l 505 744 l 505 744 l 505 781 l 415 874 l 261 874 l 168 781 l 168 196 l 265 99 m 121 994 l 121 1172 l 560 1172 l 560 994 l 121 994 m 211 1081 l 478 1081 l 478 1081 l 211 1081 l 211 1081 z "},"H":{"ha":656,"x_min":76,"x_max":580,"o":"m 76 0 l 76 972 l 273 972 l 273 589 l 384 589 l 384 972 l 580 972 l 580 0 l 384 0 l 384 392 l 273 392 l 273 0 l 76 0 m 174 99 l 174 99 l 174 491 l 483 491 l 483 99 l 483 99 l 483 874 l 483 874 l 483 491 l 174 491 l 174 874 l 174 874 l 174 99 z "},"Ħ":{"ha":861,"x_min":13,"x_max":828,"o":"m 88 0 l 88 680 l 13 680 l 13 851 l 88 851 l 88 972 l 285 972 l 285 851 l 563 851 l 563 972 l 759 972 l 759 851 l 828 851 l 828 680 l 759 680 l 759 0 l 563 0 l 563 392 l 285 392 l 285 0 l 88 0 m 188 99 l 187 99 l 187 494 l 660 494 l 660 99 l 660 99 l 660 774 l 746 774 l 746 774 l 660 774 l 660 874 l 660 874 l 660 774 l 187 774 l 187 874 l 187 874 l 187 774 l 101 774 l 101 774 l 188 774 l 188 99 m 187 493 l 187 774 l 660 774 l 660 493 l 187 493 m 285 589 l 563 589 l 563 680 l 285 680 l 285 589 z "},"Ḫ":{"ha":656,"x_min":76,"x_max":580,"o":"m 76 0 l 76 972 l 273 972 l 273 589 l 384 589 l 384 972 l 580 972 l 580 0 l 384 0 l 384 392 l 273 392 l 273 0 l 76 0 m 174 99 l 174 99 l 174 491 l 483 491 l 483 99 l 483 99 l 483 874 l 483 874 l 483 491 l 174 491 l 174 874 l 174 874 l 174 99 m 246 -236 l 168 -158 l 168 -50 l 301 -50 l 301 -103 l 356 -103 l 356 -50 l 489 -50 l 489 -158 l 411 -236 l 246 -236 m 282 -175 l 376 -175 l 422 -125 l 422 -107 l 422 -107 l 422 -125 l 376 -175 l 282 -175 l 236 -125 l 236 -107 l 236 -107 l 236 -125 l 282 -175 z "},"Ĥ":{"ha":656,"x_min":76,"x_max":580,"o":"m 76 0 l 76 972 l 273 972 l 273 589 l 384 589 l 384 972 l 580 972 l 580 0 l 384 0 l 384 392 l 273 392 l 273 0 l 76 0 m 174 99 l 174 99 l 174 491 l 483 491 l 483 99 l 483 99 l 483 874 l 483 874 l 483 491 l 174 491 l 174 874 l 174 874 l 174 99 m 241 1192 l 416 1192 l 572 994 l 379 994 l 328 1069 l 278 994 l 85 994 l 241 1192 m 288 1138 l 228 1057 l 228 1057 l 288 1138 l 367 1138 l 426 1057 l 426 1057 l 367 1138 l 288 1138 z "},"Ḥ":{"ha":656,"x_min":76,"x_max":580,"o":"m 76 0 l 76 972 l 273 972 l 273 589 l 384 589 l 384 972 l 580 972 l 580 0 l 384 0 l 384 392 l 273 392 l 273 0 l 76 0 m 174 99 l 174 99 l 174 491 l 483 491 l 483 99 l 483 99 l 483 874 l 483 874 l 483 491 l 174 491 l 174 874 l 174 874 l 174 99 m 255 -188 l 255 -42 l 402 -42 l 402 -188 l 255 -188 m 328 -126 l 327 -126 l 327 -106 l 328 -106 l 328 -126 z "},"I":{"ha":529,"x_min":69,"x_max":460,"o":"m 69 0 l 69 197 l 167 197 l 167 776 l 69 776 l 69 972 l 460 972 l 460 776 l 363 776 l 363 197 l 460 197 l 460 0 l 69 0 m 157 99 l 373 99 l 373 99 l 265 99 l 265 874 l 373 874 l 373 874 l 157 874 l 157 874 l 265 874 l 265 99 l 157 99 l 157 99 z "},"Í":{"ha":529,"x_min":69,"x_max":548,"o":"m 69 0 l 69 197 l 167 197 l 167 776 l 69 776 l 69 972 l 460 972 l 460 776 l 363 776 l 363 197 l 460 197 l 460 0 l 69 0 m 157 99 l 373 99 l 373 99 l 265 99 l 265 874 l 373 874 l 373 874 l 157 874 l 157 874 l 265 874 l 265 99 l 157 99 l 157 99 m 179 994 l 349 1178 l 548 1178 l 351 994 l 179 994 m 311 1042 l 310 1042 l 394 1129 l 394 1129 l 311 1042 z "},"Ĭ":{"ha":529,"x_min":69,"x_max":460,"o":"m 69 0 l 69 197 l 167 197 l 167 776 l 69 776 l 69 972 l 460 972 l 460 776 l 363 776 l 363 197 l 460 197 l 460 0 l 69 0 m 157 99 l 373 99 l 373 99 l 265 99 l 265 874 l 373 874 l 373 874 l 157 874 l 157 874 l 265 874 l 265 99 l 157 99 l 157 99 m 182 994 l 104 1072 l 104 1181 l 238 1181 l 238 1128 l 292 1128 l 292 1181 l 425 1181 l 425 1072 l 347 994 l 182 994 m 218 1056 l 313 1056 l 358 1106 l 358 1124 l 358 1124 l 358 1106 l 313 1056 l 218 1056 l 172 1106 l 172 1124 l 172 1124 l 172 1106 l 218 1056 z "},"Ǐ":{"ha":529,"x_min":22,"x_max":508,"o":"m 69 0 l 69 197 l 167 197 l 167 776 l 69 776 l 69 972 l 460 972 l 460 776 l 363 776 l 363 197 l 460 197 l 460 0 l 69 0 m 157 99 l 373 99 l 373 99 l 265 99 l 265 874 l 373 874 l 373 874 l 157 874 l 157 874 l 265 874 l 265 99 l 157 99 l 157 99 m 177 994 l 22 1192 l 214 1192 l 265 1117 l 315 1192 l 508 1192 l 352 994 l 177 994 m 224 1049 l 303 1049 l 362 1129 l 362 1129 l 303 1049 l 224 1049 l 165 1129 l 165 1129 l 224 1049 z "},"Î":{"ha":529,"x_min":22,"x_max":508,"o":"m 69 0 l 69 197 l 167 197 l 167 776 l 69 776 l 69 972 l 460 972 l 460 776 l 363 776 l 363 197 l 460 197 l 460 0 l 69 0 m 157 99 l 373 99 l 373 99 l 265 99 l 265 874 l 373 874 l 373 874 l 157 874 l 157 874 l 265 874 l 265 99 l 157 99 l 157 99 m 177 1192 l 352 1192 l 508 994 l 315 994 l 265 1069 l 214 994 l 22 994 l 177 1192 m 224 1138 l 165 1057 l 165 1057 l 224 1138 l 303 1138 l 362 1057 l 362 1057 l 303 1138 l 224 1138 z "},"Ȉ":{"ha":529,"x_min":-149,"x_max":492,"o":"m 69 0 l 69 197 l 167 197 l 167 776 l 69 776 l 69 972 l 460 972 l 460 776 l 363 776 l 363 197 l 460 197 l 460 0 l 69 0 m 157 99 l 373 99 l 373 99 l 265 99 l 265 874 l 373 874 l 373 874 l 157 874 l 157 874 l 265 874 l 265 99 l 157 99 l 157 99 m 492 994 l 321 994 l 124 1178 l 323 1178 l 492 994 m 360 1042 l 277 1129 l 278 1129 l 361 1042 l 360 1042 m 220 994 l 49 994 l -149 1178 l 51 1178 l 220 994 m 88 1042 l 5 1129 l 6 1129 l 89 1042 l 88 1042 z "},"Ï":{"ha":529,"x_min":47,"x_max":483,"o":"m 69 0 l 69 197 l 167 197 l 167 776 l 69 776 l 69 972 l 460 972 l 460 776 l 363 776 l 363 197 l 460 197 l 460 0 l 69 0 m 157 99 l 373 99 l 373 99 l 265 99 l 265 874 l 373 874 l 373 874 l 157 874 l 157 874 l 265 874 l 265 99 l 157 99 l 157 99 m 336 1008 l 336 1154 l 483 1154 l 483 1008 l 336 1008 m 47 1008 l 47 1154 l 194 1154 l 194 1008 l 47 1008 m 120 1074 l 119 1074 l 119 1088 l 120 1088 l 120 1074 m 410 1074 l 410 1074 l 410 1088 l 410 1088 l 410 1074 z "},"Ḯ":{"ha":529,"x_min":47,"x_max":548,"o":"m 69 0 l 69 197 l 167 197 l 167 776 l 69 776 l 69 972 l 460 972 l 460 776 l 363 776 l 363 197 l 460 197 l 460 0 l 69 0 m 157 99 l 373 99 l 373 99 l 265 99 l 265 874 l 373 874 l 373 874 l 157 874 l 157 874 l 265 874 l 265 99 l 157 99 l 157 99 m 336 1008 l 336 1154 l 483 1154 l 483 1008 l 336 1008 m 47 1008 l 47 1154 l 194 1154 l 194 1008 l 47 1008 m 120 1074 l 119 1074 l 119 1088 l 120 1088 l 120 1074 m 410 1074 l 410 1074 l 410 1088 l 410 1088 l 410 1074 m 179 1176 l 349 1360 l 548 1360 l 351 1176 l 179 1176 m 311 1224 l 310 1224 l 394 1311 l 394 1311 l 311 1224 z "},"İ":{"ha":529,"x_min":69,"x_max":460,"o":"m 69 0 l 69 197 l 167 197 l 167 776 l 69 776 l 69 972 l 460 972 l 460 776 l 363 776 l 363 197 l 460 197 l 460 0 l 69 0 m 157 99 l 373 99 l 373 99 l 265 99 l 265 874 l 373 874 l 373 874 l 157 874 l 157 874 l 265 874 l 265 99 l 157 99 l 157 99 m 192 1008 l 192 1154 l 339 1154 l 339 1008 l 192 1008 m 265 1071 l 264 1071 l 264 1090 l 265 1090 l 265 1071 z "},"Ị":{"ha":529,"x_min":69,"x_max":460,"o":"m 69 0 l 69 197 l 167 197 l 167 776 l 69 776 l 69 972 l 460 972 l 460 776 l 363 776 l 363 197 l 460 197 l 460 0 l 69 0 m 157 99 l 373 99 l 373 99 l 265 99 l 265 874 l 373 874 l 373 874 l 157 874 l 157 874 l 265 874 l 265 99 l 157 99 l 157 99 m 191 -188 l 191 -42 l 338 -42 l 338 -188 l 191 -188 m 264 -126 l 263 -126 l 263 -106 l 264 -106 l 264 -126 z "},"Ì":{"ha":529,"x_min":-3,"x_max":460,"o":"m 69 0 l 69 197 l 167 197 l 167 776 l 69 776 l 69 972 l 460 972 l 460 776 l 363 776 l 363 197 l 460 197 l 460 0 l 69 0 m 157 99 l 373 99 l 373 99 l 265 99 l 265 874 l 373 874 l 373 874 l 157 874 l 157 874 l 265 874 l 265 99 l 157 99 l 157 99 m 365 994 l 194 994 l -3 1178 l 196 1178 l 365 994 m 233 1042 l 150 1129 l 151 1129 l 234 1042 l 233 1042 z "},"Ỉ":{"ha":529,"x_min":69,"x_max":460,"o":"m 69 0 l 69 197 l 167 197 l 167 776 l 69 776 l 69 972 l 460 972 l 460 776 l 363 776 l 363 197 l 460 197 l 460 0 l 69 0 m 157 99 l 373 99 l 373 99 l 265 99 l 265 874 l 373 874 l 373 874 l 157 874 l 157 874 l 265 874 l 265 99 l 157 99 l 157 99 m 99 1251 l 317 1251 l 431 1120 l 317 990 l 148 990 l 148 1099 l 241 1099 l 262 1120 l 241 1142 l 99 1142 l 99 1251 m 172 1198 l 172 1198 l 281 1198 l 349 1120 l 281 1044 l 222 1044 l 222 1044 l 281 1044 l 349 1120 l 281 1198 l 172 1198 z "},"Ȋ":{"ha":529,"x_min":69,"x_max":460,"o":"m 69 0 l 69 197 l 167 197 l 167 776 l 69 776 l 69 972 l 460 972 l 460 776 l 363 776 l 363 197 l 460 197 l 460 0 l 69 0 m 157 99 l 373 99 l 373 99 l 265 99 l 265 874 l 373 874 l 373 874 l 157 874 l 157 874 l 265 874 l 265 99 l 157 99 l 157 99 m 347 1180 l 425 1102 l 425 994 l 292 994 l 292 1047 l 238 1047 l 238 994 l 104 994 l 104 1102 l 182 1180 l 347 1180 m 311 1119 l 217 1119 l 171 1069 l 171 1051 l 171 1051 l 171 1069 l 217 1119 l 311 1119 l 357 1069 l 357 1051 l 357 1051 l 357 1069 l 311 1119 z "},"Ī":{"ha":529,"x_min":45,"x_max":484,"o":"m 69 0 l 69 197 l 167 197 l 167 776 l 69 776 l 69 972 l 460 972 l 460 776 l 363 776 l 363 197 l 460 197 l 460 0 l 69 0 m 157 99 l 373 99 l 373 99 l 265 99 l 265 874 l 373 874 l 373 874 l 157 874 l 157 874 l 265 874 l 265 99 l 157 99 l 157 99 m 45 994 l 45 1172 l 484 1172 l 484 994 l 45 994 m 135 1081 l 402 1081 l 402 1081 l 135 1081 l 135 1081 z "},"Į":{"ha":667,"x_min":69,"x_max":598,"o":"m 255 -256 l 142 -124 l 253 0 l 69 0 l 69 197 l 235 197 l 235 776 l 69 776 l 69 972 l 598 972 l 598 776 l 431 776 l 431 197 l 598 197 l 598 0 l 407 0 l 283 -124 l 303 -147 l 467 -147 l 467 -256 l 255 -256 m 278 -201 l 412 -201 l 411 -201 l 278 -201 l 213 -125 l 422 99 l 504 99 l 503 99 l 326 99 l 326 874 l 510 874 l 510 874 l 157 874 l 158 874 l 326 874 l 326 99 l 163 99 l 164 99 l 422 99 l 213 -125 l 278 -201 z "},"Ĩ":{"ha":529,"x_min":69,"x_max":460,"o":"m 69 0 l 69 197 l 167 197 l 167 776 l 69 776 l 69 972 l 460 972 l 460 776 l 363 776 l 363 197 l 460 197 l 460 0 l 69 0 m 157 99 l 373 99 l 373 99 l 265 99 l 265 874 l 373 874 l 373 874 l 157 874 l 157 874 l 265 874 l 265 99 l 157 99 l 157 99 m 71 994 l 71 1089 l 149 1167 l 272 1167 l 311 1128 l 324 1128 l 324 1167 l 457 1167 l 457 1072 l 379 994 l 256 994 l 217 1033 l 204 1033 l 204 994 l 71 994 m 140 1043 l 139 1043 l 139 1057 l 185 1107 l 242 1107 l 286 1056 l 347 1056 l 393 1106 l 393 1119 l 394 1119 l 394 1106 l 347 1056 l 286 1056 l 242 1107 l 185 1107 l 140 1057 l 140 1043 z "},"J":{"ha":647,"x_min":69,"x_max":578,"o":"m 213 0 l 69 143 l 69 391 l 266 391 l 266 239 l 308 197 l 339 197 l 381 239 l 381 776 l 202 776 l 202 972 l 578 972 l 578 143 l 434 0 l 213 0 m 262 102 l 387 102 l 484 199 l 484 874 l 301 874 l 301 874 l 484 874 l 484 199 l 387 102 l 262 102 l 167 197 l 167 300 l 167 300 l 167 197 l 262 102 z "},"Ĵ":{"ha":647,"x_min":69,"x_max":622,"o":"m 213 0 l 69 143 l 69 391 l 266 391 l 266 239 l 308 197 l 339 197 l 381 239 l 381 776 l 202 776 l 202 972 l 578 972 l 578 143 l 434 0 l 213 0 m 262 102 l 387 102 l 484 199 l 484 874 l 301 874 l 301 874 l 484 874 l 484 199 l 387 102 l 262 102 l 167 197 l 167 300 l 167 300 l 167 197 l 262 102 m 292 1192 l 467 1192 l 622 994 l 430 994 l 379 1069 l 328 994 l 136 994 l 292 1192 m 338 1138 l 279 1057 l 279 1057 l 338 1138 l 417 1138 l 476 1057 l 476 1057 l 417 1138 l 338 1138 z "},"K":{"ha":674,"x_min":76,"x_max":590,"o":"m 76 0 l 76 972 l 273 972 l 273 589 l 311 589 l 394 672 l 394 972 l 590 972 l 590 589 l 492 492 l 590 392 l 590 0 l 394 0 l 394 310 l 311 392 l 273 392 l 273 0 l 76 0 m 176 99 l 175 99 l 175 497 l 364 497 l 493 363 l 493 99 l 493 99 l 493 363 l 364 497 l 493 626 l 493 874 l 493 874 l 493 626 l 364 497 l 175 497 l 175 874 l 176 874 l 176 99 z "},"Ķ":{"ha":674,"x_min":76,"x_max":590,"o":"m 76 0 l 76 972 l 273 972 l 273 589 l 311 589 l 394 672 l 394 972 l 590 972 l 590 589 l 492 492 l 590 392 l 590 0 l 394 0 l 394 310 l 311 392 l 273 392 l 273 0 l 76 0 m 176 99 l 175 99 l 175 497 l 364 497 l 493 363 l 493 99 l 493 99 l 493 363 l 364 497 l 493 626 l 493 874 l 493 874 l 493 626 l 364 497 l 175 497 l 175 874 l 176 874 l 176 99 m 162 -368 l 241 -50 l 429 -50 l 319 -368 l 162 -368 m 261 -294 l 260 -294 l 308 -142 l 308 -142 l 261 -294 z "},"L":{"ha":524,"x_min":76,"x_max":482,"o":"m 76 0 l 76 972 l 273 972 l 273 197 l 482 197 l 482 0 l 76 0 m 175 99 l 388 99 l 388 99 l 175 99 l 175 874 l 175 874 l 175 99 z "},"Ǉ":{"ha":1171,"x_min":76,"x_max":1101,"o":"m 76 0 l 76 972 l 273 972 l 273 197 l 482 197 l 482 0 l 76 0 m 175 99 l 388 99 l 388 99 l 175 99 l 175 874 l 175 874 l 175 99 m 737 0 l 593 143 l 593 391 l 790 391 l 790 239 l 832 197 l 863 197 l 905 239 l 905 776 l 726 776 l 726 972 l 1101 972 l 1101 143 l 958 0 l 737 0 m 785 102 l 910 102 l 1008 199 l 1008 874 l 825 874 l 825 874 l 1008 874 l 1008 199 l 910 102 l 785 102 l 691 197 l 691 300 l 691 300 l 691 197 l 785 102 z "},"Ĺ":{"ha":524,"x_min":76,"x_max":482,"o":"m 76 0 l 76 972 l 273 972 l 273 197 l 482 197 l 482 0 l 76 0 m 175 99 l 388 99 l 388 99 l 175 99 l 175 874 l 175 874 l 175 99 m 97 994 l 267 1178 l 466 1178 l 269 994 l 97 994 m 229 1042 l 228 1042 l 312 1129 l 313 1129 l 229 1042 z "},"Ľ":{"ha":524,"x_min":76,"x_max":551,"o":"m 76 0 l 76 972 l 273 972 l 273 197 l 482 197 l 482 0 l 76 0 m 175 99 l 388 99 l 388 99 l 175 99 l 175 874 l 175 874 l 175 99 m 374 657 l 342 776 l 342 972 l 551 972 l 551 776 l 518 657 l 374 657 m 449 732 l 448 732 l 448 775 l 449 881 l 449 881 l 449 775 l 449 732 z "},"Ļ":{"ha":524,"x_min":76,"x_max":482,"o":"m 76 0 l 76 972 l 273 972 l 273 197 l 482 197 l 482 0 l 76 0 m 175 99 l 388 99 l 388 99 l 175 99 l 175 874 l 175 874 l 175 99 m 110 -368 l 190 -50 l 378 -50 l 267 -368 l 110 -368 m 210 -294 l 209 -294 l 256 -142 l 257 -142 l 210 -294 z "},"Ŀ":{"ha":743,"x_min":76,"x_max":658,"o":"m 76 0 l 76 972 l 273 972 l 273 197 l 482 197 l 482 0 l 76 0 m 175 99 l 388 99 l 388 99 l 175 99 l 175 874 l 175 874 l 175 99 m 440 408 l 440 613 l 658 613 l 658 408 l 440 408 m 533 507 l 566 507 l 566 507 l 533 507 l 533 507 z "},"Ḷ":{"ha":524,"x_min":76,"x_max":482,"o":"m 76 0 l 76 972 l 273 972 l 273 197 l 482 197 l 482 0 l 76 0 m 175 99 l 388 99 l 388 99 l 175 99 l 175 874 l 175 874 l 175 99 m 209 -188 l 209 -42 l 356 -42 l 356 -188 l 209 -188 m 282 -126 l 281 -126 l 281 -106 l 282 -106 l 282 -126 z "},"ǈ":{"ha":950,"x_min":76,"x_max":874,"o":"m 76 0 l 76 972 l 273 972 l 273 197 l 482 197 l 482 0 l 76 0 m 175 99 l 388 99 l 388 99 l 175 99 l 175 874 l 175 874 l 175 99 m 538 -278 l 538 -82 l 622 -82 l 677 -26 l 677 554 l 538 554 l 538 750 l 874 750 l 874 -135 l 731 -278 l 538 -278 m 651 -176 l 683 -176 l 776 -78 l 776 653 l 636 653 l 636 653 l 776 653 l 776 -78 l 683 -176 l 651 -176 l 651 -176 m 677 858 l 677 1042 l 874 1042 l 874 858 l 677 858 m 776 939 l 776 939 l 776 972 l 776 972 l 776 939 z "},"Ḻ":{"ha":524,"x_min":63,"x_max":502,"o":"m 76 0 l 76 972 l 273 972 l 273 197 l 482 197 l 482 0 l 76 0 m 175 99 l 388 99 l 388 99 l 175 99 l 175 874 l 175 874 l 175 99 m 63 -226 l 63 -49 l 502 -49 l 502 -226 l 63 -226 m 153 -139 l 420 -139 l 420 -139 l 153 -139 l 153 -139 z "},"Ł":{"ha":743,"x_min":34,"x_max":680,"o":"m 115 0 l 115 339 l 34 306 l 34 480 l 115 513 l 115 972 l 312 972 l 312 588 l 549 682 l 549 508 l 312 415 l 312 197 l 680 197 l 680 0 l 115 0 m 211 99 l 615 99 l 615 99 l 211 99 l 211 460 l 126 426 l 126 426 l 211 460 l 211 876 l 211 876 l 211 460 l 446 553 l 446 553 l 211 460 l 211 99 z "},"M":{"ha":1008,"x_min":76,"x_max":931,"o":"m 76 0 l 76 972 l 451 972 l 497 283 l 511 283 l 557 972 l 931 972 l 931 0 l 735 0 l 735 775 l 717 775 l 669 83 l 339 83 l 292 775 l 273 775 l 273 0 l 76 0 m 174 99 l 173 99 l 173 874 l 366 874 l 422 192 l 584 192 l 640 874 l 833 874 l 833 99 l 832 99 l 832 874 l 640 874 l 584 192 l 422 192 l 366 874 l 174 874 l 174 99 z "},"Ṃ":{"ha":1008,"x_min":76,"x_max":931,"o":"m 76 0 l 76 972 l 451 972 l 497 283 l 511 283 l 557 972 l 931 972 l 931 0 l 735 0 l 735 775 l 717 775 l 669 83 l 339 83 l 292 775 l 273 775 l 273 0 l 76 0 m 174 99 l 173 99 l 173 874 l 366 874 l 422 192 l 584 192 l 640 874 l 833 874 l 833 99 l 832 99 l 832 874 l 640 874 l 584 192 l 422 192 l 366 874 l 174 874 l 174 99 m 431 -188 l 431 -42 l 578 -42 l 578 -188 l 431 -188 m 504 -126 l 503 -126 l 503 -106 l 504 -106 l 504 -126 z "},"N":{"ha":799,"x_min":76,"x_max":723,"o":"m 174 99 l 174 99 l 174 874 l 366 874 l 435 99 l 624 99 l 624 874 l 625 874 l 625 99 l 435 99 l 366 874 l 174 874 l 174 99 m 76 0 l 76 972 l 444 972 l 513 199 l 526 199 l 526 972 l 723 972 l 723 0 l 356 0 l 285 775 l 273 775 l 273 0 l 76 0 z "},"Ǌ":{"ha":1447,"x_min":76,"x_max":1377,"o":"m 174 99 l 174 99 l 174 874 l 366 874 l 435 99 l 624 99 l 624 874 l 625 874 l 625 99 l 435 99 l 366 874 l 174 874 l 174 99 m 76 0 l 76 972 l 444 972 l 513 199 l 526 199 l 526 972 l 723 972 l 723 0 l 356 0 l 285 775 l 273 775 l 273 0 l 76 0 m 1013 0 l 869 143 l 869 391 l 1065 391 l 1065 239 l 1108 197 l 1138 197 l 1181 239 l 1181 776 l 1001 776 l 1001 972 l 1377 972 l 1377 143 l 1233 0 l 1013 0 m 1061 102 l 1186 102 l 1283 199 l 1283 874 l 1101 874 l 1101 874 l 1283 874 l 1283 199 l 1186 102 l 1061 102 l 967 197 l 967 300 l 967 300 l 967 197 l 1061 102 z "},"Ń":{"ha":799,"x_min":76,"x_max":723,"o":"m 174 99 l 174 99 l 174 874 l 366 874 l 435 99 l 624 99 l 624 874 l 625 874 l 625 99 l 435 99 l 366 874 l 174 874 l 174 99 m 76 0 l 76 972 l 444 972 l 513 199 l 526 199 l 526 972 l 723 972 l 723 0 l 356 0 l 285 775 l 273 775 l 273 0 l 76 0 m 317 994 l 486 1178 l 685 1178 l 488 994 l 317 994 m 449 1042 l 448 1042 l 531 1129 l 532 1129 l 449 1042 z "},"Ň":{"ha":799,"x_min":76,"x_max":723,"o":"m 174 99 l 174 99 l 174 874 l 366 874 l 435 99 l 624 99 l 624 874 l 625 874 l 625 99 l 435 99 l 366 874 l 174 874 l 174 99 m 76 0 l 76 972 l 444 972 l 513 199 l 526 199 l 526 972 l 723 972 l 723 0 l 356 0 l 285 775 l 273 775 l 273 0 l 76 0 m 315 994 l 159 1192 l 351 1192 l 402 1117 l 453 1192 l 645 1192 l 490 994 l 315 994 m 361 1049 l 440 1049 l 499 1129 l 499 1129 l 440 1049 l 361 1049 l 302 1129 l 302 1129 l 361 1049 z "},"Ņ":{"ha":799,"x_min":76,"x_max":723,"o":"m 174 99 l 174 99 l 174 874 l 366 874 l 435 99 l 624 99 l 624 874 l 625 874 l 625 99 l 435 99 l 366 874 l 174 874 l 174 99 m 76 0 l 76 972 l 444 972 l 513 199 l 526 199 l 526 972 l 723 972 l 723 0 l 356 0 l 285 775 l 273 775 l 273 0 l 76 0 m 230 -368 l 309 -50 l 497 -50 l 387 -368 l 230 -368 m 329 -294 l 328 -294 l 376 -142 l 376 -142 l 329 -294 z "},"Ṅ":{"ha":799,"x_min":76,"x_max":723,"o":"m 174 99 l 174 99 l 174 874 l 366 874 l 435 99 l 624 99 l 624 874 l 625 874 l 625 99 l 435 99 l 366 874 l 174 874 l 174 99 m 76 0 l 76 972 l 444 972 l 513 199 l 526 199 l 526 972 l 723 972 l 723 0 l 356 0 l 285 775 l 273 775 l 273 0 l 76 0 m 329 1008 l 329 1154 l 476 1154 l 476 1008 l 329 1008 m 402 1071 l 401 1071 l 401 1090 l 402 1090 l 402 1071 z "},"Ṇ":{"ha":799,"x_min":76,"x_max":723,"o":"m 174 99 l 174 99 l 174 874 l 366 874 l 435 99 l 624 99 l 624 874 l 625 874 l 625 99 l 435 99 l 366 874 l 174 874 l 174 99 m 76 0 l 76 972 l 444 972 l 513 199 l 526 199 l 526 972 l 723 972 l 723 0 l 356 0 l 285 775 l 273 775 l 273 0 l 76 0 m 328 -188 l 328 -42 l 476 -42 l 476 -188 l 328 -188 m 401 -126 l 401 -126 l 401 -106 l 401 -106 l 401 -126 z "},"ǋ":{"ha":1226,"x_min":76,"x_max":1149,"o":"m 174 99 l 174 99 l 174 874 l 366 874 l 435 99 l 624 99 l 624 874 l 625 874 l 625 99 l 435 99 l 366 874 l 174 874 l 174 99 m 76 0 l 76 972 l 444 972 l 513 199 l 526 199 l 526 972 l 723 972 l 723 0 l 356 0 l 285 775 l 273 775 l 273 0 l 76 0 m 813 -278 l 813 -82 l 897 -82 l 953 -26 l 953 554 l 813 554 l 813 750 l 1149 750 l 1149 -135 l 1006 -278 l 813 -278 m 926 -176 l 959 -176 l 1051 -78 l 1051 653 l 912 653 l 912 653 l 1051 653 l 1051 -78 l 959 -176 l 926 -176 l 926 -176 m 953 858 l 953 1042 l 1149 1042 l 1149 858 l 953 858 m 1052 939 l 1051 939 l 1051 972 l 1052 972 l 1052 939 z "},"Ṉ":{"ha":799,"x_min":76,"x_max":723,"o":"m 174 99 l 174 99 l 174 874 l 366 874 l 435 99 l 624 99 l 624 874 l 625 874 l 625 99 l 435 99 l 366 874 l 174 874 l 174 99 m 76 0 l 76 972 l 444 972 l 513 199 l 526 199 l 526 972 l 723 972 l 723 0 l 356 0 l 285 775 l 273 775 l 273 0 l 76 0 m 183 -226 l 183 -49 l 622 -49 l 622 -226 l 183 -226 m 273 -139 l 540 -139 l 540 -139 l 273 -139 l 273 -139 z "},"Ñ":{"ha":799,"x_min":76,"x_max":723,"o":"m 174 99 l 174 99 l 174 874 l 366 874 l 435 99 l 624 99 l 624 874 l 625 874 l 625 99 l 435 99 l 366 874 l 174 874 l 174 99 m 76 0 l 76 972 l 444 972 l 513 199 l 526 199 l 526 972 l 723 972 l 723 0 l 356 0 l 285 775 l 273 775 l 273 0 l 76 0 m 208 994 l 208 1089 l 286 1167 l 410 1167 l 449 1128 l 461 1128 l 461 1167 l 594 1167 l 594 1072 l 517 994 l 393 994 l 354 1033 l 342 1033 l 342 994 l 208 994 m 277 1043 l 276 1043 l 276 1057 l 322 1107 l 379 1107 l 424 1056 l 485 1056 l 531 1106 l 531 1119 l 531 1119 l 531 1106 l 485 1056 l 424 1056 l 379 1107 l 322 1107 l 277 1057 l 277 1043 z "},"Ŋ":{"ha":847,"x_min":65,"x_max":781,"o":"m 403 -278 l 403 -82 l 529 -82 l 585 -26 l 585 7 l 262 563 l 262 0 l 65 0 l 65 972 l 258 972 l 585 410 l 585 972 l 781 972 l 781 -135 l 638 -278 l 403 -278 m 528 -175 l 596 -175 l 685 -82 l 685 874 l 685 874 l 685 42 l 199 874 l 163 874 l 163 99 l 163 99 l 163 874 l 199 874 l 685 42 l 685 -82 l 596 -175 l 528 -175 l 528 -175 z "},"O":{"ha":682,"x_min":69,"x_max":613,"o":"m 213 0 l 69 143 l 69 829 l 213 972 l 469 972 l 613 829 l 613 143 l 469 0 l 213 0 m 308 197 l 374 197 l 416 239 l 416 733 l 374 776 l 308 776 l 266 733 l 266 239 l 308 197 m 263 99 l 421 99 l 514 192 l 514 781 l 421 874 l 263 874 l 170 781 l 170 192 l 263 99 m 263 99 l 170 192 l 170 781 l 263 874 l 421 874 l 514 781 l 514 192 l 421 99 l 263 99 z "},"Ó":{"ha":682,"x_min":69,"x_max":624,"o":"m 213 0 l 69 143 l 69 829 l 213 972 l 469 972 l 613 829 l 613 143 l 469 0 l 213 0 m 308 197 l 374 197 l 416 239 l 416 733 l 374 776 l 308 776 l 266 733 l 266 239 l 308 197 m 263 99 l 421 99 l 514 192 l 514 781 l 421 874 l 263 874 l 170 781 l 170 192 l 263 99 m 263 99 l 170 192 l 170 781 l 263 874 l 421 874 l 514 781 l 514 192 l 421 99 l 263 99 m 256 994 l 425 1178 l 624 1178 l 427 994 l 256 994 m 388 1042 l 387 1042 l 470 1129 l 471 1129 l 388 1042 z "},"Ŏ":{"ha":682,"x_min":69,"x_max":613,"o":"m 213 0 l 69 143 l 69 829 l 213 972 l 469 972 l 613 829 l 613 143 l 469 0 l 213 0 m 308 197 l 374 197 l 416 239 l 416 733 l 374 776 l 308 776 l 266 733 l 266 239 l 308 197 m 263 99 l 421 99 l 514 192 l 514 781 l 421 874 l 263 874 l 170 781 l 170 192 l 263 99 m 263 99 l 170 192 l 170 781 l 263 874 l 421 874 l 514 781 l 514 192 l 421 99 l 263 99 m 258 994 l 181 1072 l 181 1181 l 314 1181 l 314 1128 l 368 1128 l 368 1181 l 501 1181 l 501 1072 l 424 994 l 258 994 m 294 1056 l 389 1056 l 435 1106 l 435 1124 l 435 1124 l 435 1106 l 389 1056 l 294 1056 l 249 1106 l 249 1124 l 249 1124 l 249 1106 l 294 1056 z "},"Ǒ":{"ha":682,"x_min":69,"x_max":613,"o":"m 213 0 l 69 143 l 69 829 l 213 972 l 469 972 l 613 829 l 613 143 l 469 0 l 213 0 m 308 197 l 374 197 l 416 239 l 416 733 l 374 776 l 308 776 l 266 733 l 266 239 l 308 197 m 263 99 l 421 99 l 514 192 l 514 781 l 421 874 l 263 874 l 170 781 l 170 192 l 263 99 m 263 99 l 170 192 l 170 781 l 263 874 l 421 874 l 514 781 l 514 192 l 421 99 l 263 99 m 253 994 l 98 1192 l 290 1192 l 341 1117 l 392 1192 l 584 1192 l 428 994 l 253 994 m 300 1049 l 379 1049 l 438 1129 l 438 1129 l 379 1049 l 300 1049 l 241 1129 l 241 1129 l 300 1049 z "},"Ô":{"ha":682,"x_min":69,"x_max":613,"o":"m 213 0 l 69 143 l 69 829 l 213 972 l 469 972 l 613 829 l 613 143 l 469 0 l 213 0 m 308 197 l 374 197 l 416 239 l 416 733 l 374 776 l 308 776 l 266 733 l 266 239 l 308 197 m 263 99 l 421 99 l 514 192 l 514 781 l 421 874 l 263 874 l 170 781 l 170 192 l 263 99 m 263 99 l 170 192 l 170 781 l 263 874 l 421 874 l 514 781 l 514 192 l 421 99 l 263 99 m 253 1192 l 428 1192 l 584 994 l 392 994 l 341 1069 l 290 994 l 98 994 l 253 1192 m 300 1138 l 241 1057 l 241 1057 l 300 1138 l 379 1138 l 438 1057 l 438 1057 l 379 1138 l 300 1138 z "},"Ố":{"ha":682,"x_min":69,"x_max":846,"o":"m 213 0 l 69 143 l 69 829 l 213 972 l 469 972 l 613 829 l 613 143 l 469 0 l 213 0 m 308 197 l 374 197 l 416 239 l 416 733 l 374 776 l 308 776 l 266 733 l 266 239 l 308 197 m 263 99 l 421 99 l 514 192 l 514 781 l 421 874 l 263 874 l 170 781 l 170 192 l 263 99 m 263 99 l 170 192 l 170 781 l 263 874 l 421 874 l 514 781 l 514 192 l 421 99 l 263 99 m 253 1192 l 428 1192 l 584 994 l 392 994 l 341 1069 l 290 994 l 98 994 l 253 1192 m 300 1138 l 241 1057 l 241 1057 l 300 1138 l 379 1138 l 438 1057 l 438 1057 l 379 1138 l 300 1138 m 477 1153 l 647 1336 l 846 1336 l 649 1153 l 477 1153 m 609 1200 l 608 1200 l 692 1288 l 692 1288 l 609 1200 z "},"Ộ":{"ha":682,"x_min":69,"x_max":613,"o":"m 213 0 l 69 143 l 69 829 l 213 972 l 469 972 l 613 829 l 613 143 l 469 0 l 213 0 m 308 197 l 374 197 l 416 239 l 416 733 l 374 776 l 308 776 l 266 733 l 266 239 l 308 197 m 263 99 l 421 99 l 514 192 l 514 781 l 421 874 l 263 874 l 170 781 l 170 192 l 263 99 m 263 99 l 170 192 l 170 781 l 263 874 l 421 874 l 514 781 l 514 192 l 421 99 l 263 99 m 267 -188 l 267 -42 l 415 -42 l 415 -188 l 267 -188 m 340 -126 l 340 -126 l 340 -106 l 340 -106 l 340 -126 m 253 1192 l 428 1192 l 584 994 l 392 994 l 341 1069 l 290 994 l 98 994 l 253 1192 m 300 1138 l 241 1057 l 241 1057 l 300 1138 l 379 1138 l 438 1057 l 438 1057 l 379 1138 l 300 1138 z "},"Ồ":{"ha":682,"x_min":69,"x_max":680,"o":"m 213 0 l 69 143 l 69 829 l 213 972 l 469 972 l 613 829 l 613 143 l 469 0 l 213 0 m 308 197 l 374 197 l 416 239 l 416 733 l 374 776 l 308 776 l 266 733 l 266 239 l 308 197 m 263 99 l 421 99 l 514 192 l 514 781 l 421 874 l 263 874 l 170 781 l 170 192 l 263 99 m 263 99 l 170 192 l 170 781 l 263 874 l 421 874 l 514 781 l 514 192 l 421 99 l 263 99 m 253 1192 l 428 1192 l 584 994 l 392 994 l 341 1069 l 290 994 l 98 994 l 253 1192 m 300 1138 l 241 1057 l 241 1057 l 300 1138 l 379 1138 l 438 1057 l 438 1057 l 379 1138 l 300 1138 m 680 1153 l 508 1153 l 311 1336 l 510 1336 l 680 1153 m 548 1200 l 465 1288 l 465 1288 l 549 1200 l 548 1200 z "},"Ổ":{"ha":682,"x_min":69,"x_max":770,"o":"m 213 0 l 69 143 l 69 829 l 213 972 l 469 972 l 613 829 l 613 143 l 469 0 l 213 0 m 308 197 l 374 197 l 416 239 l 416 733 l 374 776 l 308 776 l 266 733 l 266 239 l 308 197 m 263 99 l 421 99 l 514 192 l 514 781 l 421 874 l 263 874 l 170 781 l 170 192 l 263 99 m 263 99 l 170 192 l 170 781 l 263 874 l 421 874 l 514 781 l 514 192 l 421 99 l 263 99 m 253 1192 l 428 1192 l 584 994 l 392 994 l 341 1069 l 290 994 l 98 994 l 253 1192 m 300 1138 l 241 1057 l 241 1057 l 300 1138 l 379 1138 l 438 1057 l 438 1057 l 379 1138 l 300 1138 m 438 1388 l 657 1388 l 770 1257 l 657 1127 l 488 1127 l 488 1236 l 581 1236 l 601 1257 l 581 1279 l 438 1279 l 438 1388 m 512 1335 l 512 1335 l 621 1335 l 689 1257 l 621 1181 l 562 1181 l 562 1181 l 621 1181 l 689 1257 l 621 1335 l 512 1335 z "},"Ỗ":{"ha":682,"x_min":69,"x_max":613,"o":"m 213 0 l 69 143 l 69 829 l 213 972 l 469 972 l 613 829 l 613 143 l 469 0 l 213 0 m 308 197 l 374 197 l 416 239 l 416 733 l 374 776 l 308 776 l 266 733 l 266 239 l 308 197 m 263 99 l 421 99 l 514 192 l 514 781 l 421 874 l 263 874 l 170 781 l 170 192 l 263 99 m 263 99 l 170 192 l 170 781 l 263 874 l 421 874 l 514 781 l 514 192 l 421 99 l 263 99 m 253 1192 l 428 1192 l 584 994 l 392 994 l 341 1069 l 290 994 l 98 994 l 253 1192 m 300 1138 l 241 1057 l 241 1057 l 300 1138 l 379 1138 l 438 1057 l 438 1057 l 379 1138 l 300 1138 m 147 1214 l 147 1308 l 225 1386 l 349 1386 l 388 1347 l 400 1347 l 400 1386 l 533 1386 l 533 1292 l 456 1214 l 332 1214 l 293 1253 l 281 1253 l 281 1214 l 147 1214 m 216 1263 l 215 1263 l 215 1276 l 261 1326 l 318 1326 l 363 1275 l 424 1275 l 469 1325 l 469 1339 l 470 1339 l 470 1325 l 424 1275 l 363 1275 l 318 1326 l 261 1326 l 216 1276 l 216 1263 z "},"Ȍ":{"ha":682,"x_min":-72,"x_max":613,"o":"m 213 0 l 69 143 l 69 829 l 213 972 l 469 972 l 613 829 l 613 143 l 469 0 l 213 0 m 308 197 l 374 197 l 416 239 l 416 733 l 374 776 l 308 776 l 266 733 l 266 239 l 308 197 m 263 99 l 421 99 l 514 192 l 514 781 l 421 874 l 263 874 l 170 781 l 170 192 l 263 99 m 263 99 l 170 192 l 170 781 l 263 874 l 421 874 l 514 781 l 514 192 l 421 99 l 263 99 m 569 994 l 397 994 l 200 1178 l 399 1178 l 569 994 m 437 1042 l 353 1129 l 354 1129 l 438 1042 l 437 1042 m 297 994 l 125 994 l -72 1178 l 127 1178 l 297 994 m 165 1042 l 81 1129 l 82 1129 l 165 1042 l 165 1042 z "},"Ö":{"ha":682,"x_min":69,"x_max":613,"o":"m 213 0 l 69 143 l 69 829 l 213 972 l 469 972 l 613 829 l 613 143 l 469 0 l 213 0 m 308 197 l 374 197 l 416 239 l 416 733 l 374 776 l 308 776 l 266 733 l 266 239 l 308 197 m 263 99 l 421 99 l 514 192 l 514 781 l 421 874 l 263 874 l 170 781 l 170 192 l 263 99 m 263 99 l 170 192 l 170 781 l 263 874 l 421 874 l 514 781 l 514 192 l 421 99 l 263 99 m 413 1008 l 413 1154 l 560 1154 l 560 1008 l 413 1008 m 124 1008 l 124 1154 l 271 1154 l 271 1008 l 124 1008 m 197 1074 l 196 1074 l 196 1088 l 197 1088 l 197 1074 m 487 1074 l 486 1074 l 486 1088 l 487 1088 l 487 1074 z "},"Ȫ":{"ha":682,"x_min":69,"x_max":613,"o":"m 213 0 l 69 143 l 69 829 l 213 972 l 469 972 l 613 829 l 613 143 l 469 0 l 213 0 m 308 197 l 374 197 l 416 239 l 416 733 l 374 776 l 308 776 l 266 733 l 266 239 l 308 197 m 263 99 l 421 99 l 514 192 l 514 781 l 421 874 l 263 874 l 170 781 l 170 192 l 263 99 m 263 99 l 170 192 l 170 781 l 263 874 l 421 874 l 514 781 l 514 192 l 421 99 l 263 99 m 413 1008 l 413 1154 l 560 1154 l 560 1008 l 413 1008 m 124 1008 l 124 1154 l 271 1154 l 271 1008 l 124 1008 m 197 1074 l 196 1074 l 196 1088 l 197 1088 l 197 1074 m 487 1074 l 486 1074 l 486 1088 l 487 1088 l 487 1074 m 122 1176 l 122 1353 l 560 1353 l 560 1176 l 122 1176 m 212 1263 l 478 1263 l 478 1263 l 212 1263 l 212 1263 z "},"Ȱ":{"ha":682,"x_min":69,"x_max":613,"o":"m 213 0 l 69 143 l 69 829 l 213 972 l 469 972 l 613 829 l 613 143 l 469 0 l 213 0 m 308 197 l 374 197 l 416 239 l 416 733 l 374 776 l 308 776 l 266 733 l 266 239 l 308 197 m 263 99 l 421 99 l 514 192 l 514 781 l 421 874 l 263 874 l 170 781 l 170 192 l 263 99 m 263 99 l 170 192 l 170 781 l 263 874 l 421 874 l 514 781 l 514 192 l 421 99 l 263 99 m 268 1008 l 268 1154 l 415 1154 l 415 1008 l 268 1008 m 341 1071 l 340 1071 l 340 1090 l 341 1090 l 341 1071 m 122 1176 l 122 1353 l 560 1353 l 560 1176 l 122 1176 m 212 1263 l 478 1263 l 478 1263 l 212 1263 l 212 1263 z "},"Ọ":{"ha":682,"x_min":69,"x_max":613,"o":"m 213 0 l 69 143 l 69 829 l 213 972 l 469 972 l 613 829 l 613 143 l 469 0 l 213 0 m 308 197 l 374 197 l 416 239 l 416 733 l 374 776 l 308 776 l 266 733 l 266 239 l 308 197 m 263 99 l 421 99 l 514 192 l 514 781 l 421 874 l 263 874 l 170 781 l 170 192 l 263 99 m 263 99 l 170 192 l 170 781 l 263 874 l 421 874 l 514 781 l 514 192 l 421 99 l 263 99 m 267 -188 l 267 -42 l 415 -42 l 415 -188 l 267 -188 m 340 -126 l 340 -126 l 340 -106 l 340 -106 l 340 -126 z "},"Ò":{"ha":682,"x_min":69,"x_max":613,"o":"m 213 0 l 69 143 l 69 829 l 213 972 l 469 972 l 613 829 l 613 143 l 469 0 l 213 0 m 308 197 l 374 197 l 416 239 l 416 733 l 374 776 l 308 776 l 266 733 l 266 239 l 308 197 m 263 99 l 421 99 l 514 192 l 514 781 l 421 874 l 263 874 l 170 781 l 170 192 l 263 99 m 263 99 l 170 192 l 170 781 l 263 874 l 421 874 l 514 781 l 514 192 l 421 99 l 263 99 m 442 994 l 270 994 l 73 1178 l 272 1178 l 442 994 m 310 1042 l 226 1129 l 227 1129 l 310 1042 l 310 1042 z "},"Ỏ":{"ha":682,"x_min":69,"x_max":613,"o":"m 213 0 l 69 143 l 69 829 l 213 972 l 469 972 l 613 829 l 613 143 l 469 0 l 213 0 m 308 197 l 374 197 l 416 239 l 416 733 l 374 776 l 308 776 l 266 733 l 266 239 l 308 197 m 263 99 l 421 99 l 514 192 l 514 781 l 421 874 l 263 874 l 170 781 l 170 192 l 263 99 m 263 99 l 170 192 l 170 781 l 263 874 l 421 874 l 514 781 l 514 192 l 421 99 l 263 99 m 175 1251 l 394 1251 l 507 1120 l 394 990 l 224 990 l 224 1099 l 317 1099 l 338 1120 l 317 1142 l 175 1142 l 175 1251 m 249 1198 l 249 1198 l 358 1198 l 426 1120 l 358 1044 l 299 1044 l 299 1044 l 358 1044 l 426 1120 l 358 1198 l 249 1198 z "},"Ơ":{"ha":826,"x_min":69,"x_max":847,"o":"m 308 197 l 374 197 l 416 239 l 416 733 l 374 776 l 308 776 l 266 733 l 266 239 l 308 197 m 263 99 l 421 99 l 514 192 l 514 781 l 421 874 l 263 874 l 170 781 l 170 192 l 263 99 m 263 99 l 170 192 l 170 781 l 263 874 l 421 874 l 514 781 l 514 192 l 421 99 l 263 99 m 767 889 l 767 805 l 695 727 l 514 727 l 514 727 l 695 727 l 767 805 l 767 889 l 767 889 m 688 941 l 847 941 l 847 803 l 733 673 l 613 673 l 613 143 l 469 0 l 213 0 l 69 143 l 69 829 l 213 972 l 469 972 l 613 829 l 613 782 l 657 782 l 688 813 l 688 941 z "},"Ớ":{"ha":826,"x_min":69,"x_max":847,"o":"m 308 197 l 374 197 l 416 239 l 416 733 l 374 776 l 308 776 l 266 733 l 266 239 l 308 197 m 263 99 l 421 99 l 514 192 l 514 781 l 421 874 l 263 874 l 170 781 l 170 192 l 263 99 m 263 99 l 170 192 l 170 781 l 263 874 l 421 874 l 514 781 l 514 192 l 421 99 l 263 99 m 767 889 l 767 805 l 695 727 l 514 727 l 514 727 l 695 727 l 767 805 l 767 889 l 767 889 m 688 941 l 847 941 l 847 803 l 733 673 l 613 673 l 613 143 l 469 0 l 213 0 l 69 143 l 69 829 l 213 972 l 469 972 l 613 829 l 613 782 l 657 782 l 688 813 l 688 941 m 256 994 l 425 1178 l 624 1178 l 427 994 l 256 994 m 388 1042 l 387 1042 l 470 1129 l 471 1129 l 388 1042 z "},"Ợ":{"ha":826,"x_min":69,"x_max":847,"o":"m 308 197 l 374 197 l 416 239 l 416 733 l 374 776 l 308 776 l 266 733 l 266 239 l 308 197 m 263 99 l 421 99 l 514 192 l 514 781 l 421 874 l 263 874 l 170 781 l 170 192 l 263 99 m 263 99 l 170 192 l 170 781 l 263 874 l 421 874 l 514 781 l 514 192 l 421 99 l 263 99 m 767 889 l 767 805 l 695 727 l 514 727 l 514 727 l 695 727 l 767 805 l 767 889 l 767 889 m 688 941 l 847 941 l 847 803 l 733 673 l 613 673 l 613 143 l 469 0 l 213 0 l 69 143 l 69 829 l 213 972 l 469 972 l 613 829 l 613 782 l 657 782 l 688 813 l 688 941 m 267 -188 l 267 -42 l 415 -42 l 415 -188 l 267 -188 m 340 -126 l 340 -126 l 340 -106 l 340 -106 l 340 -126 z "},"Ờ":{"ha":826,"x_min":69,"x_max":847,"o":"m 308 197 l 374 197 l 416 239 l 416 733 l 374 776 l 308 776 l 266 733 l 266 239 l 308 197 m 263 99 l 421 99 l 514 192 l 514 781 l 421 874 l 263 874 l 170 781 l 170 192 l 263 99 m 263 99 l 170 192 l 170 781 l 263 874 l 421 874 l 514 781 l 514 192 l 421 99 l 263 99 m 767 889 l 767 805 l 695 727 l 514 727 l 514 727 l 695 727 l 767 805 l 767 889 l 767 889 m 688 941 l 847 941 l 847 803 l 733 673 l 613 673 l 613 143 l 469 0 l 213 0 l 69 143 l 69 829 l 213 972 l 469 972 l 613 829 l 613 782 l 657 782 l 688 813 l 688 941 m 442 994 l 270 994 l 73 1178 l 272 1178 l 442 994 m 310 1042 l 226 1129 l 227 1129 l 310 1042 l 310 1042 z "},"Ở":{"ha":826,"x_min":69,"x_max":847,"o":"m 308 197 l 374 197 l 416 239 l 416 733 l 374 776 l 308 776 l 266 733 l 266 239 l 308 197 m 263 99 l 421 99 l 514 192 l 514 781 l 421 874 l 263 874 l 170 781 l 170 192 l 263 99 m 263 99 l 170 192 l 170 781 l 263 874 l 421 874 l 514 781 l 514 192 l 421 99 l 263 99 m 767 889 l 767 805 l 695 727 l 514 727 l 514 727 l 695 727 l 767 805 l 767 889 l 767 889 m 688 941 l 847 941 l 847 803 l 733 673 l 613 673 l 613 143 l 469 0 l 213 0 l 69 143 l 69 829 l 213 972 l 469 972 l 613 829 l 613 782 l 657 782 l 688 813 l 688 941 m 175 1251 l 394 1251 l 507 1120 l 394 990 l 224 990 l 224 1099 l 317 1099 l 338 1120 l 317 1142 l 175 1142 l 175 1251 m 249 1198 l 249 1198 l 358 1198 l 426 1120 l 358 1044 l 299 1044 l 299 1044 l 358 1044 l 426 1120 l 358 1198 l 249 1198 z "},"Ỡ":{"ha":826,"x_min":69,"x_max":847,"o":"m 308 197 l 374 197 l 416 239 l 416 733 l 374 776 l 308 776 l 266 733 l 266 239 l 308 197 m 263 99 l 421 99 l 514 192 l 514 781 l 421 874 l 263 874 l 170 781 l 170 192 l 263 99 m 263 99 l 170 192 l 170 781 l 263 874 l 421 874 l 514 781 l 514 192 l 421 99 l 263 99 m 767 889 l 767 805 l 695 727 l 514 727 l 514 727 l 695 727 l 767 805 l 767 889 l 767 889 m 688 941 l 847 941 l 847 803 l 733 673 l 613 673 l 613 143 l 469 0 l 213 0 l 69 143 l 69 829 l 213 972 l 469 972 l 613 829 l 613 782 l 657 782 l 688 813 l 688 941 m 147 994 l 147 1089 l 225 1167 l 349 1167 l 388 1128 l 400 1128 l 400 1167 l 533 1167 l 533 1072 l 456 994 l 332 994 l 293 1033 l 281 1033 l 281 994 l 147 994 m 216 1043 l 215 1043 l 215 1057 l 261 1107 l 318 1107 l 363 1056 l 424 1056 l 469 1106 l 469 1119 l 470 1119 l 470 1106 l 424 1056 l 363 1056 l 318 1107 l 261 1107 l 216 1057 l 216 1043 z "},"Ő":{"ha":682,"x_min":69,"x_max":669,"o":"m 213 0 l 69 143 l 69 829 l 213 972 l 469 972 l 613 829 l 613 143 l 469 0 l 213 0 m 308 197 l 374 197 l 416 239 l 416 733 l 374 776 l 308 776 l 266 733 l 266 239 l 308 197 m 263 99 l 421 99 l 514 192 l 514 781 l 421 874 l 263 874 l 170 781 l 170 192 l 263 99 m 263 99 l 170 192 l 170 781 l 263 874 l 421 874 l 514 781 l 514 192 l 421 99 l 263 99 m 369 994 l 470 1178 l 669 1178 l 534 994 l 369 994 m 232 1038 l 231 1038 l 290 1128 l 290 1128 l 232 1038 m 125 994 l 226 1178 l 425 1178 l 290 994 l 125 994 m 476 1038 l 476 1038 l 534 1128 l 535 1128 l 476 1038 z "},"Ȏ":{"ha":682,"x_min":69,"x_max":613,"o":"m 213 0 l 69 143 l 69 829 l 213 972 l 469 972 l 613 829 l 613 143 l 469 0 l 213 0 m 308 197 l 374 197 l 416 239 l 416 733 l 374 776 l 308 776 l 266 733 l 266 239 l 308 197 m 263 99 l 421 99 l 514 192 l 514 781 l 421 874 l 263 874 l 170 781 l 170 192 l 263 99 m 263 99 l 170 192 l 170 781 l 263 874 l 421 874 l 514 781 l 514 192 l 421 99 l 263 99 m 424 1180 l 501 1102 l 501 994 l 368 994 l 368 1047 l 314 1047 l 314 994 l 181 994 l 181 1102 l 258 1180 l 424 1180 m 388 1119 l 293 1119 l 247 1069 l 247 1051 l 247 1051 l 247 1069 l 293 1119 l 388 1119 l 433 1069 l 433 1051 l 433 1051 l 433 1069 l 388 1119 z "},"Ō":{"ha":682,"x_min":69,"x_max":613,"o":"m 213 0 l 69 143 l 69 829 l 213 972 l 469 972 l 613 829 l 613 143 l 469 0 l 213 0 m 308 197 l 374 197 l 416 239 l 416 733 l 374 776 l 308 776 l 266 733 l 266 239 l 308 197 m 263 99 l 421 99 l 514 192 l 514 781 l 421 874 l 263 874 l 170 781 l 170 192 l 263 99 m 263 99 l 170 192 l 170 781 l 263 874 l 421 874 l 514 781 l 514 192 l 421 99 l 263 99 m 122 994 l 122 1172 l 560 1172 l 560 994 l 122 994 m 212 1081 l 478 1081 l 478 1081 l 212 1081 l 212 1081 z "},"Ṓ":{"ha":682,"x_min":69,"x_max":624,"o":"m 213 0 l 69 143 l 69 829 l 213 972 l 469 972 l 613 829 l 613 143 l 469 0 l 213 0 m 308 197 l 374 197 l 416 239 l 416 733 l 374 776 l 308 776 l 266 733 l 266 239 l 308 197 m 263 99 l 421 99 l 514 192 l 514 781 l 421 874 l 263 874 l 170 781 l 170 192 l 263 99 m 263 99 l 170 192 l 170 781 l 263 874 l 421 874 l 514 781 l 514 192 l 421 99 l 263 99 m 122 994 l 122 1172 l 560 1172 l 560 994 l 122 994 m 212 1081 l 478 1081 l 478 1081 l 212 1081 l 212 1081 m 256 1194 l 425 1377 l 624 1377 l 427 1194 l 256 1194 m 388 1241 l 387 1241 l 470 1328 l 471 1328 l 388 1241 z "},"Ṑ":{"ha":682,"x_min":69,"x_max":613,"o":"m 213 0 l 69 143 l 69 829 l 213 972 l 469 972 l 613 829 l 613 143 l 469 0 l 213 0 m 308 197 l 374 197 l 416 239 l 416 733 l 374 776 l 308 776 l 266 733 l 266 239 l 308 197 m 263 99 l 421 99 l 514 192 l 514 781 l 421 874 l 263 874 l 170 781 l 170 192 l 263 99 m 263 99 l 170 192 l 170 781 l 263 874 l 421 874 l 514 781 l 514 192 l 421 99 l 263 99 m 122 994 l 122 1172 l 560 1172 l 560 994 l 122 994 m 212 1081 l 478 1081 l 478 1081 l 212 1081 l 212 1081 m 442 1194 l 270 1194 l 73 1377 l 272 1377 l 442 1194 m 310 1241 l 226 1328 l 227 1328 l 310 1241 l 310 1241 z "},"Ǫ":{"ha":835,"x_min":69,"x_max":765,"o":"m 308 197 l 526 197 l 569 239 l 569 733 l 526 776 l 308 776 l 266 733 l 266 239 l 308 197 m 263 99 l 574 99 l 667 192 l 667 781 l 574 874 l 263 874 l 170 781 l 170 192 l 263 99 m 263 99 l 170 192 l 170 781 l 263 874 l 574 874 l 667 781 l 667 192 l 574 99 l 263 99 m 526 99 l 317 -125 l 383 -201 l 527 -201 l 527 -201 l 383 -201 l 317 -125 l 526 99 l 526 99 m 622 972 l 765 829 l 765 143 l 622 0 l 514 0 l 389 -125 l 410 -147 l 573 -147 l 573 -256 l 361 -256 l 248 -125 l 358 0 l 213 0 l 69 143 l 69 829 l 213 972 l 622 972 z "},"Ø":{"ha":944,"x_min":65,"x_max":880,"o":"m 201 -37 l 65 60 l 115 131 l 101 143 l 101 829 l 244 972 l 692 972 l 703 961 l 743 1017 l 880 922 l 823 841 l 835 829 l 835 143 l 692 0 l 244 0 l 235 10 l 201 -37 m 366 197 l 596 197 l 638 239 l 638 581 l 366 197 m 287 90 l 228 146 l 713 831 l 748 794 l 748 183 l 651 90 l 287 90 m 165 57 l 228 146 l 287 90 l 651 90 l 748 183 l 748 794 l 713 831 l 771 917 l 771 917 l 713 831 l 651 890 l 287 890 l 190 794 l 190 183 l 228 146 l 165 57 l 165 57 m 228 146 l 190 183 l 190 794 l 287 890 l 651 890 l 713 831 l 228 146 m 298 389 l 572 776 l 341 776 l 298 733 l 298 389 z "},"Ǿ":{"ha":944,"x_min":65,"x_max":880,"o":"m 201 -37 l 65 60 l 115 131 l 101 143 l 101 829 l 244 972 l 692 972 l 703 961 l 743 1017 l 880 922 l 823 841 l 835 829 l 835 143 l 692 0 l 244 0 l 235 10 l 201 -37 m 366 197 l 596 197 l 638 239 l 638 581 l 366 197 m 287 90 l 228 146 l 713 831 l 748 794 l 748 183 l 651 90 l 287 90 m 165 57 l 228 146 l 287 90 l 651 90 l 748 183 l 748 794 l 713 831 l 771 917 l 771 917 l 713 831 l 651 890 l 287 890 l 190 794 l 190 183 l 228 146 l 165 57 l 165 57 m 228 146 l 190 183 l 190 794 l 287 890 l 651 890 l 713 831 l 228 146 m 298 389 l 572 776 l 341 776 l 298 733 l 298 389 m 376 994 l 546 1178 l 745 1178 l 548 994 l 376 994 m 508 1042 l 508 1042 l 591 1129 l 592 1129 l 508 1042 z "},"Õ":{"ha":682,"x_min":69,"x_max":613,"o":"m 213 0 l 69 143 l 69 829 l 213 972 l 469 972 l 613 829 l 613 143 l 469 0 l 213 0 m 308 197 l 374 197 l 416 239 l 416 733 l 374 776 l 308 776 l 266 733 l 266 239 l 308 197 m 263 99 l 421 99 l 514 192 l 514 781 l 421 874 l 263 874 l 170 781 l 170 192 l 263 99 m 263 99 l 170 192 l 170 781 l 263 874 l 421 874 l 514 781 l 514 192 l 421 99 l 263 99 m 147 994 l 147 1089 l 225 1167 l 349 1167 l 388 1128 l 400 1128 l 400 1167 l 533 1167 l 533 1072 l 456 994 l 332 994 l 293 1033 l 281 1033 l 281 994 l 147 994 m 216 1043 l 215 1043 l 215 1057 l 261 1107 l 318 1107 l 363 1056 l 424 1056 l 469 1106 l 469 1119 l 470 1119 l 470 1106 l 424 1056 l 363 1056 l 318 1107 l 261 1107 l 216 1057 l 216 1043 z "},"Ṍ":{"ha":682,"x_min":69,"x_max":624,"o":"m 213 0 l 69 143 l 69 829 l 213 972 l 469 972 l 613 829 l 613 143 l 469 0 l 213 0 m 308 197 l 374 197 l 416 239 l 416 733 l 374 776 l 308 776 l 266 733 l 266 239 l 308 197 m 263 99 l 421 99 l 514 192 l 514 781 l 421 874 l 263 874 l 170 781 l 170 192 l 263 99 m 263 99 l 170 192 l 170 781 l 263 874 l 421 874 l 514 781 l 514 192 l 421 99 l 263 99 m 147 994 l 147 1089 l 225 1167 l 349 1167 l 388 1128 l 400 1128 l 400 1167 l 533 1167 l 533 1072 l 456 994 l 332 994 l 293 1033 l 281 1033 l 281 994 l 147 994 m 216 1043 l 215 1043 l 215 1057 l 261 1107 l 318 1107 l 363 1056 l 424 1056 l 469 1106 l 469 1119 l 470 1119 l 470 1106 l 424 1056 l 363 1056 l 318 1107 l 261 1107 l 216 1057 l 216 1043 m 256 1189 l 425 1372 l 624 1372 l 427 1189 l 256 1189 m 388 1236 l 387 1236 l 470 1324 l 471 1324 l 388 1236 z "},"Ṏ":{"ha":682,"x_min":69,"x_max":613,"o":"m 213 0 l 69 143 l 69 829 l 213 972 l 469 972 l 613 829 l 613 143 l 469 0 l 213 0 m 308 197 l 374 197 l 416 239 l 416 733 l 374 776 l 308 776 l 266 733 l 266 239 l 308 197 m 263 99 l 421 99 l 514 192 l 514 781 l 421 874 l 263 874 l 170 781 l 170 192 l 263 99 m 263 99 l 170 192 l 170 781 l 263 874 l 421 874 l 514 781 l 514 192 l 421 99 l 263 99 m 147 994 l 147 1089 l 225 1167 l 349 1167 l 388 1128 l 400 1128 l 400 1167 l 533 1167 l 533 1072 l 456 994 l 332 994 l 293 1033 l 281 1033 l 281 994 l 147 994 m 216 1043 l 215 1043 l 215 1057 l 261 1107 l 318 1107 l 363 1056 l 424 1056 l 469 1106 l 469 1119 l 470 1119 l 470 1106 l 424 1056 l 363 1056 l 318 1107 l 261 1107 l 216 1057 l 216 1043 m 413 1203 l 413 1349 l 560 1349 l 560 1203 l 413 1203 m 124 1203 l 124 1349 l 271 1349 l 271 1203 l 124 1203 m 197 1268 l 196 1268 l 196 1282 l 197 1282 l 197 1268 m 487 1268 l 486 1268 l 486 1282 l 487 1282 l 487 1268 z "},"Ȭ":{"ha":682,"x_min":69,"x_max":613,"o":"m 213 0 l 69 143 l 69 829 l 213 972 l 469 972 l 613 829 l 613 143 l 469 0 l 213 0 m 308 197 l 374 197 l 416 239 l 416 733 l 374 776 l 308 776 l 266 733 l 266 239 l 308 197 m 263 99 l 421 99 l 514 192 l 514 781 l 421 874 l 263 874 l 170 781 l 170 192 l 263 99 m 263 99 l 170 192 l 170 781 l 263 874 l 421 874 l 514 781 l 514 192 l 421 99 l 263 99 m 147 994 l 147 1089 l 225 1167 l 349 1167 l 388 1128 l 400 1128 l 400 1167 l 533 1167 l 533 1072 l 456 994 l 332 994 l 293 1033 l 281 1033 l 281 994 l 147 994 m 216 1043 l 215 1043 l 215 1057 l 261 1107 l 318 1107 l 363 1056 l 424 1056 l 469 1106 l 469 1119 l 470 1119 l 470 1106 l 424 1056 l 363 1056 l 318 1107 l 261 1107 l 216 1057 l 216 1043 m 122 1188 l 122 1366 l 560 1366 l 560 1188 l 122 1188 m 212 1276 l 478 1276 l 478 1276 l 212 1276 l 212 1276 z "},"Œ":{"ha":1314,"x_min":99,"x_max":1214,"o":"m 242 0 l 99 143 l 99 829 l 242 972 l 1214 972 l 1214 776 l 832 776 l 832 589 l 1187 589 l 1187 392 l 832 392 l 832 197 l 1214 197 l 1214 0 l 242 0 m 296 88 l 196 188 l 196 790 l 296 890 l 647 890 l 738 800 l 738 178 l 647 88 l 296 88 m 338 197 l 593 197 l 635 239 l 635 733 l 593 776 l 338 776 l 295 733 l 295 239 l 338 197 m 296 88 l 647 88 l 738 178 l 738 88 l 1128 88 l 1128 88 l 738 88 l 738 493 l 1100 493 l 1100 493 l 738 493 l 738 890 l 1128 890 l 1128 890 l 738 890 l 738 800 l 647 890 l 296 890 l 196 790 l 196 188 l 296 88 z "},"P":{"ha":640,"x_min":76,"x_max":583,"o":"m 76 0 l 76 972 l 440 972 l 583 829 l 583 447 l 427 290 l 273 290 l 273 0 l 76 0 m 174 99 l 174 99 l 174 392 l 385 392 l 491 498 l 491 781 l 398 874 l 174 874 l 174 99 m 273 487 l 331 487 l 388 542 l 388 733 l 345 776 l 273 776 l 273 487 m 174 392 l 174 874 l 398 874 l 491 781 l 491 498 l 385 392 l 174 392 z "},"Þ":{"ha":765,"x_min":63,"x_max":703,"o":"m 63 0 l 63 972 l 259 972 l 259 750 l 559 750 l 703 607 l 703 365 l 559 222 l 259 222 l 259 0 l 63 0 m 161 85 l 160 85 l 160 324 l 497 324 l 602 426 l 602 567 l 510 656 l 160 656 l 160 890 l 161 890 l 161 85 m 160 323 l 160 656 l 510 656 l 603 567 l 603 426 l 497 323 l 160 323 m 259 419 l 464 419 l 506 461 l 506 511 l 464 554 l 259 554 l 259 419 z "},"Q":{"ha":708,"x_min":69,"x_max":638,"o":"m 505 -168 l 338 0 l 213 0 l 69 143 l 69 829 l 213 972 l 488 972 l 631 829 l 631 143 l 547 59 l 638 -35 l 505 -168 m 519 -47 l 519 -47 l 378 99 l 436 99 l 534 194 l 534 783 l 443 874 l 260 874 l 171 783 l 171 194 l 267 99 l 379 99 l 519 -47 m 308 197 l 392 197 l 435 239 l 435 733 l 392 776 l 308 776 l 266 733 l 266 239 l 308 197 m 267 99 l 170 194 l 170 783 l 260 875 l 443 875 l 535 783 l 535 194 l 436 99 l 267 99 z "},"R":{"ha":666,"x_min":76,"x_max":597,"o":"m 76 0 l 76 972 l 453 972 l 597 829 l 597 528 l 512 450 l 597 358 l 597 0 l 400 0 l 400 288 l 331 358 l 273 358 l 273 0 l 76 0 m 176 99 l 175 99 l 175 460 l 378 460 l 500 324 l 500 99 l 499 99 l 499 324 l 378 460 l 494 566 l 494 785 l 405 874 l 176 874 l 176 99 m 273 554 l 358 554 l 400 597 l 400 733 l 358 776 l 273 776 l 273 554 m 175 460 l 175 875 l 405 875 l 495 785 l 495 566 l 378 460 l 175 460 z "},"Ŕ":{"ha":666,"x_min":76,"x_max":627,"o":"m 76 0 l 76 972 l 453 972 l 597 829 l 597 528 l 512 450 l 597 358 l 597 0 l 400 0 l 400 288 l 331 358 l 273 358 l 273 0 l 76 0 m 176 99 l 175 99 l 175 460 l 378 460 l 500 324 l 500 99 l 499 99 l 499 324 l 378 460 l 494 566 l 494 785 l 405 874 l 176 874 l 176 99 m 273 554 l 358 554 l 400 597 l 400 733 l 358 776 l 273 776 l 273 554 m 175 460 l 175 875 l 405 875 l 495 785 l 495 566 l 378 460 l 175 460 m 258 994 l 428 1178 l 627 1178 l 430 994 l 258 994 m 390 1042 l 390 1042 l 473 1129 l 474 1129 l 390 1042 z "},"Ř":{"ha":666,"x_min":76,"x_max":597,"o":"m 76 0 l 76 972 l 453 972 l 597 829 l 597 528 l 512 450 l 597 358 l 597 0 l 400 0 l 400 288 l 331 358 l 273 358 l 273 0 l 76 0 m 176 99 l 175 99 l 175 460 l 378 460 l 500 324 l 500 99 l 499 99 l 499 324 l 378 460 l 494 566 l 494 785 l 405 874 l 176 874 l 176 99 m 273 554 l 358 554 l 400 597 l 400 733 l 358 776 l 273 776 l 273 554 m 175 460 l 175 875 l 405 875 l 495 785 l 495 566 l 378 460 l 175 460 m 256 994 l 101 1192 l 293 1192 l 344 1117 l 394 1192 l 587 1192 l 431 994 l 256 994 m 303 1049 l 382 1049 l 441 1129 l 441 1129 l 382 1049 l 303 1049 l 244 1129 l 244 1129 l 303 1049 z "},"Ŗ":{"ha":666,"x_min":76,"x_max":597,"o":"m 76 0 l 76 972 l 453 972 l 597 829 l 597 528 l 512 450 l 597 358 l 597 0 l 400 0 l 400 288 l 331 358 l 273 358 l 273 0 l 76 0 m 176 99 l 175 99 l 175 460 l 378 460 l 500 324 l 500 99 l 499 99 l 499 324 l 378 460 l 494 566 l 494 785 l 405 874 l 176 874 l 176 99 m 273 554 l 358 554 l 400 597 l 400 733 l 358 776 l 273 776 l 273 554 m 175 460 l 175 875 l 405 875 l 495 785 l 495 566 l 378 460 l 175 460 m 172 -368 l 251 -50 l 439 -50 l 328 -368 l 172 -368 m 271 -294 l 270 -294 l 317 -142 l 318 -142 l 271 -294 z "},"Ȑ":{"ha":666,"x_min":-69,"x_max":597,"o":"m 76 0 l 76 972 l 453 972 l 597 829 l 597 528 l 512 450 l 597 358 l 597 0 l 400 0 l 400 288 l 331 358 l 273 358 l 273 0 l 76 0 m 176 99 l 175 99 l 175 460 l 378 460 l 500 324 l 500 99 l 499 99 l 499 324 l 378 460 l 494 566 l 494 785 l 405 874 l 176 874 l 176 99 m 273 554 l 358 554 l 400 597 l 400 733 l 358 776 l 273 776 l 273 554 m 175 460 l 175 875 l 405 875 l 495 785 l 495 566 l 378 460 l 175 460 m 572 994 l 400 994 l 203 1178 l 402 1178 l 572 994 m 440 1042 l 356 1129 l 357 1129 l 440 1042 l 440 1042 m 299 994 l 128 994 l -69 1178 l 130 1178 l 299 994 m 167 1042 l 84 1129 l 85 1129 l 168 1042 l 167 1042 z "},"Ṛ":{"ha":666,"x_min":76,"x_max":597,"o":"m 76 0 l 76 972 l 453 972 l 597 829 l 597 528 l 512 450 l 597 358 l 597 0 l 400 0 l 400 288 l 331 358 l 273 358 l 273 0 l 76 0 m 176 99 l 175 99 l 175 460 l 378 460 l 500 324 l 500 99 l 499 99 l 499 324 l 378 460 l 494 566 l 494 785 l 405 874 l 176 874 l 176 99 m 273 554 l 358 554 l 400 597 l 400 733 l 358 776 l 273 776 l 273 554 m 175 460 l 175 875 l 405 875 l 495 785 l 495 566 l 378 460 l 175 460 m 270 -188 l 270 -42 l 417 -42 l 417 -188 l 270 -188 m 343 -126 l 342 -126 l 342 -106 l 343 -106 l 343 -126 z "},"Ȓ":{"ha":666,"x_min":76,"x_max":597,"o":"m 76 0 l 76 972 l 453 972 l 597 829 l 597 528 l 512 450 l 597 358 l 597 0 l 400 0 l 400 288 l 331 358 l 273 358 l 273 0 l 76 0 m 176 99 l 175 99 l 175 460 l 378 460 l 500 324 l 500 99 l 499 99 l 499 324 l 378 460 l 494 566 l 494 785 l 405 874 l 176 874 l 176 99 m 273 554 l 358 554 l 400 597 l 400 733 l 358 776 l 273 776 l 273 554 m 175 460 l 175 875 l 405 875 l 495 785 l 495 566 l 378 460 l 175 460 m 426 1180 l 504 1102 l 504 994 l 371 994 l 371 1047 l 317 1047 l 317 994 l 183 994 l 183 1102 l 261 1180 l 426 1180 m 390 1119 l 296 1119 l 250 1069 l 250 1051 l 250 1051 l 250 1069 l 296 1119 l 390 1119 l 436 1069 l 436 1051 l 436 1051 l 436 1069 l 390 1119 z "},"Ṟ":{"ha":666,"x_min":76,"x_max":597,"o":"m 76 0 l 76 972 l 453 972 l 597 829 l 597 528 l 512 450 l 597 358 l 597 0 l 400 0 l 400 288 l 331 358 l 273 358 l 273 0 l 76 0 m 176 99 l 175 99 l 175 460 l 378 460 l 500 324 l 500 99 l 499 99 l 499 324 l 378 460 l 494 566 l 494 785 l 405 874 l 176 874 l 176 99 m 273 554 l 358 554 l 400 597 l 400 733 l 358 776 l 273 776 l 273 554 m 175 460 l 175 875 l 405 875 l 495 785 l 495 566 l 378 460 l 175 460 m 124 -226 l 124 -49 l 563 -49 l 563 -226 l 124 -226 m 215 -139 l 481 -139 l 481 -139 l 215 -139 l 215 -139 z "},"S":{"ha":679,"x_min":69,"x_max":610,"o":"m 213 0 l 69 143 l 69 318 l 266 318 l 266 239 l 308 197 l 371 197 l 413 239 l 413 346 l 371 388 l 217 388 l 74 531 l 74 829 l 217 972 l 453 972 l 597 829 l 597 654 l 400 654 l 400 733 l 358 776 l 313 776 l 269 733 l 269 627 l 313 585 l 467 585 l 610 442 l 610 143 l 467 0 l 213 0 m 258 99 l 408 99 l 508 194 l 508 403 l 428 485 l 271 485 l 173 587 l 173 783 l 268 874 l 410 874 l 497 783 l 497 744 l 497 744 l 497 783 l 410 874 l 268 874 l 173 783 l 173 587 l 271 485 l 428 485 l 508 403 l 508 194 l 408 99 l 258 99 l 172 181 l 172 228 l 172 228 l 172 181 l 258 99 z "},"Ś":{"ha":679,"x_min":69,"x_max":623,"o":"m 213 0 l 69 143 l 69 318 l 266 318 l 266 239 l 308 197 l 371 197 l 413 239 l 413 346 l 371 388 l 217 388 l 74 531 l 74 829 l 217 972 l 453 972 l 597 829 l 597 654 l 400 654 l 400 733 l 358 776 l 313 776 l 269 733 l 269 627 l 313 585 l 467 585 l 610 442 l 610 143 l 467 0 l 213 0 m 258 99 l 408 99 l 508 194 l 508 403 l 428 485 l 271 485 l 173 587 l 173 783 l 268 874 l 410 874 l 497 783 l 497 744 l 497 744 l 497 783 l 410 874 l 268 874 l 173 783 l 173 587 l 271 485 l 428 485 l 508 403 l 508 194 l 408 99 l 258 99 l 172 181 l 172 228 l 172 228 l 172 181 l 258 99 m 254 994 l 424 1178 l 623 1178 l 426 994 l 254 994 m 386 1042 l 385 1042 l 469 1129 l 469 1129 l 386 1042 z "},"Ṥ":{"ha":679,"x_min":69,"x_max":623,"o":"m 213 0 l 69 143 l 69 318 l 266 318 l 266 239 l 308 197 l 371 197 l 413 239 l 413 346 l 371 388 l 217 388 l 74 531 l 74 829 l 217 972 l 453 972 l 597 829 l 597 654 l 400 654 l 400 733 l 358 776 l 313 776 l 269 733 l 269 627 l 313 585 l 467 585 l 610 442 l 610 143 l 467 0 l 213 0 m 258 99 l 408 99 l 508 194 l 508 403 l 428 485 l 271 485 l 173 587 l 173 783 l 268 874 l 410 874 l 497 783 l 497 744 l 497 744 l 497 783 l 410 874 l 268 874 l 173 783 l 173 587 l 271 485 l 428 485 l 508 403 l 508 194 l 408 99 l 258 99 l 172 181 l 172 228 l 172 228 l 172 181 l 258 99 m 254 994 l 424 1178 l 623 1178 l 426 994 l 254 994 m 386 1042 l 385 1042 l 469 1129 l 469 1129 l 386 1042 m 369 1214 l 369 1360 l 516 1360 l 516 1214 l 369 1214 m 442 1276 l 441 1276 l 441 1296 l 442 1296 l 442 1276 z "},"Š":{"ha":679,"x_min":69,"x_max":610,"o":"m 213 0 l 69 143 l 69 318 l 266 318 l 266 239 l 308 197 l 371 197 l 413 239 l 413 346 l 371 388 l 217 388 l 74 531 l 74 829 l 217 972 l 453 972 l 597 829 l 597 654 l 400 654 l 400 733 l 358 776 l 313 776 l 269 733 l 269 627 l 313 585 l 467 585 l 610 442 l 610 143 l 467 0 l 213 0 m 258 99 l 408 99 l 508 194 l 508 403 l 428 485 l 271 485 l 173 587 l 173 783 l 268 874 l 410 874 l 497 783 l 497 744 l 497 744 l 497 783 l 410 874 l 268 874 l 173 783 l 173 587 l 271 485 l 428 485 l 508 403 l 508 194 l 408 99 l 258 99 l 172 181 l 172 228 l 172 228 l 172 181 l 258 99 m 252 994 l 97 1192 l 289 1192 l 340 1117 l 390 1192 l 583 1192 l 427 994 l 252 994 m 299 1049 l 378 1049 l 437 1129 l 437 1129 l 378 1049 l 299 1049 l 240 1129 l 240 1129 l 299 1049 z "},"Ṧ":{"ha":679,"x_min":69,"x_max":610,"o":"m 213 0 l 69 143 l 69 318 l 266 318 l 266 239 l 308 197 l 371 197 l 413 239 l 413 346 l 371 388 l 217 388 l 74 531 l 74 829 l 217 972 l 453 972 l 597 829 l 597 654 l 400 654 l 400 733 l 358 776 l 313 776 l 269 733 l 269 627 l 313 585 l 467 585 l 610 442 l 610 143 l 467 0 l 213 0 m 258 99 l 408 99 l 508 194 l 508 403 l 428 485 l 271 485 l 173 587 l 173 783 l 268 874 l 410 874 l 497 783 l 497 744 l 497 744 l 497 783 l 410 874 l 268 874 l 173 783 l 173 587 l 271 485 l 428 485 l 508 403 l 508 194 l 408 99 l 258 99 l 172 181 l 172 228 l 172 228 l 172 181 l 258 99 m 252 994 l 97 1192 l 289 1192 l 340 1117 l 390 1192 l 583 1192 l 427 994 l 252 994 m 299 1049 l 378 1049 l 437 1129 l 437 1129 l 378 1049 l 299 1049 l 240 1129 l 240 1129 l 299 1049 m 267 1228 l 267 1374 l 414 1374 l 414 1228 l 267 1228 m 340 1290 l 339 1290 l 339 1310 l 340 1310 l 340 1290 z "},"Ş":{"ha":835,"x_min":71,"x_max":764,"o":"m 286 -242 l 286 -133 l 428 -133 l 449 -111 l 428 -90 l 335 -90 l 335 0 l 214 0 l 71 143 l 71 318 l 267 318 l 267 239 l 310 197 l 525 197 l 567 239 l 567 318 l 525 360 l 218 423 l 75 566 l 75 829 l 218 972 l 608 972 l 751 829 l 751 654 l 554 654 l 554 733 l 512 776 l 314 776 l 271 733 l 271 662 l 314 619 l 621 557 l 764 414 l 764 143 l 621 0 l 522 0 l 618 -111 l 505 -242 l 286 -242 m 360 -188 l 472 -188 l 540 -111 l 472 -35 l 406 -35 l 406 97 l 571 97 l 661 188 l 661 383 l 585 460 l 266 521 l 173 615 l 173 783 l 263 874 l 568 874 l 651 790 l 651 748 l 651 748 l 651 790 l 568 874 l 263 874 l 173 783 l 173 615 l 266 521 l 585 460 l 661 383 l 661 188 l 571 97 l 256 97 l 173 181 l 173 231 l 173 231 l 173 181 l 256 97 l 406 97 l 406 -35 l 472 -35 l 540 -111 l 472 -188 l 360 -188 l 360 -188 z "},"Ŝ":{"ha":679,"x_min":69,"x_max":610,"o":"m 213 0 l 69 143 l 69 318 l 266 318 l 266 239 l 308 197 l 371 197 l 413 239 l 413 346 l 371 388 l 217 388 l 74 531 l 74 829 l 217 972 l 453 972 l 597 829 l 597 654 l 400 654 l 400 733 l 358 776 l 313 776 l 269 733 l 269 627 l 313 585 l 467 585 l 610 442 l 610 143 l 467 0 l 213 0 m 258 99 l 408 99 l 508 194 l 508 403 l 428 485 l 271 485 l 173 587 l 173 783 l 268 874 l 410 874 l 497 783 l 497 744 l 497 744 l 497 783 l 410 874 l 268 874 l 173 783 l 173 587 l 271 485 l 428 485 l 508 403 l 508 194 l 408 99 l 258 99 l 172 181 l 172 228 l 172 228 l 172 181 l 258 99 m 252 1192 l 427 1192 l 583 994 l 390 994 l 340 1069 l 289 994 l 97 994 l 252 1192 m 299 1138 l 240 1057 l 240 1057 l 299 1138 l 378 1138 l 437 1057 l 437 1057 l 378 1138 l 299 1138 z "},"Ș":{"ha":679,"x_min":69,"x_max":610,"o":"m 213 0 l 69 143 l 69 318 l 266 318 l 266 239 l 308 197 l 371 197 l 413 239 l 413 346 l 371 388 l 217 388 l 74 531 l 74 829 l 217 972 l 453 972 l 597 829 l 597 654 l 400 654 l 400 733 l 358 776 l 313 776 l 269 733 l 269 627 l 313 585 l 467 585 l 610 442 l 610 143 l 467 0 l 213 0 m 258 99 l 408 99 l 508 194 l 508 403 l 428 485 l 271 485 l 173 587 l 173 783 l 268 874 l 410 874 l 497 783 l 497 744 l 497 744 l 497 783 l 410 874 l 268 874 l 173 783 l 173 587 l 271 485 l 428 485 l 508 403 l 508 194 l 408 99 l 258 99 l 172 181 l 172 228 l 172 228 l 172 181 l 258 99 m 167 -368 l 247 -50 l 435 -50 l 324 -368 l 167 -368 m 267 -294 l 266 -294 l 313 -142 l 314 -142 l 267 -294 z "},"Ṡ":{"ha":679,"x_min":69,"x_max":610,"o":"m 213 0 l 69 143 l 69 318 l 266 318 l 266 239 l 308 197 l 371 197 l 413 239 l 413 346 l 371 388 l 217 388 l 74 531 l 74 829 l 217 972 l 453 972 l 597 829 l 597 654 l 400 654 l 400 733 l 358 776 l 313 776 l 269 733 l 269 627 l 313 585 l 467 585 l 610 442 l 610 143 l 467 0 l 213 0 m 258 99 l 408 99 l 508 194 l 508 403 l 428 485 l 271 485 l 173 587 l 173 783 l 268 874 l 410 874 l 497 783 l 497 744 l 497 744 l 497 783 l 410 874 l 268 874 l 173 783 l 173 587 l 271 485 l 428 485 l 508 403 l 508 194 l 408 99 l 258 99 l 172 181 l 172 228 l 172 228 l 172 181 l 258 99 m 267 1008 l 267 1154 l 414 1154 l 414 1008 l 267 1008 m 340 1071 l 339 1071 l 339 1090 l 340 1090 l 340 1071 z "},"Ṣ":{"ha":679,"x_min":69,"x_max":610,"o":"m 213 0 l 69 143 l 69 318 l 266 318 l 266 239 l 308 197 l 371 197 l 413 239 l 413 346 l 371 388 l 217 388 l 74 531 l 74 829 l 217 972 l 453 972 l 597 829 l 597 654 l 400 654 l 400 733 l 358 776 l 313 776 l 269 733 l 269 627 l 313 585 l 467 585 l 610 442 l 610 143 l 467 0 l 213 0 m 258 99 l 408 99 l 508 194 l 508 403 l 428 485 l 271 485 l 173 587 l 173 783 l 268 874 l 410 874 l 497 783 l 497 744 l 497 744 l 497 783 l 410 874 l 268 874 l 173 783 l 173 587 l 271 485 l 428 485 l 508 403 l 508 194 l 408 99 l 258 99 l 172 181 l 172 228 l 172 228 l 172 181 l 258 99 m 266 -188 l 266 -42 l 413 -42 l 413 -188 l 266 -188 m 339 -126 l 338 -126 l 338 -106 l 339 -106 l 339 -126 z "},"Ṩ":{"ha":679,"x_min":69,"x_max":610,"o":"m 213 0 l 69 143 l 69 318 l 266 318 l 266 239 l 308 197 l 371 197 l 413 239 l 413 346 l 371 388 l 217 388 l 74 531 l 74 829 l 217 972 l 453 972 l 597 829 l 597 654 l 400 654 l 400 733 l 358 776 l 313 776 l 269 733 l 269 627 l 313 585 l 467 585 l 610 442 l 610 143 l 467 0 l 213 0 m 258 99 l 408 99 l 508 194 l 508 403 l 428 485 l 271 485 l 173 587 l 173 783 l 268 874 l 410 874 l 497 783 l 497 744 l 497 744 l 497 783 l 410 874 l 268 874 l 173 783 l 173 587 l 271 485 l 428 485 l 508 403 l 508 194 l 408 99 l 258 99 l 172 181 l 172 228 l 172 228 l 172 181 l 258 99 m 266 -188 l 266 -42 l 413 -42 l 413 -188 l 266 -188 m 339 -126 l 338 -126 l 338 -106 l 339 -106 l 339 -126 m 267 1008 l 267 1154 l 414 1154 l 414 1008 l 267 1008 m 340 1071 l 339 1071 l 339 1090 l 340 1090 l 340 1071 z "},"ẞ":{"ha":782,"x_min":49,"x_max":733,"o":"m 49 0 l 49 829 l 192 972 l 545 972 l 688 829 l 688 581 l 626 519 l 733 412 l 733 157 l 576 0 l 368 0 l 368 197 l 481 197 l 537 253 l 537 323 l 423 437 l 423 594 l 492 663 l 492 733 l 450 776 l 288 776 l 245 733 l 245 0 l 49 0 m 144 99 l 144 99 l 144 802 l 213 874 l 524 874 l 590 799 l 590 617 l 528 553 l 528 478 l 633 369 l 633 192 l 534 100 l 443 100 l 444 100 l 534 100 l 633 192 l 633 369 l 528 478 l 528 553 l 590 617 l 590 799 l 524 874 l 213 874 l 144 802 l 144 99 z "},"Ə":{"ha":863,"x_min":74,"x_max":788,"o":"m 217 0 l 74 143 l 74 473 l 217 616 l 592 616 l 592 733 l 549 776 l 83 776 l 83 972 l 645 972 l 788 829 l 788 143 l 645 0 l 217 0 m 267 96 l 178 183 l 178 444 l 252 518 l 692 518 l 692 190 l 596 96 l 267 96 m 267 96 l 596 96 l 692 190 l 692 782 l 601 871 l 170 871 l 170 871 l 601 871 l 692 782 l 692 518 l 252 518 l 178 444 l 178 183 l 267 96 m 313 197 l 549 197 l 592 239 l 592 426 l 299 426 l 269 397 l 269 239 l 313 197 z "},"T":{"ha":557,"x_min":42,"x_max":515,"o":"m 181 0 l 181 776 l 42 776 l 42 972 l 515 972 l 515 776 l 376 776 l 376 0 l 181 0 m 279 99 l 278 99 l 278 874 l 424 874 l 424 874 l 133 874 l 133 874 l 279 874 l 279 99 z "},"Ŧ":{"ha":744,"x_min":49,"x_max":675,"o":"m 264 0 l 264 489 l 135 489 l 135 660 l 264 660 l 264 776 l 49 776 l 49 972 l 675 972 l 675 776 l 460 776 l 460 660 l 584 660 l 584 489 l 460 489 l 460 0 l 264 0 m 362 99 l 361 99 l 361 574 l 499 574 l 499 573 l 361 573 l 361 874 l 590 874 l 590 874 l 132 874 l 132 874 l 362 874 l 362 574 l 224 574 l 224 574 l 362 574 l 362 99 z "},"Ť":{"ha":557,"x_min":35,"x_max":522,"o":"m 181 0 l 181 776 l 42 776 l 42 972 l 515 972 l 515 776 l 376 776 l 376 0 l 181 0 m 279 99 l 278 99 l 278 874 l 424 874 l 424 874 l 133 874 l 133 874 l 279 874 l 279 99 m 191 994 l 35 1192 l 228 1192 l 278 1117 l 329 1192 l 522 1192 l 366 994 l 191 994 m 238 1049 l 317 1049 l 376 1129 l 376 1129 l 317 1049 l 238 1049 l 178 1129 l 178 1129 l 238 1049 z "},"Ţ":{"ha":738,"x_min":56,"x_max":682,"o":"m 238 -242 l 238 -133 l 380 -133 l 401 -111 l 380 -90 l 271 -90 l 271 776 l 56 776 l 56 972 l 682 972 l 682 776 l 467 776 l 467 7 l 569 -111 l 456 -242 l 238 -242 m 309 -187 l 424 -187 l 490 -111 l 424 -36 l 368 -36 l 368 874 l 591 874 l 590 874 l 141 874 l 142 874 l 368 874 l 368 -36 l 424 -36 l 490 -111 l 424 -187 l 310 -187 l 309 -187 z "},"Ț":{"ha":557,"x_min":42,"x_max":515,"o":"m 181 0 l 181 776 l 42 776 l 42 972 l 515 972 l 515 776 l 376 776 l 376 0 l 181 0 m 279 99 l 278 99 l 278 874 l 424 874 l 424 874 l 133 874 l 133 874 l 279 874 l 279 99 m 106 -368 l 185 -50 l 374 -50 l 263 -368 l 106 -368 m 206 -294 l 205 -294 l 252 -142 l 253 -142 l 206 -294 z "},"Ṭ":{"ha":557,"x_min":42,"x_max":515,"o":"m 181 0 l 181 776 l 42 776 l 42 972 l 515 972 l 515 776 l 376 776 l 376 0 l 181 0 m 279 99 l 278 99 l 278 874 l 424 874 l 424 874 l 133 874 l 133 874 l 279 874 l 279 99 m 205 -188 l 205 -42 l 352 -42 l 352 -188 l 205 -188 m 278 -126 l 277 -126 l 277 -106 l 278 -106 l 278 -126 z "},"Ṯ":{"ha":557,"x_min":42,"x_max":515,"o":"m 181 0 l 181 776 l 42 776 l 42 972 l 515 972 l 515 776 l 376 776 l 376 0 l 181 0 m 279 99 l 278 99 l 278 874 l 424 874 l 424 874 l 133 874 l 133 874 l 279 874 l 279 99 m 59 -226 l 59 -49 l 498 -49 l 498 -226 l 59 -226 m 149 -139 l 416 -139 l 416 -139 l 149 -139 l 149 -139 z "},"U":{"ha":679,"x_min":69,"x_max":610,"o":"m 213 0 l 69 143 l 69 972 l 266 972 l 266 239 l 308 197 l 371 197 l 413 239 l 413 972 l 610 972 l 610 143 l 467 0 l 213 0 m 260 99 l 419 99 l 512 188 l 512 874 l 512 874 l 512 188 l 419 99 l 260 99 l 167 190 l 167 874 l 167 874 l 167 190 l 260 99 z "},"Ú":{"ha":679,"x_min":69,"x_max":624,"o":"m 213 0 l 69 143 l 69 972 l 266 972 l 266 239 l 308 197 l 371 197 l 413 239 l 413 972 l 610 972 l 610 143 l 467 0 l 213 0 m 260 99 l 419 99 l 512 188 l 512 874 l 512 874 l 512 188 l 419 99 l 260 99 l 167 190 l 167 874 l 167 874 l 167 190 l 260 99 m 255 994 l 424 1178 l 624 1178 l 426 994 l 255 994 m 387 1042 l 386 1042 l 469 1129 l 470 1129 l 387 1042 z "},"Ŭ":{"ha":679,"x_min":69,"x_max":610,"o":"m 213 0 l 69 143 l 69 972 l 266 972 l 266 239 l 308 197 l 371 197 l 413 239 l 413 972 l 610 972 l 610 143 l 467 0 l 213 0 m 260 99 l 419 99 l 512 188 l 512 874 l 512 874 l 512 188 l 419 99 l 260 99 l 167 190 l 167 874 l 167 874 l 167 190 l 260 99 m 258 994 l 180 1072 l 180 1181 l 313 1181 l 313 1128 l 367 1128 l 367 1181 l 501 1181 l 501 1072 l 423 994 l 258 994 m 294 1056 l 388 1056 l 434 1106 l 434 1124 l 434 1124 l 434 1106 l 388 1056 l 294 1056 l 248 1106 l 248 1124 l 248 1124 l 248 1106 l 294 1056 z "},"Ǔ":{"ha":679,"x_min":69,"x_max":610,"o":"m 213 0 l 69 143 l 69 972 l 266 972 l 266 239 l 308 197 l 371 197 l 413 239 l 413 972 l 610 972 l 610 143 l 467 0 l 213 0 m 260 99 l 419 99 l 512 188 l 512 874 l 512 874 l 512 188 l 419 99 l 260 99 l 167 190 l 167 874 l 167 874 l 167 190 l 260 99 m 253 994 l 97 1192 l 290 1192 l 340 1117 l 391 1192 l 583 1192 l 428 994 l 253 994 m 299 1049 l 378 1049 l 438 1129 l 438 1129 l 378 1049 l 299 1049 l 240 1129 l 240 1129 l 299 1049 z "},"Û":{"ha":679,"x_min":69,"x_max":610,"o":"m 213 0 l 69 143 l 69 972 l 266 972 l 266 239 l 308 197 l 371 197 l 413 239 l 413 972 l 610 972 l 610 143 l 467 0 l 213 0 m 260 99 l 419 99 l 512 188 l 512 874 l 512 874 l 512 188 l 419 99 l 260 99 l 167 190 l 167 874 l 167 874 l 167 190 l 260 99 m 253 1192 l 428 1192 l 583 994 l 391 994 l 340 1069 l 290 994 l 97 994 l 253 1192 m 299 1138 l 240 1057 l 240 1057 l 299 1138 l 378 1138 l 438 1057 l 438 1057 l 378 1138 l 299 1138 z "},"Ȕ":{"ha":679,"x_min":-73,"x_max":610,"o":"m 213 0 l 69 143 l 69 972 l 266 972 l 266 239 l 308 197 l 371 197 l 413 239 l 413 972 l 610 972 l 610 143 l 467 0 l 213 0 m 260 99 l 419 99 l 512 188 l 512 874 l 512 874 l 512 188 l 419 99 l 260 99 l 167 190 l 167 874 l 167 874 l 167 190 l 260 99 m 568 994 l 397 994 l 199 1178 l 399 1178 l 568 994 m 436 1042 l 353 1129 l 353 1129 l 437 1042 l 436 1042 m 296 994 l 124 994 l -73 1178 l 126 1178 l 296 994 m 164 1042 l 81 1129 l 81 1129 l 165 1042 l 164 1042 z "},"Ü":{"ha":679,"x_min":69,"x_max":610,"o":"m 213 0 l 69 143 l 69 972 l 266 972 l 266 239 l 308 197 l 371 197 l 413 239 l 413 972 l 610 972 l 610 143 l 467 0 l 213 0 m 260 99 l 419 99 l 512 188 l 512 874 l 512 874 l 512 188 l 419 99 l 260 99 l 167 190 l 167 874 l 167 874 l 167 190 l 260 99 m 412 1008 l 412 1154 l 559 1154 l 559 1008 l 412 1008 m 123 1008 l 123 1154 l 270 1154 l 270 1008 l 123 1008 m 196 1074 l 195 1074 l 195 1088 l 196 1088 l 196 1074 m 486 1074 l 485 1074 l 485 1088 l 486 1088 l 486 1074 z "},"Ǘ":{"ha":679,"x_min":69,"x_max":624,"o":"m 213 0 l 69 143 l 69 972 l 266 972 l 266 239 l 308 197 l 371 197 l 413 239 l 413 972 l 610 972 l 610 143 l 467 0 l 213 0 m 260 99 l 419 99 l 512 188 l 512 874 l 512 874 l 512 188 l 419 99 l 260 99 l 167 190 l 167 874 l 167 874 l 167 190 l 260 99 m 412 1008 l 412 1154 l 559 1154 l 559 1008 l 412 1008 m 123 1008 l 123 1154 l 270 1154 l 270 1008 l 123 1008 m 196 1074 l 195 1074 l 195 1088 l 196 1088 l 196 1074 m 486 1074 l 485 1074 l 485 1088 l 486 1088 l 486 1074 m 255 1176 l 424 1360 l 624 1360 l 426 1176 l 255 1176 m 387 1224 l 386 1224 l 469 1311 l 470 1311 l 387 1224 z "},"Ǚ":{"ha":679,"x_min":69,"x_max":610,"o":"m 213 0 l 69 143 l 69 972 l 266 972 l 266 239 l 308 197 l 371 197 l 413 239 l 413 972 l 610 972 l 610 143 l 467 0 l 213 0 m 260 99 l 419 99 l 512 188 l 512 874 l 512 874 l 512 188 l 419 99 l 260 99 l 167 190 l 167 874 l 167 874 l 167 190 l 260 99 m 412 1008 l 412 1154 l 559 1154 l 559 1008 l 412 1008 m 123 1008 l 123 1154 l 270 1154 l 270 1008 l 123 1008 m 196 1074 l 195 1074 l 195 1088 l 196 1088 l 196 1074 m 486 1074 l 485 1074 l 485 1088 l 486 1088 l 486 1074 m 253 1176 l 97 1374 l 290 1374 l 340 1299 l 391 1374 l 583 1374 l 428 1176 l 253 1176 m 299 1231 l 378 1231 l 438 1311 l 438 1311 l 378 1231 l 299 1231 l 240 1311 l 240 1311 l 299 1231 z "},"Ǜ":{"ha":679,"x_min":69,"x_max":610,"o":"m 213 0 l 69 143 l 69 972 l 266 972 l 266 239 l 308 197 l 371 197 l 413 239 l 413 972 l 610 972 l 610 143 l 467 0 l 213 0 m 260 99 l 419 99 l 512 188 l 512 874 l 512 874 l 512 188 l 419 99 l 260 99 l 167 190 l 167 874 l 167 874 l 167 190 l 260 99 m 412 1008 l 412 1154 l 559 1154 l 559 1008 l 412 1008 m 123 1008 l 123 1154 l 270 1154 l 270 1008 l 123 1008 m 196 1074 l 195 1074 l 195 1088 l 196 1088 l 196 1074 m 486 1074 l 485 1074 l 485 1088 l 486 1088 l 486 1074 m 441 1176 l 269 1176 l 72 1360 l 272 1360 l 441 1176 m 309 1224 l 226 1311 l 226 1311 l 310 1224 l 309 1224 z "},"Ǖ":{"ha":679,"x_min":69,"x_max":610,"o":"m 213 0 l 69 143 l 69 972 l 266 972 l 266 239 l 308 197 l 371 197 l 413 239 l 413 972 l 610 972 l 610 143 l 467 0 l 213 0 m 260 99 l 419 99 l 512 188 l 512 874 l 512 874 l 512 188 l 419 99 l 260 99 l 167 190 l 167 874 l 167 874 l 167 190 l 260 99 m 412 1008 l 412 1154 l 559 1154 l 559 1008 l 412 1008 m 123 1008 l 123 1154 l 270 1154 l 270 1008 l 123 1008 m 196 1074 l 195 1074 l 195 1088 l 196 1088 l 196 1074 m 486 1074 l 485 1074 l 485 1088 l 486 1088 l 486 1074 m 121 1176 l 121 1353 l 560 1353 l 560 1176 l 121 1176 m 211 1263 l 478 1263 l 478 1263 l 211 1263 l 211 1263 z "},"Ụ":{"ha":679,"x_min":69,"x_max":610,"o":"m 213 0 l 69 143 l 69 972 l 266 972 l 266 239 l 308 197 l 371 197 l 413 239 l 413 972 l 610 972 l 610 143 l 467 0 l 213 0 m 260 99 l 419 99 l 512 188 l 512 874 l 512 874 l 512 188 l 419 99 l 260 99 l 167 190 l 167 874 l 167 874 l 167 190 l 260 99 m 267 -188 l 267 -42 l 414 -42 l 414 -188 l 267 -188 m 340 -126 l 339 -126 l 339 -106 l 340 -106 l 340 -126 z "},"Ù":{"ha":679,"x_min":69,"x_max":610,"o":"m 213 0 l 69 143 l 69 972 l 266 972 l 266 239 l 308 197 l 371 197 l 413 239 l 413 972 l 610 972 l 610 143 l 467 0 l 213 0 m 260 99 l 419 99 l 512 188 l 512 874 l 512 874 l 512 188 l 419 99 l 260 99 l 167 190 l 167 874 l 167 874 l 167 190 l 260 99 m 441 994 l 269 994 l 72 1178 l 272 1178 l 441 994 m 309 1042 l 226 1129 l 226 1129 l 310 1042 l 309 1042 z "},"Ủ":{"ha":679,"x_min":69,"x_max":610,"o":"m 213 0 l 69 143 l 69 972 l 266 972 l 266 239 l 308 197 l 371 197 l 413 239 l 413 972 l 610 972 l 610 143 l 467 0 l 213 0 m 260 99 l 419 99 l 512 188 l 512 874 l 512 874 l 512 188 l 419 99 l 260 99 l 167 190 l 167 874 l 167 874 l 167 190 l 260 99 m 174 1251 l 393 1251 l 506 1120 l 393 990 l 224 990 l 224 1099 l 317 1099 l 338 1120 l 317 1142 l 174 1142 l 174 1251 m 248 1198 l 248 1198 l 357 1198 l 425 1120 l 357 1044 l 298 1044 l 298 1044 l 357 1044 l 425 1120 l 357 1198 l 248 1198 z "},"Ư":{"ha":826,"x_min":69,"x_max":847,"o":"m 260 99 l 433 99 l 526 188 l 526 874 l 526 874 l 526 188 l 433 99 l 260 99 l 167 190 l 167 874 l 167 874 l 167 190 l 260 99 m 767 889 l 767 805 l 695 727 l 526 727 l 526 727 l 695 727 l 767 805 l 767 889 l 767 889 m 688 941 l 847 941 l 847 803 l 733 673 l 624 673 l 624 143 l 481 0 l 213 0 l 69 143 l 69 972 l 266 972 l 266 239 l 308 197 l 385 197 l 427 239 l 427 972 l 624 972 l 624 782 l 657 782 l 688 813 l 688 941 z "},"Ứ":{"ha":826,"x_min":69,"x_max":847,"o":"m 260 99 l 433 99 l 526 188 l 526 874 l 526 874 l 526 188 l 433 99 l 260 99 l 167 190 l 167 874 l 167 874 l 167 190 l 260 99 m 767 889 l 767 805 l 695 727 l 526 727 l 526 727 l 695 727 l 767 805 l 767 889 l 767 889 m 688 941 l 847 941 l 847 803 l 733 673 l 624 673 l 624 143 l 481 0 l 213 0 l 69 143 l 69 972 l 266 972 l 266 239 l 308 197 l 385 197 l 427 239 l 427 972 l 624 972 l 624 782 l 657 782 l 688 813 l 688 941 m 262 994 l 431 1178 l 631 1178 l 433 994 l 262 994 m 394 1042 l 393 1042 l 476 1129 l 477 1129 l 394 1042 z "},"Ự":{"ha":826,"x_min":69,"x_max":847,"o":"m 260 99 l 433 99 l 526 188 l 526 874 l 526 874 l 526 188 l 433 99 l 260 99 l 167 190 l 167 874 l 167 874 l 167 190 l 260 99 m 767 889 l 767 805 l 695 727 l 526 727 l 526 727 l 695 727 l 767 805 l 767 889 l 767 889 m 688 941 l 847 941 l 847 803 l 733 673 l 624 673 l 624 143 l 481 0 l 213 0 l 69 143 l 69 972 l 266 972 l 266 239 l 308 197 l 385 197 l 427 239 l 427 972 l 624 972 l 624 782 l 657 782 l 688 813 l 688 941 m 274 -188 l 274 -42 l 421 -42 l 421 -188 l 274 -188 m 347 -126 l 346 -126 l 346 -106 l 347 -106 l 347 -126 z "},"Ừ":{"ha":826,"x_min":69,"x_max":847,"o":"m 260 99 l 433 99 l 526 188 l 526 874 l 526 874 l 526 188 l 433 99 l 260 99 l 167 190 l 167 874 l 167 874 l 167 190 l 260 99 m 767 889 l 767 805 l 695 727 l 526 727 l 526 727 l 695 727 l 767 805 l 767 889 l 767 889 m 688 941 l 847 941 l 847 803 l 733 673 l 624 673 l 624 143 l 481 0 l 213 0 l 69 143 l 69 972 l 266 972 l 266 239 l 308 197 l 385 197 l 427 239 l 427 972 l 624 972 l 624 782 l 657 782 l 688 813 l 688 941 m 448 994 l 276 994 l 79 1178 l 278 1178 l 448 994 m 316 1042 l 233 1129 l 233 1129 l 317 1042 l 316 1042 z "},"Ử":{"ha":826,"x_min":69,"x_max":847,"o":"m 260 99 l 433 99 l 526 188 l 526 874 l 526 874 l 526 188 l 433 99 l 260 99 l 167 190 l 167 874 l 167 874 l 167 190 l 260 99 m 767 889 l 767 805 l 695 727 l 526 727 l 526 727 l 695 727 l 767 805 l 767 889 l 767 889 m 688 941 l 847 941 l 847 803 l 733 673 l 624 673 l 624 143 l 481 0 l 213 0 l 69 143 l 69 972 l 266 972 l 266 239 l 308 197 l 385 197 l 427 239 l 427 972 l 624 972 l 624 782 l 657 782 l 688 813 l 688 941 m 181 1251 l 400 1251 l 513 1120 l 400 990 l 231 990 l 231 1099 l 324 1099 l 344 1120 l 324 1142 l 181 1142 l 181 1251 m 255 1198 l 255 1198 l 364 1198 l 432 1120 l 364 1044 l 305 1044 l 305 1044 l 364 1044 l 432 1120 l 364 1198 l 255 1198 z "},"Ữ":{"ha":826,"x_min":69,"x_max":847,"o":"m 260 99 l 433 99 l 526 188 l 526 874 l 526 874 l 526 188 l 433 99 l 260 99 l 167 190 l 167 874 l 167 874 l 167 190 l 260 99 m 767 889 l 767 805 l 695 727 l 526 727 l 526 727 l 695 727 l 767 805 l 767 889 l 767 889 m 688 941 l 847 941 l 847 803 l 733 673 l 624 673 l 624 143 l 481 0 l 213 0 l 69 143 l 69 972 l 266 972 l 266 239 l 308 197 l 385 197 l 427 239 l 427 972 l 624 972 l 624 782 l 657 782 l 688 813 l 688 941 m 153 994 l 153 1089 l 231 1167 l 355 1167 l 394 1128 l 406 1128 l 406 1167 l 540 1167 l 540 1072 l 462 994 l 338 994 l 299 1033 l 287 1033 l 287 994 l 153 994 m 222 1043 l 222 1043 l 222 1057 l 267 1107 l 324 1107 l 369 1056 l 430 1056 l 476 1106 l 476 1119 l 476 1119 l 476 1106 l 430 1056 l 369 1056 l 324 1107 l 267 1107 l 222 1057 l 222 1043 z "},"Ű":{"ha":679,"x_min":69,"x_max":669,"o":"m 213 0 l 69 143 l 69 972 l 266 972 l 266 239 l 308 197 l 371 197 l 413 239 l 413 972 l 610 972 l 610 143 l 467 0 l 213 0 m 260 99 l 419 99 l 512 188 l 512 874 l 512 874 l 512 188 l 419 99 l 260 99 l 167 190 l 167 874 l 167 874 l 167 190 l 260 99 m 369 994 l 469 1178 l 669 1178 l 533 994 l 369 994 m 231 1038 l 231 1038 l 289 1128 l 290 1128 l 231 1038 m 124 994 l 225 1178 l 424 1178 l 289 994 l 124 994 m 476 1038 l 475 1038 l 533 1128 l 534 1128 l 476 1038 z "},"Ȗ":{"ha":679,"x_min":69,"x_max":610,"o":"m 213 0 l 69 143 l 69 972 l 266 972 l 266 239 l 308 197 l 371 197 l 413 239 l 413 972 l 610 972 l 610 143 l 467 0 l 213 0 m 260 99 l 419 99 l 512 188 l 512 874 l 512 874 l 512 188 l 419 99 l 260 99 l 167 190 l 167 874 l 167 874 l 167 190 l 260 99 m 423 1180 l 501 1102 l 501 994 l 367 994 l 367 1047 l 313 1047 l 313 994 l 180 994 l 180 1102 l 258 1180 l 423 1180 m 387 1119 l 292 1119 l 247 1069 l 247 1051 l 247 1051 l 247 1069 l 292 1119 l 387 1119 l 433 1069 l 433 1051 l 433 1051 l 433 1069 l 387 1119 z "},"Ū":{"ha":679,"x_min":69,"x_max":610,"o":"m 213 0 l 69 143 l 69 972 l 266 972 l 266 239 l 308 197 l 371 197 l 413 239 l 413 972 l 610 972 l 610 143 l 467 0 l 213 0 m 260 99 l 419 99 l 512 188 l 512 874 l 512 874 l 512 188 l 419 99 l 260 99 l 167 190 l 167 874 l 167 874 l 167 190 l 260 99 m 121 994 l 121 1172 l 560 1172 l 560 994 l 121 994 m 211 1081 l 478 1081 l 478 1081 l 211 1081 l 211 1081 z "},"Ṻ":{"ha":679,"x_min":69,"x_max":610,"o":"m 213 0 l 69 143 l 69 972 l 266 972 l 266 239 l 308 197 l 371 197 l 413 239 l 413 972 l 610 972 l 610 143 l 467 0 l 213 0 m 260 99 l 419 99 l 512 188 l 512 874 l 512 874 l 512 188 l 419 99 l 260 99 l 167 190 l 167 874 l 167 874 l 167 190 l 260 99 m 121 994 l 121 1172 l 560 1172 l 560 994 l 121 994 m 211 1081 l 478 1081 l 478 1081 l 211 1081 l 211 1081 m 412 1208 l 412 1353 l 559 1353 l 559 1208 l 412 1208 m 123 1208 l 123 1353 l 270 1353 l 270 1208 l 123 1208 m 196 1273 l 195 1273 l 195 1287 l 196 1287 l 196 1273 m 486 1273 l 485 1273 l 485 1287 l 486 1287 l 486 1273 z "},"Ų":{"ha":847,"x_min":69,"x_max":776,"o":"m 345 -256 l 232 -125 l 344 0 l 213 0 l 69 143 l 69 972 l 266 972 l 266 239 l 308 197 l 538 197 l 580 239 l 580 972 l 776 972 l 776 143 l 633 0 l 498 0 l 373 -125 l 394 -147 l 557 -147 l 557 -256 l 345 -256 m 370 -201 l 505 -201 l 504 -201 l 370 -201 l 303 -125 l 511 98 l 588 98 l 678 186 l 678 874 l 678 874 l 678 186 l 588 98 l 259 98 l 167 186 l 167 874 l 167 874 l 167 186 l 259 98 l 511 98 l 303 -125 l 370 -201 z "},"Ů":{"ha":679,"x_min":69,"x_max":610,"o":"m 213 0 l 69 143 l 69 972 l 266 972 l 266 239 l 308 197 l 371 197 l 413 239 l 413 972 l 610 972 l 610 143 l 467 0 l 213 0 m 260 99 l 419 99 l 512 188 l 512 874 l 512 874 l 512 188 l 419 99 l 260 99 l 167 190 l 167 874 l 167 874 l 167 190 l 260 99 m 276 993 l 208 1060 l 208 1181 l 276 1249 l 403 1249 l 472 1181 l 472 1060 l 403 993 l 276 993 m 303 1052 l 378 1052 l 414 1088 l 414 1157 l 378 1193 l 303 1193 l 267 1157 l 267 1088 l 303 1052 m 303 1052 l 267 1088 l 267 1157 l 303 1193 l 378 1193 l 414 1157 l 414 1088 l 378 1052 l 303 1052 m 334 1109 l 346 1109 l 352 1116 l 352 1126 l 346 1133 l 334 1133 l 328 1126 l 328 1116 l 334 1109 z "},"Ũ":{"ha":679,"x_min":69,"x_max":610,"o":"m 213 0 l 69 143 l 69 972 l 266 972 l 266 239 l 308 197 l 371 197 l 413 239 l 413 972 l 610 972 l 610 143 l 467 0 l 213 0 m 260 99 l 419 99 l 512 188 l 512 874 l 512 874 l 512 188 l 419 99 l 260 99 l 167 190 l 167 874 l 167 874 l 167 190 l 260 99 m 147 994 l 147 1089 l 224 1167 l 348 1167 l 387 1128 l 399 1128 l 399 1167 l 533 1167 l 533 1072 l 455 994 l 331 994 l 292 1033 l 280 1033 l 280 994 l 147 994 m 215 1043 l 215 1043 l 215 1057 l 260 1107 l 317 1107 l 362 1056 l 423 1056 l 469 1106 l 469 1119 l 469 1119 l 469 1106 l 423 1056 l 362 1056 l 317 1107 l 260 1107 l 215 1057 l 215 1043 z "},"Ṹ":{"ha":679,"x_min":69,"x_max":624,"o":"m 213 0 l 69 143 l 69 972 l 266 972 l 266 239 l 308 197 l 371 197 l 413 239 l 413 972 l 610 972 l 610 143 l 467 0 l 213 0 m 260 99 l 419 99 l 512 188 l 512 874 l 512 874 l 512 188 l 419 99 l 260 99 l 167 190 l 167 874 l 167 874 l 167 190 l 260 99 m 147 994 l 147 1089 l 224 1167 l 348 1167 l 387 1128 l 399 1128 l 399 1167 l 533 1167 l 533 1072 l 455 994 l 331 994 l 292 1033 l 280 1033 l 280 994 l 147 994 m 215 1043 l 215 1043 l 215 1057 l 260 1107 l 317 1107 l 362 1056 l 423 1056 l 469 1106 l 469 1119 l 469 1119 l 469 1106 l 423 1056 l 362 1056 l 317 1107 l 260 1107 l 215 1057 l 215 1043 m 255 1189 l 424 1372 l 624 1372 l 426 1189 l 255 1189 m 387 1236 l 386 1236 l 469 1324 l 470 1324 l 387 1236 z "},"V":{"ha":679,"x_min":76,"x_max":603,"o":"m 282 0 l 76 206 l 76 972 l 273 972 l 273 301 l 340 235 l 340 235 l 406 301 l 406 972 l 603 972 l 603 206 l 397 0 l 282 0 m 330 99 l 349 99 l 505 251 l 505 874 l 505 874 l 505 251 l 349 99 l 330 99 l 174 252 l 174 874 l 174 874 l 174 252 l 330 99 z "},"W":{"ha":994,"x_min":76,"x_max":917,"o":"m 76 972 l 273 972 l 273 197 l 285 197 l 332 889 l 662 889 l 710 197 l 721 197 l 721 972 l 917 972 l 917 0 l 550 0 l 504 690 l 490 690 l 444 0 l 76 0 l 76 972 m 174 874 l 174 98 l 359 98 l 415 780 l 577 780 l 633 98 l 818 98 l 818 874 l 819 874 l 819 98 l 633 98 l 577 780 l 415 780 l 359 98 l 173 98 l 173 874 l 174 874 z "},"Ẃ":{"ha":994,"x_min":76,"x_max":917,"o":"m 76 972 l 273 972 l 273 197 l 285 197 l 332 889 l 662 889 l 710 197 l 721 197 l 721 972 l 917 972 l 917 0 l 550 0 l 504 690 l 490 690 l 444 0 l 76 0 l 76 972 m 174 874 l 174 98 l 359 98 l 415 780 l 577 780 l 633 98 l 818 98 l 818 874 l 819 874 l 819 98 l 633 98 l 577 780 l 415 780 l 359 98 l 173 98 l 173 874 l 174 874 m 413 994 l 582 1178 l 781 1178 l 584 994 l 413 994 m 544 1042 l 544 1042 l 627 1129 l 628 1129 l 544 1042 z "},"Ŵ":{"ha":994,"x_min":76,"x_max":917,"o":"m 76 972 l 273 972 l 273 197 l 285 197 l 332 889 l 662 889 l 710 197 l 721 197 l 721 972 l 917 972 l 917 0 l 550 0 l 504 690 l 490 690 l 444 0 l 76 0 l 76 972 m 174 874 l 174 98 l 359 98 l 415 780 l 577 780 l 633 98 l 818 98 l 818 874 l 819 874 l 819 98 l 633 98 l 577 780 l 415 780 l 359 98 l 173 98 l 173 874 l 174 874 m 410 1192 l 585 1192 l 741 994 l 549 994 l 498 1069 l 447 994 l 255 994 l 410 1192 m 457 1138 l 398 1057 l 398 1057 l 457 1138 l 536 1138 l 595 1057 l 595 1057 l 536 1138 l 457 1138 z "},"Ẅ":{"ha":994,"x_min":76,"x_max":917,"o":"m 76 972 l 273 972 l 273 197 l 285 197 l 332 889 l 662 889 l 710 197 l 721 197 l 721 972 l 917 972 l 917 0 l 550 0 l 504 690 l 490 690 l 444 0 l 76 0 l 76 972 m 174 874 l 174 98 l 359 98 l 415 780 l 577 780 l 633 98 l 818 98 l 818 874 l 819 874 l 819 98 l 633 98 l 577 780 l 415 780 l 359 98 l 173 98 l 173 874 l 174 874 m 569 1008 l 569 1154 l 717 1154 l 717 1008 l 569 1008 m 281 1008 l 281 1154 l 428 1154 l 428 1008 l 281 1008 m 353 1074 l 353 1074 l 353 1088 l 353 1088 l 353 1074 m 644 1074 l 643 1074 l 643 1088 l 644 1088 l 644 1074 z "},"Ẁ":{"ha":994,"x_min":76,"x_max":917,"o":"m 76 972 l 273 972 l 273 197 l 285 197 l 332 889 l 662 889 l 710 197 l 721 197 l 721 972 l 917 972 l 917 0 l 550 0 l 504 690 l 490 690 l 444 0 l 76 0 l 76 972 m 174 874 l 174 98 l 359 98 l 415 780 l 577 780 l 633 98 l 818 98 l 818 874 l 819 874 l 819 98 l 633 98 l 577 780 l 415 780 l 359 98 l 173 98 l 173 874 l 174 874 m 599 994 l 427 994 l 230 1178 l 429 1178 l 599 994 m 467 1042 l 383 1129 l 384 1129 l 467 1042 l 467 1042 z "},"X":{"ha":733,"x_min":76,"x_max":657,"o":"m 76 0 l 76 392 l 176 492 l 76 589 l 76 972 l 273 972 l 273 672 l 356 589 l 378 589 l 460 672 l 460 972 l 657 972 l 657 589 l 559 492 l 657 392 l 657 0 l 460 0 l 460 310 l 378 392 l 356 392 l 273 310 l 273 0 l 76 0 m 175 99 l 174 99 l 174 346 l 315 492 l 419 492 l 560 346 l 560 99 l 559 99 l 559 346 l 419 492 l 559 632 l 559 874 l 560 874 l 560 632 l 419 492 l 315 492 l 175 632 l 175 874 l 176 874 l 176 632 l 316 492 l 175 346 l 175 99 z "},"Y":{"ha":674,"x_min":63,"x_max":611,"o":"m 238 0 l 238 357 l 63 521 l 63 972 l 259 972 l 259 592 l 343 517 l 330 517 l 415 592 l 415 972 l 611 972 l 611 521 l 435 357 l 435 0 l 238 0 m 337 99 l 336 99 l 336 393 l 513 551 l 513 874 l 514 874 l 514 551 l 336 393 l 336 393 l 159 551 l 159 874 l 160 874 l 160 551 l 337 393 l 337 99 z "},"Ý":{"ha":674,"x_min":63,"x_max":620,"o":"m 238 0 l 238 357 l 63 521 l 63 972 l 259 972 l 259 592 l 343 517 l 330 517 l 415 592 l 415 972 l 611 972 l 611 521 l 435 357 l 435 0 l 238 0 m 337 99 l 336 99 l 336 393 l 513 551 l 513 874 l 514 874 l 514 551 l 336 393 l 336 393 l 159 551 l 159 874 l 160 874 l 160 551 l 337 393 l 337 99 m 251 994 l 421 1178 l 620 1178 l 423 994 l 251 994 m 383 1042 l 383 1042 l 466 1129 l 467 1129 l 383 1042 z "},"Ŷ":{"ha":674,"x_min":63,"x_max":611,"o":"m 238 0 l 238 357 l 63 521 l 63 972 l 259 972 l 259 592 l 343 517 l 330 517 l 415 592 l 415 972 l 611 972 l 611 521 l 435 357 l 435 0 l 238 0 m 337 99 l 336 99 l 336 393 l 513 551 l 513 874 l 514 874 l 514 551 l 336 393 l 336 393 l 159 551 l 159 874 l 160 874 l 160 551 l 337 393 l 337 99 m 249 1192 l 424 1192 l 580 994 l 388 994 l 337 1069 l 286 994 l 94 994 l 249 1192 m 296 1138 l 237 1057 l 237 1057 l 296 1138 l 375 1138 l 434 1057 l 434 1057 l 375 1138 l 296 1138 z "},"Ÿ":{"ha":674,"x_min":63,"x_max":611,"o":"m 238 0 l 238 357 l 63 521 l 63 972 l 259 972 l 259 592 l 343 517 l 330 517 l 415 592 l 415 972 l 611 972 l 611 521 l 435 357 l 435 0 l 238 0 m 337 99 l 336 99 l 336 393 l 513 551 l 513 874 l 514 874 l 514 551 l 336 393 l 336 393 l 159 551 l 159 874 l 160 874 l 160 551 l 337 393 l 337 99 m 408 1008 l 408 1154 l 556 1154 l 556 1008 l 408 1008 m 119 1008 l 119 1154 l 267 1154 l 267 1008 l 119 1008 m 192 1074 l 192 1074 l 192 1088 l 192 1088 l 192 1074 m 483 1074 l 482 1074 l 482 1088 l 483 1088 l 483 1074 z "},"Ẏ":{"ha":674,"x_min":63,"x_max":611,"o":"m 238 0 l 238 357 l 63 521 l 63 972 l 259 972 l 259 592 l 343 517 l 330 517 l 415 592 l 415 972 l 611 972 l 611 521 l 435 357 l 435 0 l 238 0 m 337 99 l 336 99 l 336 393 l 513 551 l 513 874 l 514 874 l 514 551 l 336 393 l 336 393 l 159 551 l 159 874 l 160 874 l 160 551 l 337 393 l 337 99 m 264 1008 l 264 1154 l 411 1154 l 411 1008 l 264 1008 m 337 1071 l 336 1071 l 336 1090 l 337 1090 l 337 1071 z "},"Ỵ":{"ha":674,"x_min":63,"x_max":611,"o":"m 238 0 l 238 357 l 63 521 l 63 972 l 259 972 l 259 592 l 343 517 l 330 517 l 415 592 l 415 972 l 611 972 l 611 521 l 435 357 l 435 0 l 238 0 m 337 99 l 336 99 l 336 393 l 513 551 l 513 874 l 514 874 l 514 551 l 336 393 l 336 393 l 159 551 l 159 874 l 160 874 l 160 551 l 337 393 l 337 99 m 263 -188 l 263 -42 l 410 -42 l 410 -188 l 263 -188 m 336 -126 l 335 -126 l 335 -106 l 336 -106 l 336 -126 z "},"Ỳ":{"ha":674,"x_min":63,"x_max":611,"o":"m 238 0 l 238 357 l 63 521 l 63 972 l 259 972 l 259 592 l 343 517 l 330 517 l 415 592 l 415 972 l 611 972 l 611 521 l 435 357 l 435 0 l 238 0 m 337 99 l 336 99 l 336 393 l 513 551 l 513 874 l 514 874 l 514 551 l 336 393 l 336 393 l 159 551 l 159 874 l 160 874 l 160 551 l 337 393 l 337 99 m 438 994 l 266 994 l 69 1178 l 268 1178 l 438 994 m 306 1042 l 222 1129 l 223 1129 l 306 1042 l 306 1042 z "},"Ỷ":{"ha":674,"x_min":63,"x_max":611,"o":"m 238 0 l 238 357 l 63 521 l 63 972 l 259 972 l 259 592 l 343 517 l 330 517 l 415 592 l 415 972 l 611 972 l 611 521 l 435 357 l 435 0 l 238 0 m 337 99 l 336 99 l 336 393 l 513 551 l 513 874 l 514 874 l 514 551 l 336 393 l 336 393 l 159 551 l 159 874 l 160 874 l 160 551 l 337 393 l 337 99 m 171 1251 l 390 1251 l 503 1120 l 390 990 l 220 990 l 220 1099 l 313 1099 l 334 1120 l 313 1142 l 171 1142 l 171 1251 m 244 1198 l 244 1198 l 353 1198 l 422 1120 l 353 1044 l 294 1044 l 294 1044 l 353 1044 l 422 1120 l 353 1198 l 244 1198 z "},"Ȳ":{"ha":674,"x_min":63,"x_max":611,"o":"m 238 0 l 238 357 l 63 521 l 63 972 l 259 972 l 259 592 l 343 517 l 330 517 l 415 592 l 415 972 l 611 972 l 611 521 l 435 357 l 435 0 l 238 0 m 337 99 l 336 99 l 336 393 l 513 551 l 513 874 l 514 874 l 514 551 l 336 393 l 336 393 l 159 551 l 159 874 l 160 874 l 160 551 l 337 393 l 337 99 m 117 994 l 117 1172 l 556 1172 l 556 994 l 117 994 m 208 1081 l 474 1081 l 474 1081 l 208 1081 l 208 1081 z "},"Ỹ":{"ha":674,"x_min":63,"x_max":611,"o":"m 238 0 l 238 357 l 63 521 l 63 972 l 259 972 l 259 592 l 343 517 l 330 517 l 415 592 l 415 972 l 611 972 l 611 521 l 435 357 l 435 0 l 238 0 m 337 99 l 336 99 l 336 393 l 513 551 l 513 874 l 514 874 l 514 551 l 336 393 l 336 393 l 159 551 l 159 874 l 160 874 l 160 551 l 337 393 l 337 99 m 143 994 l 143 1089 l 221 1167 l 344 1167 l 383 1128 l 396 1128 l 396 1167 l 529 1167 l 529 1072 l 451 994 l 328 994 l 289 1033 l 276 1033 l 276 994 l 143 994 m 212 1043 l 211 1043 l 211 1057 l 257 1107 l 314 1107 l 358 1056 l 419 1056 l 465 1106 l 465 1119 l 466 1119 l 466 1106 l 419 1056 l 358 1056 l 314 1107 l 257 1107 l 212 1057 l 212 1043 z "},"Z":{"ha":574,"x_min":63,"x_max":511,"o":"m 172 99 l 419 99 l 419 99 l 172 99 l 172 282 l 411 699 l 411 874 l 172 874 l 172 874 l 411 874 l 411 699 l 172 282 l 172 99 m 63 0 l 63 308 l 301 728 l 301 776 l 76 776 l 76 972 l 511 972 l 511 667 l 277 253 l 277 197 l 511 197 l 511 0 l 63 0 z "},"Ź":{"ha":574,"x_min":63,"x_max":570,"o":"m 172 99 l 419 99 l 419 99 l 172 99 l 172 282 l 411 699 l 411 874 l 172 874 l 172 874 l 411 874 l 411 699 l 172 282 l 172 99 m 63 0 l 63 308 l 301 728 l 301 776 l 76 776 l 76 972 l 511 972 l 511 667 l 277 253 l 277 197 l 511 197 l 511 0 l 63 0 m 201 994 l 371 1178 l 570 1178 l 373 994 l 201 994 m 333 1042 l 333 1042 l 416 1129 l 417 1129 l 333 1042 z "},"Ž":{"ha":574,"x_min":44,"x_max":530,"o":"m 172 99 l 419 99 l 419 99 l 172 99 l 172 282 l 411 699 l 411 874 l 172 874 l 172 874 l 411 874 l 411 699 l 172 282 l 172 99 m 63 0 l 63 308 l 301 728 l 301 776 l 76 776 l 76 972 l 511 972 l 511 667 l 277 253 l 277 197 l 511 197 l 511 0 l 63 0 m 199 994 l 44 1192 l 236 1192 l 287 1117 l 338 1192 l 530 1192 l 374 994 l 199 994 m 246 1049 l 325 1049 l 384 1129 l 384 1129 l 325 1049 l 246 1049 l 187 1129 l 187 1129 l 246 1049 z "},"Ż":{"ha":574,"x_min":63,"x_max":511,"o":"m 172 99 l 419 99 l 419 99 l 172 99 l 172 282 l 411 699 l 411 874 l 172 874 l 172 874 l 411 874 l 411 699 l 172 282 l 172 99 m 63 0 l 63 308 l 301 728 l 301 776 l 76 776 l 76 972 l 511 972 l 511 667 l 277 253 l 277 197 l 511 197 l 511 0 l 63 0 m 214 1008 l 214 1154 l 361 1154 l 361 1008 l 214 1008 m 287 1071 l 286 1071 l 286 1090 l 287 1090 l 287 1071 z "},"Ẓ":{"ha":574,"x_min":63,"x_max":511,"o":"m 172 99 l 419 99 l 419 99 l 172 99 l 172 282 l 411 699 l 411 874 l 172 874 l 172 874 l 411 874 l 411 699 l 172 282 l 172 99 m 63 0 l 63 308 l 301 728 l 301 776 l 76 776 l 76 972 l 511 972 l 511 667 l 277 253 l 277 197 l 511 197 l 511 0 l 63 0 m 213 -188 l 213 -42 l 360 -42 l 360 -188 l 213 -188 m 286 -126 l 285 -126 l 285 -106 l 286 -106 l 286 -126 z "},"a":{"ha":645,"x_min":66,"x_max":579,"o":"m 209 0 l 66 143 l 66 341 l 209 484 l 383 484 l 383 511 l 340 553 l 76 553 l 76 750 l 436 750 l 579 607 l 579 143 l 436 0 l 209 0 m 260 96 l 171 183 l 171 313 l 244 386 l 483 386 l 483 190 l 387 96 l 260 96 m 260 96 l 387 96 l 483 190 l 483 560 l 392 649 l 163 649 l 163 649 l 392 649 l 483 560 l 483 386 l 244 386 l 171 313 l 171 183 l 260 96 m 305 197 l 340 197 l 383 239 l 383 294 l 291 294 l 262 265 l 262 239 l 305 197 z "},"á":{"ha":645,"x_min":66,"x_max":607,"o":"m 209 0 l 66 143 l 66 341 l 209 484 l 383 484 l 383 511 l 340 553 l 76 553 l 76 750 l 436 750 l 579 607 l 579 143 l 436 0 l 209 0 m 260 96 l 171 183 l 171 313 l 244 386 l 483 386 l 483 190 l 387 96 l 260 96 m 260 96 l 387 96 l 483 190 l 483 560 l 392 649 l 163 649 l 163 649 l 392 649 l 483 560 l 483 386 l 244 386 l 171 313 l 171 183 l 260 96 m 305 197 l 340 197 l 383 239 l 383 294 l 291 294 l 262 265 l 262 239 l 305 197 m 238 772 l 408 956 l 607 956 l 410 772 l 238 772 m 370 819 l 369 819 l 453 907 l 453 907 l 370 819 z "},"ă":{"ha":645,"x_min":66,"x_max":579,"o":"m 209 0 l 66 143 l 66 341 l 209 484 l 383 484 l 383 511 l 340 553 l 76 553 l 76 750 l 436 750 l 579 607 l 579 143 l 436 0 l 209 0 m 260 96 l 171 183 l 171 313 l 244 386 l 483 386 l 483 190 l 387 96 l 260 96 m 260 96 l 387 96 l 483 190 l 483 560 l 392 649 l 163 649 l 163 649 l 392 649 l 483 560 l 483 386 l 244 386 l 171 313 l 171 183 l 260 96 m 305 197 l 340 197 l 383 239 l 383 294 l 291 294 l 262 265 l 262 239 l 305 197 m 241 772 l 163 850 l 163 958 l 297 958 l 297 906 l 351 906 l 351 958 l 484 958 l 484 850 l 406 772 l 241 772 m 277 833 l 372 833 l 417 883 l 417 901 l 417 901 l 417 883 l 372 833 l 277 833 l 231 883 l 231 901 l 231 901 l 231 883 l 277 833 z "},"ắ":{"ha":645,"x_min":66,"x_max":607,"o":"m 209 0 l 66 143 l 66 341 l 209 484 l 383 484 l 383 511 l 340 553 l 76 553 l 76 750 l 436 750 l 579 607 l 579 143 l 436 0 l 209 0 m 260 96 l 171 183 l 171 313 l 244 386 l 483 386 l 483 190 l 387 96 l 260 96 m 260 96 l 387 96 l 483 190 l 483 560 l 392 649 l 163 649 l 163 649 l 392 649 l 483 560 l 483 386 l 244 386 l 171 313 l 171 183 l 260 96 m 305 197 l 340 197 l 383 239 l 383 294 l 291 294 l 262 265 l 262 239 l 305 197 m 241 772 l 163 850 l 163 958 l 297 958 l 297 906 l 351 906 l 351 958 l 484 958 l 484 850 l 406 772 l 241 772 m 277 833 l 372 833 l 417 883 l 417 901 l 417 901 l 417 883 l 372 833 l 277 833 l 231 883 l 231 901 l 231 901 l 231 883 l 277 833 m 238 981 l 408 1164 l 607 1164 l 410 981 l 238 981 m 370 1028 l 369 1028 l 453 1115 l 453 1115 l 370 1028 z "},"ặ":{"ha":645,"x_min":66,"x_max":579,"o":"m 209 0 l 66 143 l 66 341 l 209 484 l 383 484 l 383 511 l 340 553 l 76 553 l 76 750 l 436 750 l 579 607 l 579 143 l 436 0 l 209 0 m 260 96 l 171 183 l 171 313 l 244 386 l 483 386 l 483 190 l 387 96 l 260 96 m 260 96 l 387 96 l 483 190 l 483 560 l 392 649 l 163 649 l 163 649 l 392 649 l 483 560 l 483 386 l 244 386 l 171 313 l 171 183 l 260 96 m 305 197 l 340 197 l 383 239 l 383 294 l 291 294 l 262 265 l 262 239 l 305 197 m 250 -188 l 250 -42 l 397 -42 l 397 -188 l 250 -188 m 323 -126 l 322 -126 l 322 -106 l 323 -106 l 323 -126 m 241 772 l 163 850 l 163 958 l 297 958 l 297 906 l 351 906 l 351 958 l 484 958 l 484 850 l 406 772 l 241 772 m 277 833 l 372 833 l 417 883 l 417 901 l 417 901 l 417 883 l 372 833 l 277 833 l 231 883 l 231 901 l 231 901 l 231 883 l 277 833 z "},"ằ":{"ha":645,"x_min":56,"x_max":579,"o":"m 209 0 l 66 143 l 66 341 l 209 484 l 383 484 l 383 511 l 340 553 l 76 553 l 76 750 l 436 750 l 579 607 l 579 143 l 436 0 l 209 0 m 260 96 l 171 183 l 171 313 l 244 386 l 483 386 l 483 190 l 387 96 l 260 96 m 260 96 l 387 96 l 483 190 l 483 560 l 392 649 l 163 649 l 163 649 l 392 649 l 483 560 l 483 386 l 244 386 l 171 313 l 171 183 l 260 96 m 305 197 l 340 197 l 383 239 l 383 294 l 291 294 l 262 265 l 262 239 l 305 197 m 241 772 l 163 850 l 163 958 l 297 958 l 297 906 l 351 906 l 351 958 l 484 958 l 484 850 l 406 772 l 241 772 m 277 833 l 372 833 l 417 883 l 417 901 l 417 901 l 417 883 l 372 833 l 277 833 l 231 883 l 231 901 l 231 901 l 231 883 l 277 833 m 424 981 l 253 981 l 56 1164 l 255 1164 l 424 981 m 292 1028 l 209 1115 l 210 1115 l 293 1028 l 292 1028 z "},"ẳ":{"ha":645,"x_min":66,"x_max":579,"o":"m 209 0 l 66 143 l 66 341 l 209 484 l 383 484 l 383 511 l 340 553 l 76 553 l 76 750 l 436 750 l 579 607 l 579 143 l 436 0 l 209 0 m 260 96 l 171 183 l 171 313 l 244 386 l 483 386 l 483 190 l 387 96 l 260 96 m 260 96 l 387 96 l 483 190 l 483 560 l 392 649 l 163 649 l 163 649 l 392 649 l 483 560 l 483 386 l 244 386 l 171 313 l 171 183 l 260 96 m 305 197 l 340 197 l 383 239 l 383 294 l 291 294 l 262 265 l 262 239 l 305 197 m 241 772 l 163 850 l 163 958 l 297 958 l 297 906 l 351 906 l 351 958 l 484 958 l 484 850 l 406 772 l 241 772 m 277 833 l 372 833 l 417 883 l 417 901 l 417 901 l 417 883 l 372 833 l 277 833 l 231 883 l 231 901 l 231 901 l 231 883 l 277 833 m 158 1238 l 376 1238 l 490 1106 l 376 976 l 207 976 l 207 1085 l 300 1085 l 321 1106 l 300 1128 l 158 1128 l 158 1238 m 231 1184 l 231 1184 l 340 1184 l 408 1106 l 340 1030 l 281 1030 l 281 1030 l 340 1030 l 408 1106 l 340 1184 l 231 1184 z "},"ẵ":{"ha":645,"x_min":66,"x_max":579,"o":"m 209 0 l 66 143 l 66 341 l 209 484 l 383 484 l 383 511 l 340 553 l 76 553 l 76 750 l 436 750 l 579 607 l 579 143 l 436 0 l 209 0 m 260 96 l 171 183 l 171 313 l 244 386 l 483 386 l 483 190 l 387 96 l 260 96 m 260 96 l 387 96 l 483 190 l 483 560 l 392 649 l 163 649 l 163 649 l 392 649 l 483 560 l 483 386 l 244 386 l 171 313 l 171 183 l 260 96 m 305 197 l 340 197 l 383 239 l 383 294 l 291 294 l 262 265 l 262 239 l 305 197 m 241 772 l 163 850 l 163 958 l 297 958 l 297 906 l 351 906 l 351 958 l 484 958 l 484 850 l 406 772 l 241 772 m 277 833 l 372 833 l 417 883 l 417 901 l 417 901 l 417 883 l 372 833 l 277 833 l 231 883 l 231 901 l 231 901 l 231 883 l 277 833 m 130 981 l 130 1075 l 208 1153 l 331 1153 l 370 1114 l 383 1114 l 383 1153 l 516 1153 l 516 1058 l 438 981 l 315 981 l 276 1019 l 263 1019 l 263 981 l 130 981 m 199 1029 l 198 1029 l 198 1043 l 244 1093 l 301 1093 l 345 1042 l 406 1042 l 452 1092 l 452 1106 l 453 1106 l 453 1092 l 406 1042 l 345 1042 l 301 1093 l 244 1093 l 199 1043 l 199 1029 z "},"ǎ":{"ha":645,"x_min":66,"x_max":579,"o":"m 209 0 l 66 143 l 66 341 l 209 484 l 383 484 l 383 511 l 340 553 l 76 553 l 76 750 l 436 750 l 579 607 l 579 143 l 436 0 l 209 0 m 260 96 l 171 183 l 171 313 l 244 386 l 483 386 l 483 190 l 387 96 l 260 96 m 260 96 l 387 96 l 483 190 l 483 560 l 392 649 l 163 649 l 163 649 l 392 649 l 483 560 l 483 386 l 244 386 l 171 313 l 171 183 l 260 96 m 305 197 l 340 197 l 383 239 l 383 294 l 291 294 l 262 265 l 262 239 l 305 197 m 236 772 l 81 969 l 273 969 l 324 894 l 374 969 l 567 969 l 411 772 l 236 772 m 283 826 l 362 826 l 421 907 l 421 907 l 362 826 l 283 826 l 224 907 l 224 907 l 283 826 z "},"â":{"ha":645,"x_min":66,"x_max":579,"o":"m 209 0 l 66 143 l 66 341 l 209 484 l 383 484 l 383 511 l 340 553 l 76 553 l 76 750 l 436 750 l 579 607 l 579 143 l 436 0 l 209 0 m 260 96 l 171 183 l 171 313 l 244 386 l 483 386 l 483 190 l 387 96 l 260 96 m 260 96 l 387 96 l 483 190 l 483 560 l 392 649 l 163 649 l 163 649 l 392 649 l 483 560 l 483 386 l 244 386 l 171 313 l 171 183 l 260 96 m 305 197 l 340 197 l 383 239 l 383 294 l 291 294 l 262 265 l 262 239 l 305 197 m 236 969 l 411 969 l 567 772 l 374 772 l 324 847 l 273 772 l 81 772 l 236 969 m 283 915 l 224 835 l 224 835 l 283 915 l 362 915 l 421 835 l 421 835 l 362 915 l 283 915 z "},"ấ":{"ha":645,"x_min":66,"x_max":828,"o":"m 209 0 l 66 143 l 66 341 l 209 484 l 383 484 l 383 511 l 340 553 l 76 553 l 76 750 l 436 750 l 579 607 l 579 143 l 436 0 l 209 0 m 260 96 l 171 183 l 171 313 l 244 386 l 483 386 l 483 190 l 387 96 l 260 96 m 260 96 l 387 96 l 483 190 l 483 560 l 392 649 l 163 649 l 163 649 l 392 649 l 483 560 l 483 386 l 244 386 l 171 313 l 171 183 l 260 96 m 305 197 l 340 197 l 383 239 l 383 294 l 291 294 l 262 265 l 262 239 l 305 197 m 236 969 l 411 969 l 567 772 l 374 772 l 324 847 l 273 772 l 81 772 l 236 969 m 283 915 l 224 835 l 224 835 l 283 915 l 362 915 l 421 835 l 421 835 l 362 915 l 283 915 m 460 931 l 629 1114 l 828 1114 l 631 931 l 460 931 m 592 978 l 591 978 l 674 1065 l 675 1065 l 592 978 z "},"ậ":{"ha":645,"x_min":66,"x_max":579,"o":"m 209 0 l 66 143 l 66 341 l 209 484 l 383 484 l 383 511 l 340 553 l 76 553 l 76 750 l 436 750 l 579 607 l 579 143 l 436 0 l 209 0 m 260 96 l 171 183 l 171 313 l 244 386 l 483 386 l 483 190 l 387 96 l 260 96 m 260 96 l 387 96 l 483 190 l 483 560 l 392 649 l 163 649 l 163 649 l 392 649 l 483 560 l 483 386 l 244 386 l 171 313 l 171 183 l 260 96 m 305 197 l 340 197 l 383 239 l 383 294 l 291 294 l 262 265 l 262 239 l 305 197 m 250 -188 l 250 -42 l 397 -42 l 397 -188 l 250 -188 m 323 -126 l 322 -126 l 322 -106 l 323 -106 l 323 -126 m 236 969 l 411 969 l 567 772 l 374 772 l 324 847 l 273 772 l 81 772 l 236 969 m 283 915 l 224 835 l 224 835 l 283 915 l 362 915 l 421 835 l 421 835 l 362 915 l 283 915 z "},"ầ":{"ha":645,"x_min":66,"x_max":663,"o":"m 209 0 l 66 143 l 66 341 l 209 484 l 383 484 l 383 511 l 340 553 l 76 553 l 76 750 l 436 750 l 579 607 l 579 143 l 436 0 l 209 0 m 260 96 l 171 183 l 171 313 l 244 386 l 483 386 l 483 190 l 387 96 l 260 96 m 260 96 l 387 96 l 483 190 l 483 560 l 392 649 l 163 649 l 163 649 l 392 649 l 483 560 l 483 386 l 244 386 l 171 313 l 171 183 l 260 96 m 305 197 l 340 197 l 383 239 l 383 294 l 291 294 l 262 265 l 262 239 l 305 197 m 236 969 l 411 969 l 567 772 l 374 772 l 324 847 l 273 772 l 81 772 l 236 969 m 283 915 l 224 835 l 224 835 l 283 915 l 362 915 l 421 835 l 421 835 l 362 915 l 283 915 m 663 931 l 491 931 l 294 1114 l 493 1114 l 663 931 m 531 978 l 447 1065 l 448 1065 l 531 978 l 531 978 z "},"ẩ":{"ha":645,"x_min":66,"x_max":753,"o":"m 209 0 l 66 143 l 66 341 l 209 484 l 383 484 l 383 511 l 340 553 l 76 553 l 76 750 l 436 750 l 579 607 l 579 143 l 436 0 l 209 0 m 260 96 l 171 183 l 171 313 l 244 386 l 483 386 l 483 190 l 387 96 l 260 96 m 260 96 l 387 96 l 483 190 l 483 560 l 392 649 l 163 649 l 163 649 l 392 649 l 483 560 l 483 386 l 244 386 l 171 313 l 171 183 l 260 96 m 305 197 l 340 197 l 383 239 l 383 294 l 291 294 l 262 265 l 262 239 l 305 197 m 236 969 l 411 969 l 567 772 l 374 772 l 324 847 l 273 772 l 81 772 l 236 969 m 283 915 l 224 835 l 224 835 l 283 915 l 362 915 l 421 835 l 421 835 l 362 915 l 283 915 m 421 1166 l 640 1166 l 753 1035 l 640 905 l 470 905 l 470 1014 l 563 1014 l 584 1035 l 563 1057 l 421 1057 l 421 1166 m 494 1113 l 494 1113 l 603 1113 l 672 1035 l 603 958 l 544 958 l 544 958 l 603 958 l 672 1035 l 603 1113 l 494 1113 z "},"ẫ":{"ha":645,"x_min":66,"x_max":579,"o":"m 209 0 l 66 143 l 66 341 l 209 484 l 383 484 l 383 511 l 340 553 l 76 553 l 76 750 l 436 750 l 579 607 l 579 143 l 436 0 l 209 0 m 260 96 l 171 183 l 171 313 l 244 386 l 483 386 l 483 190 l 387 96 l 260 96 m 260 96 l 387 96 l 483 190 l 483 560 l 392 649 l 163 649 l 163 649 l 392 649 l 483 560 l 483 386 l 244 386 l 171 313 l 171 183 l 260 96 m 305 197 l 340 197 l 383 239 l 383 294 l 291 294 l 262 265 l 262 239 l 305 197 m 236 969 l 411 969 l 567 772 l 374 772 l 324 847 l 273 772 l 81 772 l 236 969 m 283 915 l 224 835 l 224 835 l 283 915 l 362 915 l 421 835 l 421 835 l 362 915 l 283 915 m 130 992 l 130 1086 l 208 1164 l 331 1164 l 370 1125 l 383 1125 l 383 1164 l 516 1164 l 516 1069 l 438 992 l 315 992 l 276 1031 l 263 1031 l 263 992 l 130 992 m 199 1040 l 198 1040 l 198 1054 l 244 1104 l 301 1104 l 345 1053 l 406 1053 l 452 1103 l 452 1117 l 453 1117 l 453 1103 l 406 1053 l 345 1053 l 301 1104 l 244 1104 l 199 1054 l 199 1040 z "},"ȁ":{"ha":645,"x_min":-90,"x_max":579,"o":"m 209 0 l 66 143 l 66 341 l 209 484 l 383 484 l 383 511 l 340 553 l 76 553 l 76 750 l 436 750 l 579 607 l 579 143 l 436 0 l 209 0 m 260 96 l 171 183 l 171 313 l 244 386 l 483 386 l 483 190 l 387 96 l 260 96 m 260 96 l 387 96 l 483 190 l 483 560 l 392 649 l 163 649 l 163 649 l 392 649 l 483 560 l 483 386 l 244 386 l 171 313 l 171 183 l 260 96 m 305 197 l 340 197 l 383 239 l 383 294 l 291 294 l 262 265 l 262 239 l 305 197 m 551 772 l 380 772 l 183 956 l 382 956 l 551 772 m 419 819 l 336 907 l 337 907 l 420 819 l 419 819 m 279 772 l 108 772 l -90 956 l 110 956 l 279 772 m 147 819 l 64 907 l 65 907 l 148 819 l 147 819 z "},"ä":{"ha":645,"x_min":66,"x_max":579,"o":"m 209 0 l 66 143 l 66 341 l 209 484 l 383 484 l 383 511 l 340 553 l 76 553 l 76 750 l 436 750 l 579 607 l 579 143 l 436 0 l 209 0 m 260 96 l 171 183 l 171 313 l 244 386 l 483 386 l 483 190 l 387 96 l 260 96 m 260 96 l 387 96 l 483 190 l 483 560 l 392 649 l 163 649 l 163 649 l 392 649 l 483 560 l 483 386 l 244 386 l 171 313 l 171 183 l 260 96 m 305 197 l 340 197 l 383 239 l 383 294 l 291 294 l 262 265 l 262 239 l 305 197 m 395 786 l 395 932 l 542 932 l 542 786 l 395 786 m 106 786 l 106 932 l 253 932 l 253 786 l 106 786 m 179 851 l 178 851 l 178 865 l 179 865 l 179 851 m 469 851 l 469 851 l 469 865 l 469 865 l 469 851 z "},"ạ":{"ha":645,"x_min":66,"x_max":579,"o":"m 209 0 l 66 143 l 66 341 l 209 484 l 383 484 l 383 511 l 340 553 l 76 553 l 76 750 l 436 750 l 579 607 l 579 143 l 436 0 l 209 0 m 260 96 l 171 183 l 171 313 l 244 386 l 483 386 l 483 190 l 387 96 l 260 96 m 260 96 l 387 96 l 483 190 l 483 560 l 392 649 l 163 649 l 163 649 l 392 649 l 483 560 l 483 386 l 244 386 l 171 313 l 171 183 l 260 96 m 305 197 l 340 197 l 383 239 l 383 294 l 291 294 l 262 265 l 262 239 l 305 197 m 250 -188 l 250 -42 l 397 -42 l 397 -188 l 250 -188 m 323 -126 l 322 -126 l 322 -106 l 323 -106 l 323 -126 z "},"à":{"ha":645,"x_min":56,"x_max":579,"o":"m 209 0 l 66 143 l 66 341 l 209 484 l 383 484 l 383 511 l 340 553 l 76 553 l 76 750 l 436 750 l 579 607 l 579 143 l 436 0 l 209 0 m 260 96 l 171 183 l 171 313 l 244 386 l 483 386 l 483 190 l 387 96 l 260 96 m 260 96 l 387 96 l 483 190 l 483 560 l 392 649 l 163 649 l 163 649 l 392 649 l 483 560 l 483 386 l 244 386 l 171 313 l 171 183 l 260 96 m 305 197 l 340 197 l 383 239 l 383 294 l 291 294 l 262 265 l 262 239 l 305 197 m 424 772 l 253 772 l 56 956 l 255 956 l 424 772 m 292 819 l 209 907 l 210 907 l 293 819 l 292 819 z "},"ả":{"ha":645,"x_min":66,"x_max":579,"o":"m 209 0 l 66 143 l 66 341 l 209 484 l 383 484 l 383 511 l 340 553 l 76 553 l 76 750 l 436 750 l 579 607 l 579 143 l 436 0 l 209 0 m 260 96 l 171 183 l 171 313 l 244 386 l 483 386 l 483 190 l 387 96 l 260 96 m 260 96 l 387 96 l 483 190 l 483 560 l 392 649 l 163 649 l 163 649 l 392 649 l 483 560 l 483 386 l 244 386 l 171 313 l 171 183 l 260 96 m 305 197 l 340 197 l 383 239 l 383 294 l 291 294 l 262 265 l 262 239 l 305 197 m 158 1029 l 376 1029 l 490 898 l 376 768 l 207 768 l 207 877 l 300 877 l 321 898 l 300 920 l 158 920 l 158 1029 m 231 976 l 231 976 l 340 976 l 408 898 l 340 822 l 281 822 l 281 822 l 340 822 l 408 898 l 340 976 l 231 976 z "},"ȃ":{"ha":645,"x_min":66,"x_max":579,"o":"m 209 0 l 66 143 l 66 341 l 209 484 l 383 484 l 383 511 l 340 553 l 76 553 l 76 750 l 436 750 l 579 607 l 579 143 l 436 0 l 209 0 m 260 96 l 171 183 l 171 313 l 244 386 l 483 386 l 483 190 l 387 96 l 260 96 m 260 96 l 387 96 l 483 190 l 483 560 l 392 649 l 163 649 l 163 649 l 392 649 l 483 560 l 483 386 l 244 386 l 171 313 l 171 183 l 260 96 m 305 197 l 340 197 l 383 239 l 383 294 l 291 294 l 262 265 l 262 239 l 305 197 m 406 958 l 484 880 l 484 772 l 351 772 l 351 824 l 297 824 l 297 772 l 163 772 l 163 880 l 241 958 l 406 958 m 370 897 l 276 897 l 230 847 l 230 828 l 230 828 l 230 847 l 276 897 l 370 897 l 416 847 l 416 828 l 416 828 l 416 847 l 370 897 z "},"ā":{"ha":645,"x_min":66,"x_max":579,"o":"m 209 0 l 66 143 l 66 341 l 209 484 l 383 484 l 383 511 l 340 553 l 76 553 l 76 750 l 436 750 l 579 607 l 579 143 l 436 0 l 209 0 m 260 96 l 171 183 l 171 313 l 244 386 l 483 386 l 483 190 l 387 96 l 260 96 m 260 96 l 387 96 l 483 190 l 483 560 l 392 649 l 163 649 l 163 649 l 392 649 l 483 560 l 483 386 l 244 386 l 171 313 l 171 183 l 260 96 m 305 197 l 340 197 l 383 239 l 383 294 l 291 294 l 262 265 l 262 239 l 305 197 m 104 772 l 104 949 l 543 949 l 543 772 l 104 772 m 194 859 l 461 859 l 461 859 l 194 859 l 194 859 z "},"ą":{"ha":771,"x_min":74,"x_max":696,"o":"m 400 -256 l 273 -125 l 398 0 l 217 0 l 74 143 l 74 331 l 217 474 l 499 474 l 499 511 l 457 553 l 83 553 l 83 750 l 553 750 l 696 607 l 696 143 l 428 -125 l 449 -147 l 612 -147 l 612 -256 l 400 -256 m 419 -201 l 552 -201 l 552 -201 l 419 -201 l 349 -125 l 601 148 l 601 551 l 508 649 l 191 649 l 191 649 l 508 649 l 601 551 l 601 378 l 258 378 l 173 294 l 173 189 l 265 97 l 556 97 l 349 -125 l 419 -201 m 313 197 l 499 197 l 499 284 l 299 284 l 269 255 l 269 239 l 313 197 m 265 97 l 173 189 l 173 294 l 258 378 l 601 378 l 601 148 l 556 97 l 265 97 z "},"å":{"ha":645,"x_min":66,"x_max":579,"o":"m 209 0 l 66 143 l 66 341 l 209 484 l 383 484 l 383 511 l 340 553 l 76 553 l 76 750 l 436 750 l 579 607 l 579 143 l 436 0 l 209 0 m 260 96 l 171 183 l 171 313 l 244 386 l 483 386 l 483 190 l 387 96 l 260 96 m 260 96 l 387 96 l 483 190 l 483 560 l 392 649 l 163 649 l 163 649 l 392 649 l 483 560 l 483 386 l 244 386 l 171 313 l 171 183 l 260 96 m 305 197 l 340 197 l 383 239 l 383 294 l 291 294 l 262 265 l 262 239 l 305 197 m 260 771 l 192 838 l 192 959 l 260 1027 l 387 1027 l 455 959 l 455 838 l 387 771 l 260 771 m 286 830 l 361 830 l 397 865 l 397 935 l 361 971 l 286 971 l 250 935 l 250 865 l 286 830 m 286 830 l 250 865 l 250 935 l 286 971 l 361 971 l 397 935 l 397 865 l 361 830 l 286 830 m 317 887 l 329 887 l 335 894 l 335 904 l 329 910 l 317 910 l 311 904 l 311 894 l 317 887 z "},"ǻ":{"ha":645,"x_min":66,"x_max":608,"o":"m 209 0 l 66 143 l 66 341 l 209 484 l 383 484 l 383 511 l 340 553 l 76 553 l 76 750 l 436 750 l 579 607 l 579 143 l 436 0 l 209 0 m 260 96 l 171 183 l 171 313 l 244 386 l 483 386 l 483 190 l 387 96 l 260 96 m 260 96 l 387 96 l 483 190 l 483 560 l 392 649 l 163 649 l 163 649 l 392 649 l 483 560 l 483 386 l 244 386 l 171 313 l 171 183 l 260 96 m 305 197 l 340 197 l 383 239 l 383 294 l 291 294 l 262 265 l 262 239 l 305 197 m 260 771 l 192 838 l 192 959 l 260 1027 l 387 1027 l 455 959 l 455 838 l 387 771 l 260 771 m 286 830 l 361 830 l 397 865 l 397 935 l 361 971 l 286 971 l 250 935 l 250 865 l 286 830 m 286 830 l 250 865 l 250 935 l 286 971 l 361 971 l 397 935 l 397 865 l 361 830 l 286 830 m 317 887 l 329 887 l 335 894 l 335 904 l 329 910 l 317 910 l 311 904 l 311 894 l 317 887 m 239 1049 l 408 1233 l 608 1233 l 410 1049 l 239 1049 m 371 1097 l 370 1097 l 453 1184 l 454 1184 l 371 1097 z "},"ã":{"ha":645,"x_min":66,"x_max":579,"o":"m 209 0 l 66 143 l 66 341 l 209 484 l 383 484 l 383 511 l 340 553 l 76 553 l 76 750 l 436 750 l 579 607 l 579 143 l 436 0 l 209 0 m 260 96 l 171 183 l 171 313 l 244 386 l 483 386 l 483 190 l 387 96 l 260 96 m 260 96 l 387 96 l 483 190 l 483 560 l 392 649 l 163 649 l 163 649 l 392 649 l 483 560 l 483 386 l 244 386 l 171 313 l 171 183 l 260 96 m 305 197 l 340 197 l 383 239 l 383 294 l 291 294 l 262 265 l 262 239 l 305 197 m 130 772 l 130 867 l 208 944 l 331 944 l 370 906 l 383 906 l 383 944 l 516 944 l 516 850 l 438 772 l 315 772 l 276 811 l 263 811 l 263 772 l 130 772 m 199 821 l 198 821 l 198 835 l 244 885 l 301 885 l 345 833 l 406 833 l 452 883 l 452 897 l 453 897 l 453 883 l 406 833 l 345 833 l 301 885 l 244 885 l 199 835 l 199 821 z "},"æ":{"ha":1222,"x_min":74,"x_max":1143,"o":"m 225 0 l 82 143 l 82 338 l 225 481 l 463 481 l 508 526 l 508 511 l 465 553 l 322 553 l 232 465 l 74 598 l 225 750 l 562 750 l 608 703 l 655 750 l 992 750 l 1135 607 l 1135 404 l 992 269 l 754 269 l 708 224 l 708 239 l 751 197 l 895 197 l 985 285 l 1143 152 l 992 0 l 655 0 l 608 47 l 562 0 l 225 0 m 264 97 l 510 97 l 609 197 l 705 97 l 956 97 l 1018 160 l 1018 160 l 956 97 l 705 97 l 609 197 l 609 226 l 742 363 l 964 363 l 1049 445 l 1049 560 l 957 651 l 707 651 l 609 552 l 513 652 l 256 652 l 203 599 l 203 599 l 256 652 l 513 652 l 609 552 l 609 519 l 468 385 l 251 385 l 168 304 l 168 194 l 264 97 m 264 97 l 168 194 l 168 304 l 251 385 l 468 385 l 609 519 l 609 197 l 510 97 l 264 97 m 609 226 l 609 552 l 707 651 l 957 651 l 1049 560 l 1049 445 l 964 363 l 742 363 l 609 226 m 322 197 l 465 197 l 508 239 l 508 306 l 495 292 l 308 292 l 278 263 l 278 239 l 322 197 m 708 444 l 722 458 l 909 458 l 938 487 l 938 511 l 895 553 l 751 553 l 708 511 l 708 444 z "},"ǽ":{"ha":1222,"x_min":74,"x_max":1143,"o":"m 225 0 l 82 143 l 82 338 l 225 481 l 463 481 l 508 526 l 508 511 l 465 553 l 322 553 l 232 465 l 74 598 l 225 750 l 562 750 l 608 703 l 655 750 l 992 750 l 1135 607 l 1135 404 l 992 269 l 754 269 l 708 224 l 708 239 l 751 197 l 895 197 l 985 285 l 1143 152 l 992 0 l 655 0 l 608 47 l 562 0 l 225 0 m 264 97 l 510 97 l 609 197 l 705 97 l 956 97 l 1018 160 l 1018 160 l 956 97 l 705 97 l 609 197 l 609 226 l 742 363 l 964 363 l 1049 445 l 1049 560 l 957 651 l 707 651 l 609 552 l 513 652 l 256 652 l 203 599 l 203 599 l 256 652 l 513 652 l 609 552 l 609 519 l 468 385 l 251 385 l 168 304 l 168 194 l 264 97 m 264 97 l 168 194 l 168 304 l 251 385 l 468 385 l 609 519 l 609 197 l 510 97 l 264 97 m 609 226 l 609 552 l 707 651 l 957 651 l 1049 560 l 1049 445 l 964 363 l 742 363 l 609 226 m 322 197 l 465 197 l 508 239 l 508 306 l 495 292 l 308 292 l 278 263 l 278 239 l 322 197 m 708 444 l 722 458 l 909 458 l 938 487 l 938 511 l 895 553 l 751 553 l 708 511 l 708 444 m 526 772 l 695 956 l 894 956 l 697 772 l 526 772 m 658 819 l 657 819 l 740 907 l 741 907 l 658 819 z "},"b":{"ha":672,"x_min":76,"x_max":606,"o":"m 220 0 l 76 143 l 76 1042 l 273 1042 l 273 737 l 287 750 l 462 750 l 606 607 l 606 143 l 462 0 l 220 0 m 270 94 l 174 188 l 174 530 l 297 652 l 425 652 l 507 572 l 507 188 l 411 94 l 270 94 m 315 197 l 367 197 l 409 239 l 409 511 l 367 554 l 328 554 l 273 498 l 273 239 l 315 197 m 270 94 l 411 94 l 507 188 l 507 572 l 425 652 l 297 652 l 174 530 l 174 949 l 174 949 l 174 188 l 270 94 z "},"c":{"ha":612,"x_min":66,"x_max":535,"o":"m 209 0 l 66 143 l 66 607 l 209 750 l 535 750 l 535 553 l 305 553 l 263 511 l 263 239 l 305 197 l 535 197 l 535 0 l 209 0 m 264 98 l 447 98 l 447 98 l 264 98 l 165 193 l 165 562 l 258 653 l 447 653 l 447 653 l 258 653 l 165 562 l 165 193 l 264 98 z "},"ć":{"ha":612,"x_min":66,"x_max":590,"o":"m 209 0 l 66 143 l 66 607 l 209 750 l 535 750 l 535 553 l 305 553 l 263 511 l 263 239 l 305 197 l 535 197 l 535 0 l 209 0 m 264 98 l 447 98 l 447 98 l 264 98 l 165 193 l 165 562 l 258 653 l 447 653 l 447 653 l 258 653 l 165 562 l 165 193 l 264 98 m 222 772 l 391 956 l 590 956 l 393 772 l 222 772 m 353 819 l 353 819 l 436 907 l 437 907 l 353 819 z "},"č":{"ha":612,"x_min":64,"x_max":550,"o":"m 209 0 l 66 143 l 66 607 l 209 750 l 535 750 l 535 553 l 305 553 l 263 511 l 263 239 l 305 197 l 535 197 l 535 0 l 209 0 m 264 98 l 447 98 l 447 98 l 264 98 l 165 193 l 165 562 l 258 653 l 447 653 l 447 653 l 258 653 l 165 562 l 165 193 l 264 98 m 219 772 l 64 969 l 256 969 l 307 894 l 358 969 l 550 969 l 394 772 l 219 772 m 266 826 l 345 826 l 404 907 l 404 907 l 345 826 l 266 826 l 207 907 l 207 907 l 266 826 z "},"ç":{"ha":776,"x_min":78,"x_max":700,"o":"m 257 -242 l 257 -133 l 399 -133 l 420 -111 l 399 -90 l 306 -90 l 306 0 l 221 0 l 78 143 l 78 607 l 221 750 l 557 750 l 700 607 l 700 451 l 503 451 l 503 511 l 461 553 l 317 553 l 274 511 l 274 239 l 317 197 l 461 197 l 503 239 l 503 299 l 700 299 l 700 143 l 557 0 l 492 0 l 589 -111 l 476 -242 l 257 -242 m 326 -187 l 443 -187 l 510 -111 l 443 -36 l 376 -36 l 376 98 l 510 98 l 602 190 l 602 212 l 602 212 l 602 190 l 510 98 l 276 98 l 177 193 l 177 562 l 270 655 l 510 655 l 602 563 l 602 541 l 602 541 l 602 563 l 510 655 l 270 655 l 177 562 l 177 193 l 276 98 l 376 98 l 376 -36 l 443 -36 l 510 -111 l 443 -187 l 326 -187 l 326 -187 z "},"ḉ":{"ha":776,"x_min":78,"x_max":700,"o":"m 257 -242 l 257 -133 l 399 -133 l 420 -111 l 399 -90 l 306 -90 l 306 0 l 221 0 l 78 143 l 78 607 l 221 750 l 557 750 l 700 607 l 700 451 l 503 451 l 503 511 l 461 553 l 317 553 l 274 511 l 274 239 l 317 197 l 461 197 l 503 239 l 503 299 l 700 299 l 700 143 l 557 0 l 492 0 l 589 -111 l 476 -242 l 257 -242 m 326 -187 l 443 -187 l 510 -111 l 443 -36 l 376 -36 l 376 98 l 510 98 l 602 190 l 602 212 l 602 212 l 602 190 l 510 98 l 276 98 l 177 193 l 177 562 l 270 655 l 510 655 l 602 563 l 602 541 l 602 541 l 602 563 l 510 655 l 270 655 l 177 562 l 177 193 l 276 98 l 376 98 l 376 -36 l 443 -36 l 510 -111 l 443 -187 l 326 -187 l 326 -187 m 222 772 l 391 956 l 590 956 l 393 772 l 222 772 m 353 819 l 353 819 l 436 907 l 437 907 l 353 819 z "},"ĉ":{"ha":612,"x_min":64,"x_max":550,"o":"m 209 0 l 66 143 l 66 607 l 209 750 l 535 750 l 535 553 l 305 553 l 263 511 l 263 239 l 305 197 l 535 197 l 535 0 l 209 0 m 264 98 l 447 98 l 447 98 l 264 98 l 165 193 l 165 562 l 258 653 l 447 653 l 447 653 l 258 653 l 165 562 l 165 193 l 264 98 m 219 969 l 394 969 l 550 772 l 358 772 l 307 847 l 256 772 l 64 772 l 219 969 m 266 915 l 207 835 l 207 835 l 266 915 l 345 915 l 404 835 l 404 835 l 345 915 l 266 915 z "},"ċ":{"ha":612,"x_min":66,"x_max":535,"o":"m 209 0 l 66 143 l 66 607 l 209 750 l 535 750 l 535 553 l 305 553 l 263 511 l 263 239 l 305 197 l 535 197 l 535 0 l 209 0 m 264 98 l 447 98 l 447 98 l 264 98 l 165 193 l 165 562 l 258 653 l 447 653 l 447 653 l 258 653 l 165 562 l 165 193 l 264 98 m 234 786 l 234 932 l 381 932 l 381 786 l 234 786 m 307 849 l 306 849 l 306 868 l 307 868 l 307 849 z "},"d":{"ha":672,"x_min":66,"x_max":595,"o":"m 451 0 l 210 0 l 66 143 l 66 607 l 210 750 l 385 750 l 399 737 l 399 1042 l 595 1042 l 595 143 l 451 0 m 401 94 l 260 94 l 165 188 l 165 572 l 247 652 l 374 652 l 497 530 l 497 188 l 401 94 m 356 197 l 399 239 l 399 498 l 343 554 l 305 554 l 263 511 l 263 239 l 305 197 l 356 197 m 401 94 l 497 188 l 497 949 l 497 949 l 497 530 l 374 652 l 247 652 l 165 572 l 165 188 l 260 94 l 401 94 z "},"ð":{"ha":757,"x_min":72,"x_max":685,"o":"m 215 0 l 72 143 l 72 515 l 215 658 l 345 658 l 262 735 l 332 805 l 164 972 l 438 972 l 469 941 l 514 986 l 603 904 l 552 854 l 685 718 l 685 143 l 542 0 l 215 0 m 264 99 l 172 191 l 172 469 l 264 561 l 458 561 l 589 433 l 589 200 l 494 99 l 264 99 m 310 197 l 447 197 l 489 239 l 489 406 l 433 462 l 310 462 l 268 419 l 268 239 l 310 197 m 264 99 l 494 99 l 589 200 l 589 670 l 440 830 l 496 885 l 496 885 l 440 830 l 377 895 l 377 895 l 440 830 l 375 765 l 375 765 l 440 830 l 589 670 l 589 433 l 458 561 l 264 561 l 172 469 l 172 191 l 264 99 m 489 631 l 489 650 l 417 720 l 356 658 l 461 658 l 489 631 z "},"ď":{"ha":874,"x_min":66,"x_max":874,"o":"m 451 0 l 210 0 l 66 143 l 66 607 l 210 750 l 385 750 l 399 737 l 399 1042 l 595 1042 l 595 143 l 451 0 m 401 94 l 260 94 l 165 188 l 165 572 l 247 652 l 374 652 l 497 530 l 497 188 l 401 94 m 356 197 l 399 239 l 399 498 l 343 554 l 305 554 l 263 511 l 263 239 l 305 197 l 356 197 m 401 94 l 497 188 l 497 949 l 497 949 l 497 530 l 374 652 l 247 652 l 165 572 l 165 188 l 260 94 l 401 94 m 697 726 l 665 846 l 665 1042 l 874 1042 l 874 846 l 841 726 l 697 726 m 772 801 l 771 801 l 771 844 l 772 950 l 772 950 l 772 844 l 772 801 z "},"đ":{"ha":792,"x_min":63,"x_max":786,"o":"m 206 0 l 63 143 l 63 607 l 206 750 l 492 750 l 506 737 l 506 815 l 347 815 l 347 987 l 506 987 l 506 1042 l 703 1042 l 703 987 l 786 987 l 786 815 l 703 815 l 703 143 l 559 0 l 206 0 m 258 95 l 161 193 l 161 572 l 244 655 l 478 655 l 601 528 l 601 199 l 503 95 l 258 95 m 301 197 l 464 197 l 506 239 l 506 498 l 451 554 l 301 554 l 259 511 l 259 239 l 301 197 m 258 95 l 503 95 l 601 199 l 601 902 l 699 902 l 699 902 l 601 902 l 601 942 l 601 942 l 601 902 l 450 902 l 450 902 l 601 902 l 601 528 l 478 655 l 244 655 l 161 572 l 161 193 l 258 95 z "},"ḍ":{"ha":672,"x_min":66,"x_max":595,"o":"m 451 0 l 210 0 l 66 143 l 66 607 l 210 750 l 385 750 l 399 737 l 399 1042 l 595 1042 l 595 143 l 451 0 m 401 94 l 260 94 l 165 188 l 165 572 l 247 652 l 374 652 l 497 530 l 497 188 l 401 94 m 356 197 l 399 239 l 399 498 l 343 554 l 305 554 l 263 511 l 263 239 l 305 197 l 356 197 m 401 94 l 497 188 l 497 949 l 497 949 l 497 530 l 374 652 l 247 652 l 165 572 l 165 188 l 260 94 l 401 94 m 271 -188 l 271 -42 l 418 -42 l 418 -188 l 271 -188 m 344 -126 l 343 -126 l 343 -106 l 344 -106 l 344 -126 z "},"ḏ":{"ha":672,"x_min":66,"x_max":595,"o":"m 451 0 l 210 0 l 66 143 l 66 607 l 210 750 l 385 750 l 399 737 l 399 1042 l 595 1042 l 595 143 l 451 0 m 401 94 l 260 94 l 165 188 l 165 572 l 247 652 l 374 652 l 497 530 l 497 188 l 401 94 m 356 197 l 399 239 l 399 498 l 343 554 l 305 554 l 263 511 l 263 239 l 305 197 l 356 197 m 401 94 l 497 188 l 497 949 l 497 949 l 497 530 l 374 652 l 247 652 l 165 572 l 165 188 l 260 94 l 401 94 m 125 -226 l 125 -49 l 564 -49 l 564 -226 l 125 -226 m 215 -139 l 482 -139 l 482 -139 l 215 -139 l 215 -139 z "},"ǆ":{"ha":1241,"x_min":66,"x_max":1199,"o":"m 451 0 l 210 0 l 66 143 l 66 607 l 210 750 l 385 750 l 399 737 l 399 1042 l 595 1042 l 595 143 l 451 0 m 401 94 l 260 94 l 165 188 l 165 572 l 247 652 l 374 652 l 497 530 l 497 188 l 401 94 m 356 197 l 399 239 l 399 498 l 343 554 l 305 554 l 263 511 l 263 239 l 305 197 l 356 197 m 401 94 l 497 188 l 497 949 l 497 949 l 497 530 l 374 652 l 247 652 l 165 572 l 165 188 l 260 94 l 401 94 m 856 99 l 1088 99 l 1088 99 l 856 99 l 856 247 l 1058 496 l 1058 653 l 841 653 l 841 653 l 1058 653 l 1058 496 l 856 247 l 856 99 m 738 0 l 738 267 l 942 526 l 942 553 l 751 553 l 751 750 l 1175 750 l 1175 478 l 975 226 l 975 197 l 1175 197 l 1175 0 l 738 0 m 869 772 l 713 969 l 906 969 l 956 894 l 1007 969 l 1199 969 l 1044 772 l 869 772 m 915 826 l 994 826 l 1053 907 l 1053 907 l 994 826 l 915 826 l 856 907 l 856 907 l 915 826 z "},"e":{"ha":645,"x_min":66,"x_max":579,"o":"m 436 750 l 579 607 l 579 409 l 436 266 l 263 266 l 263 239 l 305 197 l 569 197 l 569 0 l 209 0 l 66 143 l 66 607 l 209 750 l 436 750 m 385 654 l 474 567 l 474 438 l 401 364 l 163 364 l 163 560 l 258 654 l 385 654 m 385 654 l 258 654 l 163 560 l 163 190 l 253 101 l 483 101 l 483 101 l 253 101 l 163 190 l 163 364 l 401 364 l 474 438 l 474 567 l 385 654 m 340 553 l 305 553 l 263 511 l 263 456 l 354 456 l 383 485 l 383 511 l 340 553 z "},"é":{"ha":645,"x_min":66,"x_max":606,"o":"m 436 750 l 579 607 l 579 409 l 436 266 l 263 266 l 263 239 l 305 197 l 569 197 l 569 0 l 209 0 l 66 143 l 66 607 l 209 750 l 436 750 m 385 654 l 474 567 l 474 438 l 401 364 l 163 364 l 163 560 l 258 654 l 385 654 m 385 654 l 258 654 l 163 560 l 163 190 l 253 101 l 483 101 l 483 101 l 253 101 l 163 190 l 163 364 l 401 364 l 474 438 l 474 567 l 385 654 m 340 553 l 305 553 l 263 511 l 263 456 l 354 456 l 383 485 l 383 511 l 340 553 m 237 772 l 406 956 l 606 956 l 408 772 l 237 772 m 369 819 l 368 819 l 451 907 l 452 907 l 369 819 z "},"ĕ":{"ha":645,"x_min":66,"x_max":579,"o":"m 436 750 l 579 607 l 579 409 l 436 266 l 263 266 l 263 239 l 305 197 l 569 197 l 569 0 l 209 0 l 66 143 l 66 607 l 209 750 l 436 750 m 385 654 l 474 567 l 474 438 l 401 364 l 163 364 l 163 560 l 258 654 l 385 654 m 385 654 l 258 654 l 163 560 l 163 190 l 253 101 l 483 101 l 483 101 l 253 101 l 163 190 l 163 364 l 401 364 l 474 438 l 474 567 l 385 654 m 340 553 l 305 553 l 263 511 l 263 456 l 354 456 l 383 485 l 383 511 l 340 553 m 240 772 l 162 850 l 162 958 l 295 958 l 295 906 l 349 906 l 349 958 l 483 958 l 483 850 l 405 772 l 240 772 m 276 833 l 370 833 l 416 883 l 416 901 l 416 901 l 416 883 l 370 833 l 276 833 l 230 883 l 230 901 l 230 901 l 230 883 l 276 833 z "},"ě":{"ha":645,"x_min":66,"x_max":579,"o":"m 436 750 l 579 607 l 579 409 l 436 266 l 263 266 l 263 239 l 305 197 l 569 197 l 569 0 l 209 0 l 66 143 l 66 607 l 209 750 l 436 750 m 385 654 l 474 567 l 474 438 l 401 364 l 163 364 l 163 560 l 258 654 l 385 654 m 385 654 l 258 654 l 163 560 l 163 190 l 253 101 l 483 101 l 483 101 l 253 101 l 163 190 l 163 364 l 401 364 l 474 438 l 474 567 l 385 654 m 340 553 l 305 553 l 263 511 l 263 456 l 354 456 l 383 485 l 383 511 l 340 553 m 235 772 l 79 969 l 272 969 l 322 894 l 373 969 l 565 969 l 410 772 l 235 772 m 281 826 l 360 826 l 419 907 l 419 907 l 360 826 l 281 826 l 222 907 l 222 907 l 281 826 z "},"ḝ":{"ha":645,"x_min":66,"x_max":579,"o":"m 436 750 l 579 607 l 579 409 l 436 266 l 263 266 l 263 239 l 305 197 l 569 197 l 569 0 l 209 0 l 66 143 l 66 607 l 209 750 l 436 750 m 385 654 l 474 567 l 474 438 l 401 364 l 163 364 l 163 560 l 258 654 l 385 654 m 385 654 l 258 654 l 163 560 l 163 190 l 253 101 l 483 101 l 483 101 l 253 101 l 163 190 l 163 364 l 401 364 l 474 438 l 474 567 l 385 654 m 340 553 l 305 553 l 263 511 l 263 456 l 354 456 l 383 485 l 383 511 l 340 553 m 177 -278 l 177 -169 l 319 -169 l 340 -147 l 319 -126 l 226 -126 l 226 -17 l 396 -17 l 509 -147 l 396 -278 l 177 -278 m 251 -224 l 360 -224 l 428 -147 l 360 -70 l 301 -70 l 301 -70 l 360 -70 l 428 -147 l 360 -224 l 251 -224 l 251 -224 m 240 772 l 162 850 l 162 958 l 295 958 l 295 906 l 349 906 l 349 958 l 483 958 l 483 850 l 405 772 l 240 772 m 276 833 l 370 833 l 416 883 l 416 901 l 416 901 l 416 883 l 370 833 l 276 833 l 230 883 l 230 901 l 230 901 l 230 883 l 276 833 z "},"ê":{"ha":645,"x_min":66,"x_max":579,"o":"m 436 750 l 579 607 l 579 409 l 436 266 l 263 266 l 263 239 l 305 197 l 569 197 l 569 0 l 209 0 l 66 143 l 66 607 l 209 750 l 436 750 m 385 654 l 474 567 l 474 438 l 401 364 l 163 364 l 163 560 l 258 654 l 385 654 m 385 654 l 258 654 l 163 560 l 163 190 l 253 101 l 483 101 l 483 101 l 253 101 l 163 190 l 163 364 l 401 364 l 474 438 l 474 567 l 385 654 m 340 553 l 305 553 l 263 511 l 263 456 l 354 456 l 383 485 l 383 511 l 340 553 m 235 969 l 410 969 l 565 772 l 373 772 l 322 847 l 272 772 l 79 772 l 235 969 m 281 915 l 222 835 l 222 835 l 281 915 l 360 915 l 419 835 l 419 835 l 360 915 l 281 915 z "},"ế":{"ha":645,"x_min":66,"x_max":827,"o":"m 436 750 l 579 607 l 579 409 l 436 266 l 263 266 l 263 239 l 305 197 l 569 197 l 569 0 l 209 0 l 66 143 l 66 607 l 209 750 l 436 750 m 385 654 l 474 567 l 474 438 l 401 364 l 163 364 l 163 560 l 258 654 l 385 654 m 385 654 l 258 654 l 163 560 l 163 190 l 253 101 l 483 101 l 483 101 l 253 101 l 163 190 l 163 364 l 401 364 l 474 438 l 474 567 l 385 654 m 340 553 l 305 553 l 263 511 l 263 456 l 354 456 l 383 485 l 383 511 l 340 553 m 235 969 l 410 969 l 565 772 l 373 772 l 322 847 l 272 772 l 79 772 l 235 969 m 281 915 l 222 835 l 222 835 l 281 915 l 360 915 l 419 835 l 419 835 l 360 915 l 281 915 m 458 931 l 628 1114 l 827 1114 l 630 931 l 458 931 m 590 978 l 590 978 l 673 1065 l 674 1065 l 590 978 z "},"ệ":{"ha":645,"x_min":66,"x_max":579,"o":"m 436 750 l 579 607 l 579 409 l 436 266 l 263 266 l 263 239 l 305 197 l 569 197 l 569 0 l 209 0 l 66 143 l 66 607 l 209 750 l 436 750 m 385 654 l 474 567 l 474 438 l 401 364 l 163 364 l 163 560 l 258 654 l 385 654 m 385 654 l 258 654 l 163 560 l 163 190 l 253 101 l 483 101 l 483 101 l 253 101 l 163 190 l 163 364 l 401 364 l 474 438 l 474 567 l 385 654 m 340 553 l 305 553 l 263 511 l 263 456 l 354 456 l 383 485 l 383 511 l 340 553 m 251 -188 l 251 -42 l 398 -42 l 398 -188 l 251 -188 m 324 -126 l 323 -126 l 323 -106 l 324 -106 l 324 -126 m 235 969 l 410 969 l 565 772 l 373 772 l 322 847 l 272 772 l 79 772 l 235 969 m 281 915 l 222 835 l 222 835 l 281 915 l 360 915 l 419 835 l 419 835 l 360 915 l 281 915 z "},"ề":{"ha":645,"x_min":66,"x_max":661,"o":"m 436 750 l 579 607 l 579 409 l 436 266 l 263 266 l 263 239 l 305 197 l 569 197 l 569 0 l 209 0 l 66 143 l 66 607 l 209 750 l 436 750 m 385 654 l 474 567 l 474 438 l 401 364 l 163 364 l 163 560 l 258 654 l 385 654 m 385 654 l 258 654 l 163 560 l 163 190 l 253 101 l 483 101 l 483 101 l 253 101 l 163 190 l 163 364 l 401 364 l 474 438 l 474 567 l 385 654 m 340 553 l 305 553 l 263 511 l 263 456 l 354 456 l 383 485 l 383 511 l 340 553 m 235 969 l 410 969 l 565 772 l 373 772 l 322 847 l 272 772 l 79 772 l 235 969 m 281 915 l 222 835 l 222 835 l 281 915 l 360 915 l 419 835 l 419 835 l 360 915 l 281 915 m 661 931 l 490 931 l 292 1114 l 492 1114 l 661 931 m 529 978 l 446 1065 l 447 1065 l 530 978 l 529 978 z "},"ể":{"ha":645,"x_min":66,"x_max":751,"o":"m 436 750 l 579 607 l 579 409 l 436 266 l 263 266 l 263 239 l 305 197 l 569 197 l 569 0 l 209 0 l 66 143 l 66 607 l 209 750 l 436 750 m 385 654 l 474 567 l 474 438 l 401 364 l 163 364 l 163 560 l 258 654 l 385 654 m 385 654 l 258 654 l 163 560 l 163 190 l 253 101 l 483 101 l 483 101 l 253 101 l 163 190 l 163 364 l 401 364 l 474 438 l 474 567 l 385 654 m 340 553 l 305 553 l 263 511 l 263 456 l 354 456 l 383 485 l 383 511 l 340 553 m 235 969 l 410 969 l 565 772 l 373 772 l 322 847 l 272 772 l 79 772 l 235 969 m 281 915 l 222 835 l 222 835 l 281 915 l 360 915 l 419 835 l 419 835 l 360 915 l 281 915 m 419 1166 l 638 1166 l 751 1035 l 638 905 l 469 905 l 469 1014 l 562 1014 l 583 1035 l 562 1057 l 419 1057 l 419 1166 m 493 1113 l 493 1113 l 602 1113 l 670 1035 l 602 958 l 543 958 l 543 958 l 602 958 l 670 1035 l 602 1113 l 493 1113 z "},"ễ":{"ha":645,"x_min":66,"x_max":579,"o":"m 436 750 l 579 607 l 579 409 l 436 266 l 263 266 l 263 239 l 305 197 l 569 197 l 569 0 l 209 0 l 66 143 l 66 607 l 209 750 l 436 750 m 385 654 l 474 567 l 474 438 l 401 364 l 163 364 l 163 560 l 258 654 l 385 654 m 385 654 l 258 654 l 163 560 l 163 190 l 253 101 l 483 101 l 483 101 l 253 101 l 163 190 l 163 364 l 401 364 l 474 438 l 474 567 l 385 654 m 340 553 l 305 553 l 263 511 l 263 456 l 354 456 l 383 485 l 383 511 l 340 553 m 235 969 l 410 969 l 565 772 l 373 772 l 322 847 l 272 772 l 79 772 l 235 969 m 281 915 l 222 835 l 222 835 l 281 915 l 360 915 l 419 835 l 419 835 l 360 915 l 281 915 m 128 992 l 128 1086 l 206 1164 l 330 1164 l 369 1125 l 381 1125 l 381 1164 l 515 1164 l 515 1069 l 437 992 l 313 992 l 274 1031 l 262 1031 l 262 992 l 128 992 m 197 1040 l 197 1040 l 197 1054 l 242 1104 l 299 1104 l 344 1053 l 405 1053 l 451 1103 l 451 1117 l 451 1117 l 451 1103 l 405 1053 l 344 1053 l 299 1104 l 242 1104 l 197 1054 l 197 1040 z "},"ȅ":{"ha":645,"x_min":-91,"x_max":579,"o":"m 436 750 l 579 607 l 579 409 l 436 266 l 263 266 l 263 239 l 305 197 l 569 197 l 569 0 l 209 0 l 66 143 l 66 607 l 209 750 l 436 750 m 385 654 l 474 567 l 474 438 l 401 364 l 163 364 l 163 560 l 258 654 l 385 654 m 385 654 l 258 654 l 163 560 l 163 190 l 253 101 l 483 101 l 483 101 l 253 101 l 163 190 l 163 364 l 401 364 l 474 438 l 474 567 l 385 654 m 340 553 l 305 553 l 263 511 l 263 456 l 354 456 l 383 485 l 383 511 l 340 553 m 550 772 l 378 772 l 181 956 l 381 956 l 550 772 m 418 819 l 335 907 l 335 907 l 419 819 l 418 819 m 278 772 l 106 772 l -91 956 l 108 956 l 278 772 m 146 819 l 63 907 l 63 907 l 147 819 l 146 819 z "},"ë":{"ha":645,"x_min":66,"x_max":579,"o":"m 436 750 l 579 607 l 579 409 l 436 266 l 263 266 l 263 239 l 305 197 l 569 197 l 569 0 l 209 0 l 66 143 l 66 607 l 209 750 l 436 750 m 385 654 l 474 567 l 474 438 l 401 364 l 163 364 l 163 560 l 258 654 l 385 654 m 385 654 l 258 654 l 163 560 l 163 190 l 253 101 l 483 101 l 483 101 l 253 101 l 163 190 l 163 364 l 401 364 l 474 438 l 474 567 l 385 654 m 340 553 l 305 553 l 263 511 l 263 456 l 354 456 l 383 485 l 383 511 l 340 553 m 394 786 l 394 932 l 541 932 l 541 786 l 394 786 m 105 786 l 105 932 l 252 932 l 252 786 l 105 786 m 178 851 l 177 851 l 177 865 l 178 865 l 178 851 m 468 851 l 467 851 l 467 865 l 468 865 l 468 851 z "},"ė":{"ha":645,"x_min":66,"x_max":579,"o":"m 436 750 l 579 607 l 579 409 l 436 266 l 263 266 l 263 239 l 305 197 l 569 197 l 569 0 l 209 0 l 66 143 l 66 607 l 209 750 l 436 750 m 385 654 l 474 567 l 474 438 l 401 364 l 163 364 l 163 560 l 258 654 l 385 654 m 385 654 l 258 654 l 163 560 l 163 190 l 253 101 l 483 101 l 483 101 l 253 101 l 163 190 l 163 364 l 401 364 l 474 438 l 474 567 l 385 654 m 340 553 l 305 553 l 263 511 l 263 456 l 354 456 l 383 485 l 383 511 l 340 553 m 249 786 l 249 932 l 397 932 l 397 786 l 249 786 m 322 849 l 322 849 l 322 868 l 322 868 l 322 849 z "},"ẹ":{"ha":645,"x_min":66,"x_max":579,"o":"m 436 750 l 579 607 l 579 409 l 436 266 l 263 266 l 263 239 l 305 197 l 569 197 l 569 0 l 209 0 l 66 143 l 66 607 l 209 750 l 436 750 m 385 654 l 474 567 l 474 438 l 401 364 l 163 364 l 163 560 l 258 654 l 385 654 m 385 654 l 258 654 l 163 560 l 163 190 l 253 101 l 483 101 l 483 101 l 253 101 l 163 190 l 163 364 l 401 364 l 474 438 l 474 567 l 385 654 m 340 553 l 305 553 l 263 511 l 263 456 l 354 456 l 383 485 l 383 511 l 340 553 m 251 -188 l 251 -42 l 398 -42 l 398 -188 l 251 -188 m 324 -126 l 323 -126 l 323 -106 l 324 -106 l 324 -126 z "},"è":{"ha":645,"x_min":54,"x_max":579,"o":"m 436 750 l 579 607 l 579 409 l 436 266 l 263 266 l 263 239 l 305 197 l 569 197 l 569 0 l 209 0 l 66 143 l 66 607 l 209 750 l 436 750 m 385 654 l 474 567 l 474 438 l 401 364 l 163 364 l 163 560 l 258 654 l 385 654 m 385 654 l 258 654 l 163 560 l 163 190 l 253 101 l 483 101 l 483 101 l 253 101 l 163 190 l 163 364 l 401 364 l 474 438 l 474 567 l 385 654 m 340 553 l 305 553 l 263 511 l 263 456 l 354 456 l 383 485 l 383 511 l 340 553 m 423 772 l 251 772 l 54 956 l 253 956 l 423 772 m 291 819 l 208 907 l 208 907 l 292 819 l 291 819 z "},"ẻ":{"ha":645,"x_min":66,"x_max":579,"o":"m 436 750 l 579 607 l 579 409 l 436 266 l 263 266 l 263 239 l 305 197 l 569 197 l 569 0 l 209 0 l 66 143 l 66 607 l 209 750 l 436 750 m 385 654 l 474 567 l 474 438 l 401 364 l 163 364 l 163 560 l 258 654 l 385 654 m 385 654 l 258 654 l 163 560 l 163 190 l 253 101 l 483 101 l 483 101 l 253 101 l 163 190 l 163 364 l 401 364 l 474 438 l 474 567 l 385 654 m 340 553 l 305 553 l 263 511 l 263 456 l 354 456 l 383 485 l 383 511 l 340 553 m 156 1029 l 375 1029 l 488 898 l 375 768 l 206 768 l 206 877 l 299 877 l 319 898 l 299 920 l 156 920 l 156 1029 m 230 976 l 230 976 l 339 976 l 407 898 l 339 822 l 280 822 l 280 822 l 339 822 l 407 898 l 339 976 l 230 976 z "},"ȇ":{"ha":645,"x_min":66,"x_max":579,"o":"m 436 750 l 579 607 l 579 409 l 436 266 l 263 266 l 263 239 l 305 197 l 569 197 l 569 0 l 209 0 l 66 143 l 66 607 l 209 750 l 436 750 m 385 654 l 474 567 l 474 438 l 401 364 l 163 364 l 163 560 l 258 654 l 385 654 m 385 654 l 258 654 l 163 560 l 163 190 l 253 101 l 483 101 l 483 101 l 253 101 l 163 190 l 163 364 l 401 364 l 474 438 l 474 567 l 385 654 m 340 553 l 305 553 l 263 511 l 263 456 l 354 456 l 383 485 l 383 511 l 340 553 m 405 958 l 483 880 l 483 772 l 349 772 l 349 824 l 295 824 l 295 772 l 162 772 l 162 880 l 240 958 l 405 958 m 369 897 l 274 897 l 228 847 l 228 828 l 228 828 l 228 847 l 274 897 l 369 897 l 415 847 l 415 828 l 415 828 l 415 847 l 369 897 z "},"ē":{"ha":645,"x_min":66,"x_max":579,"o":"m 436 750 l 579 607 l 579 409 l 436 266 l 263 266 l 263 239 l 305 197 l 569 197 l 569 0 l 209 0 l 66 143 l 66 607 l 209 750 l 436 750 m 385 654 l 474 567 l 474 438 l 401 364 l 163 364 l 163 560 l 258 654 l 385 654 m 385 654 l 258 654 l 163 560 l 163 190 l 253 101 l 483 101 l 483 101 l 253 101 l 163 190 l 163 364 l 401 364 l 474 438 l 474 567 l 385 654 m 340 553 l 305 553 l 263 511 l 263 456 l 354 456 l 383 485 l 383 511 l 340 553 m 103 772 l 103 949 l 542 949 l 542 772 l 103 772 m 193 859 l 460 859 l 460 859 l 193 859 l 193 859 z "},"ḗ":{"ha":645,"x_min":66,"x_max":606,"o":"m 436 750 l 579 607 l 579 409 l 436 266 l 263 266 l 263 239 l 305 197 l 569 197 l 569 0 l 209 0 l 66 143 l 66 607 l 209 750 l 436 750 m 385 654 l 474 567 l 474 438 l 401 364 l 163 364 l 163 560 l 258 654 l 385 654 m 385 654 l 258 654 l 163 560 l 163 190 l 253 101 l 483 101 l 483 101 l 253 101 l 163 190 l 163 364 l 401 364 l 474 438 l 474 567 l 385 654 m 340 553 l 305 553 l 263 511 l 263 456 l 354 456 l 383 485 l 383 511 l 340 553 m 103 772 l 103 949 l 542 949 l 542 772 l 103 772 m 193 859 l 460 859 l 460 859 l 193 859 l 193 859 m 237 972 l 406 1155 l 606 1155 l 408 972 l 237 972 m 369 1019 l 368 1019 l 451 1106 l 452 1106 l 369 1019 z "},"ḕ":{"ha":645,"x_min":54,"x_max":579,"o":"m 436 750 l 579 607 l 579 409 l 436 266 l 263 266 l 263 239 l 305 197 l 569 197 l 569 0 l 209 0 l 66 143 l 66 607 l 209 750 l 436 750 m 385 654 l 474 567 l 474 438 l 401 364 l 163 364 l 163 560 l 258 654 l 385 654 m 385 654 l 258 654 l 163 560 l 163 190 l 253 101 l 483 101 l 483 101 l 253 101 l 163 190 l 163 364 l 401 364 l 474 438 l 474 567 l 385 654 m 340 553 l 305 553 l 263 511 l 263 456 l 354 456 l 383 485 l 383 511 l 340 553 m 103 772 l 103 949 l 542 949 l 542 772 l 103 772 m 193 859 l 460 859 l 460 859 l 193 859 l 193 859 m 423 972 l 251 972 l 54 1155 l 253 1155 l 423 972 m 291 1019 l 208 1106 l 208 1106 l 292 1019 l 291 1019 z "},"ę":{"ha":771,"x_min":75,"x_max":697,"o":"m 418 -255 l 305 -124 l 416 0 l 218 0 l 75 143 l 75 607 l 218 750 l 554 750 l 697 607 l 697 419 l 554 276 l 272 276 l 272 239 l 314 197 l 688 197 l 688 0 l 569 0 l 446 -124 l 467 -146 l 630 -146 l 630 -255 l 418 -255 m 438 -200 l 571 -200 l 571 -200 l 438 -200 l 374 -124 l 581 99 l 581 99 l 581 99 l 269 99 l 169 194 l 169 372 l 508 372 l 598 463 l 598 556 l 499 653 l 275 653 l 169 549 l 169 194 l 269 99 l 581 99 l 374 -124 l 438 -200 m 169 372 l 169 549 l 275 653 l 499 653 l 598 556 l 598 463 l 508 372 l 169 372 m 272 466 l 472 466 l 501 495 l 501 511 l 458 553 l 314 553 l 272 511 l 272 466 z "},"ẽ":{"ha":645,"x_min":66,"x_max":579,"o":"m 436 750 l 579 607 l 579 409 l 436 266 l 263 266 l 263 239 l 305 197 l 569 197 l 569 0 l 209 0 l 66 143 l 66 607 l 209 750 l 436 750 m 385 654 l 474 567 l 474 438 l 401 364 l 163 364 l 163 560 l 258 654 l 385 654 m 385 654 l 258 654 l 163 560 l 163 190 l 253 101 l 483 101 l 483 101 l 253 101 l 163 190 l 163 364 l 401 364 l 474 438 l 474 567 l 385 654 m 340 553 l 305 553 l 263 511 l 263 456 l 354 456 l 383 485 l 383 511 l 340 553 m 128 772 l 128 867 l 206 944 l 330 944 l 369 906 l 381 906 l 381 944 l 515 944 l 515 850 l 437 772 l 313 772 l 274 811 l 262 811 l 262 772 l 128 772 m 197 821 l 197 821 l 197 835 l 242 885 l 299 885 l 344 833 l 405 833 l 451 883 l 451 897 l 451 897 l 451 883 l 405 833 l 344 833 l 299 885 l 242 885 l 197 835 l 197 821 z "},"ə":{"ha":645,"x_min":66,"x_max":579,"o":"m 209 0 l 66 143 l 66 341 l 209 484 l 383 484 l 383 511 l 340 553 l 76 553 l 76 750 l 436 750 l 579 607 l 579 143 l 436 0 l 209 0 m 260 96 l 171 183 l 171 313 l 244 386 l 483 386 l 483 190 l 387 96 l 260 96 m 260 96 l 387 96 l 483 190 l 483 560 l 392 649 l 163 649 l 163 649 l 392 649 l 483 560 l 483 386 l 244 386 l 171 313 l 171 183 l 260 96 m 305 197 l 340 197 l 383 239 l 383 294 l 291 294 l 262 265 l 262 239 l 305 197 z "},"f":{"ha":542,"x_min":42,"x_max":476,"o":"m 158 0 l 158 554 l 42 554 l 42 750 l 158 750 l 158 899 l 301 1042 l 476 1042 l 476 859 l 385 859 l 354 828 l 354 750 l 476 750 l 476 554 l 354 554 l 354 0 l 158 0 m 256 99 l 256 99 l 256 653 l 386 653 l 386 653 l 256 653 l 256 860 l 346 950 l 386 950 l 386 949 l 346 949 l 256 860 l 256 653 l 131 653 l 131 653 l 256 653 l 256 99 z "},"g":{"ha":671,"x_min":66,"x_max":594,"o":"m 101 -278 l 101 -82 l 342 -82 l 399 -26 l 399 14 l 385 0 l 209 0 l 66 143 l 66 607 l 209 750 l 451 750 l 594 607 l 594 -135 l 451 -278 l 101 -278 m 188 -181 l 393 -181 l 500 -65 l 500 554 l 404 653 l 256 653 l 162 558 l 162 206 l 268 99 l 360 99 l 500 232 l 500 -65 l 393 -181 l 188 -181 l 188 -181 m 268 99 l 162 206 l 162 558 l 256 653 l 404 653 l 500 554 l 500 232 l 360 99 l 268 99 m 305 197 l 329 197 l 399 266 l 399 512 l 356 554 l 305 554 l 263 512 l 263 239 l 305 197 z "},"ğ":{"ha":671,"x_min":66,"x_max":594,"o":"m 101 -278 l 101 -82 l 342 -82 l 399 -26 l 399 14 l 385 0 l 209 0 l 66 143 l 66 607 l 209 750 l 451 750 l 594 607 l 594 -135 l 451 -278 l 101 -278 m 188 -181 l 393 -181 l 500 -65 l 500 554 l 404 653 l 256 653 l 162 558 l 162 206 l 268 99 l 360 99 l 500 232 l 500 -65 l 393 -181 l 188 -181 l 188 -181 m 268 99 l 162 206 l 162 558 l 256 653 l 404 653 l 500 554 l 500 232 l 360 99 l 268 99 m 305 197 l 329 197 l 399 266 l 399 512 l 356 554 l 305 554 l 263 512 l 263 239 l 305 197 m 244 772 l 167 850 l 167 958 l 300 958 l 300 906 l 354 906 l 354 958 l 488 958 l 488 850 l 410 772 l 244 772 m 281 833 l 375 833 l 421 883 l 421 901 l 421 901 l 421 883 l 375 833 l 281 833 l 235 883 l 235 901 l 235 901 l 235 883 l 281 833 z "},"ǧ":{"ha":671,"x_min":66,"x_max":594,"o":"m 101 -278 l 101 -82 l 342 -82 l 399 -26 l 399 14 l 385 0 l 209 0 l 66 143 l 66 607 l 209 750 l 451 750 l 594 607 l 594 -135 l 451 -278 l 101 -278 m 188 -181 l 393 -181 l 500 -65 l 500 554 l 404 653 l 256 653 l 162 558 l 162 206 l 268 99 l 360 99 l 500 232 l 500 -65 l 393 -181 l 188 -181 l 188 -181 m 268 99 l 162 206 l 162 558 l 256 653 l 404 653 l 500 554 l 500 232 l 360 99 l 268 99 m 305 197 l 329 197 l 399 266 l 399 512 l 356 554 l 305 554 l 263 512 l 263 239 l 305 197 m 240 772 l 84 969 l 276 969 l 327 894 l 378 969 l 570 969 l 415 772 l 240 772 m 286 826 l 365 826 l 424 907 l 424 907 l 365 826 l 286 826 l 227 907 l 227 907 l 286 826 z "},"ĝ":{"ha":671,"x_min":66,"x_max":594,"o":"m 101 -278 l 101 -82 l 342 -82 l 399 -26 l 399 14 l 385 0 l 209 0 l 66 143 l 66 607 l 209 750 l 451 750 l 594 607 l 594 -135 l 451 -278 l 101 -278 m 188 -181 l 393 -181 l 500 -65 l 500 554 l 404 653 l 256 653 l 162 558 l 162 206 l 268 99 l 360 99 l 500 232 l 500 -65 l 393 -181 l 188 -181 l 188 -181 m 268 99 l 162 206 l 162 558 l 256 653 l 404 653 l 500 554 l 500 232 l 360 99 l 268 99 m 305 197 l 329 197 l 399 266 l 399 512 l 356 554 l 305 554 l 263 512 l 263 239 l 305 197 m 240 969 l 415 969 l 570 772 l 378 772 l 327 847 l 276 772 l 84 772 l 240 969 m 286 915 l 227 835 l 227 835 l 286 915 l 365 915 l 424 835 l 424 835 l 365 915 l 286 915 z "},"ģ":{"ha":671,"x_min":66,"x_max":594,"o":"m 101 -278 l 101 -82 l 342 -82 l 399 -26 l 399 14 l 385 0 l 209 0 l 66 143 l 66 607 l 209 750 l 451 750 l 594 607 l 594 -135 l 451 -278 l 101 -278 m 188 -181 l 393 -181 l 500 -65 l 500 554 l 404 653 l 256 653 l 162 558 l 162 206 l 268 99 l 360 99 l 500 232 l 500 -65 l 393 -181 l 188 -181 l 188 -181 m 268 99 l 162 206 l 162 558 l 256 653 l 404 653 l 500 554 l 500 232 l 360 99 l 268 99 m 305 197 l 329 197 l 399 266 l 399 512 l 356 554 l 305 554 l 263 512 l 263 239 l 305 197 m 480 1089 l 401 771 l 213 771 l 323 1089 l 480 1089 m 381 1015 l 381 1015 l 334 863 l 333 863 l 381 1015 z "},"ġ":{"ha":671,"x_min":66,"x_max":594,"o":"m 101 -278 l 101 -82 l 342 -82 l 399 -26 l 399 14 l 385 0 l 209 0 l 66 143 l 66 607 l 209 750 l 451 750 l 594 607 l 594 -135 l 451 -278 l 101 -278 m 188 -181 l 393 -181 l 500 -65 l 500 554 l 404 653 l 256 653 l 162 558 l 162 206 l 268 99 l 360 99 l 500 232 l 500 -65 l 393 -181 l 188 -181 l 188 -181 m 268 99 l 162 206 l 162 558 l 256 653 l 404 653 l 500 554 l 500 232 l 360 99 l 268 99 m 305 197 l 329 197 l 399 266 l 399 512 l 356 554 l 305 554 l 263 512 l 263 239 l 305 197 m 254 786 l 254 932 l 401 932 l 401 786 l 254 786 m 327 849 l 326 849 l 326 868 l 327 868 l 327 849 z "},"ḡ":{"ha":671,"x_min":66,"x_max":594,"o":"m 101 -278 l 101 -82 l 342 -82 l 399 -26 l 399 14 l 385 0 l 209 0 l 66 143 l 66 607 l 209 750 l 451 750 l 594 607 l 594 -135 l 451 -278 l 101 -278 m 188 -181 l 393 -181 l 500 -65 l 500 554 l 404 653 l 256 653 l 162 558 l 162 206 l 268 99 l 360 99 l 500 232 l 500 -65 l 393 -181 l 188 -181 l 188 -181 m 268 99 l 162 206 l 162 558 l 256 653 l 404 653 l 500 554 l 500 232 l 360 99 l 268 99 m 305 197 l 329 197 l 399 266 l 399 512 l 356 554 l 305 554 l 263 512 l 263 239 l 305 197 m 108 772 l 108 949 l 547 949 l 547 772 l 108 772 m 198 859 l 465 859 l 465 859 l 198 859 l 198 859 z "},"h":{"ha":671,"x_min":76,"x_max":605,"o":"m 76 0 l 76 1041 l 273 1041 l 273 737 l 286 750 l 462 750 l 605 607 l 605 0 l 408 0 l 408 511 l 366 554 l 328 554 l 273 498 l 273 0 l 76 0 m 178 99 l 178 99 l 178 535 l 298 653 l 422 653 l 507 570 l 507 99 l 506 99 l 506 570 l 422 653 l 298 653 l 178 535 l 178 935 l 178 935 l 178 99 z "},"ħ":{"ha":807,"x_min":12,"x_max":728,"o":"m 89 0 l 89 816 l 12 816 l 12 987 l 89 987 l 89 1042 l 285 1042 l 285 987 l 474 987 l 474 816 l 285 816 l 285 737 l 299 750 l 586 750 l 728 607 l 728 0 l 533 0 l 533 511 l 490 554 l 342 554 l 285 498 l 285 0 l 89 0 m 185 99 l 185 99 l 185 523 l 313 656 l 538 656 l 629 563 l 629 99 l 628 99 l 628 563 l 538 655 l 313 655 l 185 523 l 185 903 l 376 903 l 376 902 l 185 902 l 185 969 l 185 969 l 185 903 l 92 903 l 92 903 l 185 903 l 185 99 z "},"ḫ":{"ha":671,"x_min":76,"x_max":605,"o":"m 76 0 l 76 1041 l 273 1041 l 273 737 l 286 750 l 462 750 l 605 607 l 605 0 l 408 0 l 408 511 l 366 554 l 328 554 l 273 498 l 273 0 l 76 0 m 178 99 l 178 99 l 178 535 l 298 653 l 422 653 l 507 570 l 507 99 l 506 99 l 506 570 l 422 653 l 298 653 l 178 535 l 178 935 l 178 935 l 178 99 m 258 -236 l 181 -158 l 181 -50 l 314 -50 l 314 -103 l 368 -103 l 368 -50 l 501 -50 l 501 -158 l 424 -236 l 258 -236 m 294 -175 l 389 -175 l 435 -125 l 435 -107 l 435 -107 l 435 -125 l 389 -175 l 294 -175 l 249 -125 l 249 -107 l 249 -107 l 249 -125 l 294 -175 z "},"ĥ":{"ha":671,"x_min":76,"x_max":605,"o":"m 76 0 l 76 1041 l 273 1041 l 273 737 l 286 750 l 462 750 l 605 607 l 605 0 l 408 0 l 408 511 l 366 554 l 328 554 l 273 498 l 273 0 l 76 0 m 178 99 l 178 99 l 178 535 l 298 653 l 422 653 l 507 570 l 507 99 l 506 99 l 506 570 l 422 653 l 298 653 l 178 535 l 178 935 l 178 935 l 178 99 m 253 1261 l 428 1261 l 584 1064 l 392 1064 l 341 1139 l 290 1064 l 98 1064 l 253 1261 m 300 1207 l 241 1126 l 241 1126 l 300 1207 l 379 1207 l 438 1126 l 438 1126 l 379 1207 l 300 1207 z "},"ḥ":{"ha":671,"x_min":76,"x_max":605,"o":"m 76 0 l 76 1041 l 273 1041 l 273 737 l 286 750 l 462 750 l 605 607 l 605 0 l 408 0 l 408 511 l 366 554 l 328 554 l 273 498 l 273 0 l 76 0 m 178 99 l 178 99 l 178 535 l 298 653 l 422 653 l 507 570 l 507 99 l 506 99 l 506 570 l 422 653 l 298 653 l 178 535 l 178 935 l 178 935 l 178 99 m 267 -188 l 267 -42 l 415 -42 l 415 -188 l 267 -188 m 340 -126 l 340 -126 l 340 -106 l 340 -106 l 340 -126 z "},"i":{"ha":505,"x_min":66,"x_max":484,"o":"m 149 859 l 149 1042 l 373 1042 l 373 859 l 149 859 m 262 939 l 261 939 l 261 972 l 262 972 l 262 939 m 66 0 l 66 197 l 177 197 l 177 553 l 66 553 l 66 750 l 373 750 l 373 197 l 484 197 l 484 0 l 66 0 m 153 99 l 397 99 l 397 99 l 272 99 l 272 652 l 153 652 l 153 652 l 272 652 l 272 99 l 153 99 l 153 99 z "},"ı":{"ha":667,"x_min":69,"x_max":598,"o":"m 69 0 l 69 197 l 235 197 l 235 553 l 69 553 l 69 750 l 431 750 l 431 197 l 598 197 l 598 0 l 69 0 m 156 99 l 511 99 l 511 99 l 330 99 l 330 652 l 156 652 l 156 652 l 330 652 l 330 99 l 156 99 l 156 99 z "},"í":{"ha":667,"x_min":69,"x_max":617,"o":"m 69 0 l 69 197 l 235 197 l 235 553 l 69 553 l 69 750 l 431 750 l 431 197 l 598 197 l 598 0 l 69 0 m 156 99 l 511 99 l 511 99 l 330 99 l 330 652 l 156 652 l 156 652 l 330 652 l 330 99 l 156 99 l 156 99 m 248 772 l 417 956 l 617 956 l 419 772 l 248 772 m 380 819 l 379 819 l 463 907 l 463 907 l 380 819 z "},"ĭ":{"ha":667,"x_min":69,"x_max":598,"o":"m 69 0 l 69 197 l 235 197 l 235 553 l 69 553 l 69 750 l 431 750 l 431 197 l 598 197 l 598 0 l 69 0 m 156 99 l 511 99 l 511 99 l 330 99 l 330 652 l 156 652 l 156 652 l 330 652 l 330 99 l 156 99 l 156 99 m 251 772 l 173 850 l 173 958 l 306 958 l 306 906 l 360 906 l 360 958 l 494 958 l 494 850 l 416 772 l 251 772 m 287 833 l 381 833 l 427 883 l 427 901 l 427 901 l 427 883 l 381 833 l 287 833 l 241 883 l 241 901 l 241 901 l 241 883 l 287 833 z "},"ǐ":{"ha":667,"x_min":69,"x_max":598,"o":"m 69 0 l 69 197 l 235 197 l 235 553 l 69 553 l 69 750 l 431 750 l 431 197 l 598 197 l 598 0 l 69 0 m 156 99 l 511 99 l 511 99 l 330 99 l 330 652 l 156 652 l 156 652 l 330 652 l 330 99 l 156 99 l 156 99 m 246 772 l 90 969 l 283 969 l 333 894 l 384 969 l 576 969 l 421 772 l 246 772 m 292 826 l 372 826 l 431 907 l 431 907 l 372 826 l 292 826 l 233 907 l 233 907 l 292 826 z "},"î":{"ha":667,"x_min":69,"x_max":598,"o":"m 69 0 l 69 197 l 235 197 l 235 553 l 69 553 l 69 750 l 431 750 l 431 197 l 598 197 l 598 0 l 69 0 m 156 99 l 511 99 l 511 99 l 330 99 l 330 652 l 156 652 l 156 652 l 330 652 l 330 99 l 156 99 l 156 99 m 246 969 l 421 969 l 576 772 l 384 772 l 333 847 l 283 772 l 90 772 l 246 969 m 292 915 l 233 835 l 233 835 l 292 915 l 372 915 l 431 835 l 431 835 l 372 915 l 292 915 z "},"ȉ":{"ha":667,"x_min":-80,"x_max":598,"o":"m 69 0 l 69 197 l 235 197 l 235 553 l 69 553 l 69 750 l 431 750 l 431 197 l 598 197 l 598 0 l 69 0 m 156 99 l 511 99 l 511 99 l 330 99 l 330 652 l 156 652 l 156 652 l 330 652 l 330 99 l 156 99 l 156 99 m 561 772 l 390 772 l 192 956 l 392 956 l 561 772 m 429 819 l 346 907 l 347 907 l 430 819 l 429 819 m 289 772 l 117 772 l -80 956 l 119 956 l 289 772 m 157 819 l 74 907 l 74 907 l 158 819 l 157 819 z "},"ï":{"ha":667,"x_min":69,"x_max":598,"o":"m 69 0 l 69 197 l 235 197 l 235 553 l 69 553 l 69 750 l 431 750 l 431 197 l 598 197 l 598 0 l 69 0 m 156 99 l 511 99 l 511 99 l 330 99 l 330 652 l 156 652 l 156 652 l 330 652 l 330 99 l 156 99 l 156 99 m 405 786 l 405 932 l 552 932 l 552 786 l 405 786 m 116 786 l 116 932 l 263 932 l 263 786 l 116 786 m 189 851 l 188 851 l 188 865 l 189 865 l 189 851 m 479 851 l 478 851 l 478 865 l 479 865 l 479 851 z "},"ḯ":{"ha":667,"x_min":69,"x_max":617,"o":"m 69 0 l 69 197 l 235 197 l 235 553 l 69 553 l 69 750 l 431 750 l 431 197 l 598 197 l 598 0 l 69 0 m 156 99 l 511 99 l 511 99 l 330 99 l 330 652 l 156 652 l 156 652 l 330 652 l 330 99 l 156 99 l 156 99 m 405 786 l 405 932 l 552 932 l 552 786 l 405 786 m 116 786 l 116 932 l 263 932 l 263 786 l 116 786 m 189 851 l 188 851 l 188 865 l 189 865 l 189 851 m 479 851 l 478 851 l 478 865 l 479 865 l 479 851 m 248 954 l 417 1138 l 617 1138 l 419 954 l 248 954 m 380 1001 l 379 1001 l 463 1089 l 463 1089 l 380 1001 z "},"ị":{"ha":505,"x_min":66,"x_max":484,"o":"m 149 859 l 149 1042 l 373 1042 l 373 859 l 149 859 m 262 939 l 261 939 l 261 972 l 262 972 l 262 939 m 66 0 l 66 197 l 177 197 l 177 553 l 66 553 l 66 750 l 373 750 l 373 197 l 484 197 l 484 0 l 66 0 m 153 99 l 397 99 l 397 99 l 272 99 l 272 652 l 153 652 l 153 652 l 272 652 l 272 99 l 153 99 l 153 99 m 201 -188 l 201 -42 l 349 -42 l 349 -188 l 201 -188 m 274 -126 l 274 -126 l 274 -106 l 274 -106 l 274 -126 z "},"ì":{"ha":667,"x_min":65,"x_max":598,"o":"m 69 0 l 69 197 l 235 197 l 235 553 l 69 553 l 69 750 l 431 750 l 431 197 l 598 197 l 598 0 l 69 0 m 156 99 l 511 99 l 511 99 l 330 99 l 330 652 l 156 652 l 156 652 l 330 652 l 330 99 l 156 99 l 156 99 m 434 772 l 263 772 l 65 956 l 265 956 l 434 772 m 302 819 l 219 907 l 219 907 l 303 819 l 302 819 z "},"ỉ":{"ha":667,"x_min":69,"x_max":598,"o":"m 69 0 l 69 197 l 235 197 l 235 553 l 69 553 l 69 750 l 431 750 l 431 197 l 598 197 l 598 0 l 69 0 m 156 99 l 511 99 l 511 99 l 330 99 l 330 652 l 156 652 l 156 652 l 330 652 l 330 99 l 156 99 l 156 99 m 167 1029 l 386 1029 l 499 898 l 386 768 l 217 768 l 217 877 l 310 877 l 331 898 l 310 920 l 167 920 l 167 1029 m 241 976 l 241 976 l 350 976 l 418 898 l 350 822 l 291 822 l 291 822 l 350 822 l 418 898 l 350 976 l 241 976 z "},"ȋ":{"ha":667,"x_min":69,"x_max":598,"o":"m 69 0 l 69 197 l 235 197 l 235 553 l 69 553 l 69 750 l 431 750 l 431 197 l 598 197 l 598 0 l 69 0 m 156 99 l 511 99 l 511 99 l 330 99 l 330 652 l 156 652 l 156 652 l 330 652 l 330 99 l 156 99 l 156 99 m 416 958 l 494 880 l 494 772 l 360 772 l 360 824 l 306 824 l 306 772 l 173 772 l 173 880 l 251 958 l 416 958 m 380 897 l 285 897 l 240 847 l 240 828 l 240 828 l 240 847 l 285 897 l 380 897 l 426 847 l 426 828 l 426 828 l 426 847 l 380 897 z "},"ī":{"ha":667,"x_min":69,"x_max":598,"o":"m 69 0 l 69 197 l 235 197 l 235 553 l 69 553 l 69 750 l 431 750 l 431 197 l 598 197 l 598 0 l 69 0 m 156 99 l 511 99 l 511 99 l 330 99 l 330 652 l 156 652 l 156 652 l 330 652 l 330 99 l 156 99 l 156 99 m 114 772 l 114 949 l 553 949 l 553 772 l 114 772 m 204 859 l 471 859 l 471 859 l 204 859 l 204 859 z "},"į":{"ha":667,"x_min":69,"x_max":598,"o":"m 240 -256 l 126 -125 l 239 0 l 69 0 l 69 197 l 235 197 l 235 553 l 69 553 l 69 750 l 431 750 l 431 197 l 598 197 l 598 0 l 392 0 l 267 -125 l 288 -147 l 451 -147 l 451 -256 l 240 -256 m 260 -201 l 390 -201 l 389 -201 l 260 -201 l 194 -125 l 402 98 l 504 98 l 503 98 l 326 98 l 326 654 l 163 654 l 164 654 l 326 654 l 326 98 l 163 98 l 164 98 l 402 98 l 194 -125 l 260 -201 m 208 859 l 208 1042 l 431 1042 l 431 859 l 208 859 m 319 946 l 319 947 l 319 965 l 319 965 l 319 946 z "},"ĩ":{"ha":667,"x_min":69,"x_max":598,"o":"m 69 0 l 69 197 l 235 197 l 235 553 l 69 553 l 69 750 l 431 750 l 431 197 l 598 197 l 598 0 l 69 0 m 156 99 l 511 99 l 511 99 l 330 99 l 330 652 l 156 652 l 156 652 l 330 652 l 330 99 l 156 99 l 156 99 m 140 772 l 140 867 l 217 944 l 341 944 l 380 906 l 392 906 l 392 944 l 526 944 l 526 850 l 448 772 l 324 772 l 285 811 l 273 811 l 273 772 l 140 772 m 208 821 l 208 821 l 208 835 l 253 885 l 310 885 l 355 833 l 416 833 l 462 883 l 462 897 l 463 897 l 463 883 l 416 833 l 355 833 l 310 885 l 253 885 l 208 835 l 208 821 z "},"j":{"ha":426,"x_min":14,"x_max":350,"o":"m 14 -278 l 14 -82 l 98 -82 l 153 -26 l 153 554 l 14 554 l 14 750 l 350 750 l 350 -135 l 207 -278 l 14 -278 m 127 -176 l 160 -176 l 252 -78 l 252 653 l 113 653 l 113 653 l 252 653 l 252 -78 l 160 -176 l 127 -176 l 127 -176 m 153 858 l 153 1042 l 350 1042 l 350 858 l 153 858 m 253 939 l 252 939 l 252 972 l 253 972 l 253 939 z "},"ȷ":{"ha":469,"x_min":7,"x_max":385,"o":"m 7 -278 l 7 -82 l 133 -82 l 188 -26 l 188 554 l 7 554 l 7 750 l 385 750 l 385 -135 l 242 -278 l 7 -278 m 120 -176 l 194 -176 l 287 -78 l 287 653 l 106 653 l 106 653 l 287 653 l 287 -78 l 194 -176 l 120 -176 l 120 -176 z "},"ĵ":{"ha":469,"x_min":-8,"x_max":478,"o":"m 7 -278 l 7 -82 l 133 -82 l 188 -26 l 188 554 l 7 554 l 7 750 l 385 750 l 385 -135 l 242 -278 l 7 -278 m 120 -176 l 194 -176 l 287 -78 l 287 653 l 106 653 l 106 653 l 287 653 l 287 -78 l 194 -176 l 120 -176 l 120 -176 m 147 969 l 322 969 l 478 772 l 285 772 l 235 847 l 184 772 l -8 772 l 147 969 m 194 915 l 135 835 l 135 835 l 194 915 l 273 915 l 332 835 l 332 835 l 273 915 l 194 915 z "},"k":{"ha":640,"x_min":76,"x_max":564,"o":"m 76 0 l 76 972 l 273 972 l 273 471 l 285 471 l 367 553 l 367 750 l 564 750 l 564 471 l 466 374 l 564 274 l 564 0 l 367 0 l 367 192 l 285 274 l 273 274 l 273 0 l 76 0 m 176 99 l 175 99 l 175 374 l 334 374 l 464 239 l 464 99 l 463 99 l 463 239 l 334 374 l 464 504 l 464 653 l 465 653 l 465 504 l 334 374 l 175 374 l 175 874 l 176 874 l 176 99 z "},"ķ":{"ha":640,"x_min":76,"x_max":564,"o":"m 76 0 l 76 972 l 273 972 l 273 471 l 285 471 l 367 553 l 367 750 l 564 750 l 564 471 l 466 374 l 564 274 l 564 0 l 367 0 l 367 192 l 285 274 l 273 274 l 273 0 l 76 0 m 176 99 l 175 99 l 175 374 l 334 374 l 464 239 l 464 99 l 463 99 l 463 239 l 334 374 l 464 504 l 464 653 l 465 653 l 465 504 l 334 374 l 175 374 l 175 874 l 176 874 l 176 99 m 141 -368 l 220 -50 l 408 -50 l 298 -368 l 141 -368 m 240 -294 l 240 -294 l 287 -142 l 288 -142 l 240 -294 z "},"ĸ":{"ha":738,"x_min":76,"x_max":661,"o":"m 76 0 l 76 750 l 273 750 l 273 471 l 382 471 l 465 553 l 465 750 l 661 750 l 661 471 l 563 374 l 661 274 l 661 0 l 465 0 l 465 192 l 382 274 l 273 274 l 273 0 l 76 0 m 176 99 l 175 99 l 175 374 l 431 374 l 561 239 l 561 99 l 560 99 l 560 239 l 431 374 l 561 504 l 561 653 l 562 653 l 562 504 l 431 374 l 175 374 l 175 652 l 176 652 l 176 99 z "},"l":{"ha":446,"x_min":21,"x_max":425,"o":"m 21 0 l 21 197 l 125 197 l 125 845 l 21 845 l 21 1042 l 321 1042 l 321 197 l 425 197 l 425 0 l 21 0 m 108 99 l 338 99 l 338 99 l 219 99 l 219 944 l 108 944 l 108 944 l 219 944 l 219 99 l 108 99 l 108 99 z "},"ĺ":{"ha":446,"x_min":21,"x_max":483,"o":"m 21 0 l 21 197 l 125 197 l 125 845 l 21 845 l 21 1042 l 321 1042 l 321 197 l 425 197 l 425 0 l 21 0 m 108 99 l 338 99 l 338 99 l 219 99 l 219 944 l 108 944 l 108 944 l 219 944 l 219 99 l 108 99 l 108 99 m 114 1064 l 283 1247 l 483 1247 l 285 1064 l 114 1064 m 246 1111 l 245 1111 l 328 1199 l 329 1199 l 246 1111 z "}}}
